<mxfile host="65bd71144e">
    <diagram id="SotwOa0Gqw6Tdz5-_HV4" name="Page-1">
        <mxGraphModel dx="721" dy="459" grid="1" gridSize="10" guides="1" tooltips="1" connect="1" arrows="1" fold="1" page="1" pageScale="1" pageWidth="850" pageHeight="1100" background="none" math="0" shadow="0">
            <root>
                <mxCell id="0"/>
                <mxCell id="1" parent="0"/>
                <mxCell id="140" value="" style="rounded=0;whiteSpace=wrap;html=1;fillColor=#f5f5f5;fontColor=#333333;strokeColor=#666666;" vertex="1" parent="1">
                    <mxGeometry x="10" y="10" width="270" height="220" as="geometry"/>
                </mxCell>
                <mxCell id="89" value="Client" style="swimlane;collapsible=0;swimlaneLine=0;align=left;fillColor=#e1d5e7;strokeColor=#9673a6;swimlaneFillColor=#E1D5E7;fontColor=#333;" parent="1" vertex="1">
                    <mxGeometry x="310" y="95.94" width="50" height="28.12" as="geometry"/>
                </mxCell>
                <mxCell id="64" value="Api" style="shape=image;verticalLabelPosition=bottom;labelBackgroundColor=none;verticalAlign=top;aspect=fixed;imageAspect=0;image=data:image/png,iVBORw0KGgoAAAANSUhEUgAAA/8AAALRCAYAAAAN0xOkAAAAAXNSR0IArs4c6QAAAARnQU1BAACxjwv8YQUAAAAJcEhZcwAADsMAAA7DAcdvqGQAAAAZdEVYdFNvZnR3YXJlAEFkb2JlIEltYWdlUmVhZHlxyWU8AAAD92lUWHRYTUw6Y29tLmFkb2JlLnhtcAAAAAAAPD94cGFja2V0IGJlZ2luPSLvu78iIGlkPSJXNU0wTXBDZWhpSHpyZVN6TlRjemtjOWQiPz4gPHg6eG1wbWV0YSB4bWxuczp4PSJhZG9iZTpuczptZXRhLyIgeDp4bXB0az0iQWRvYmUgWE1QIENvcmUgNS42LWMxNDUgNzkuMTYzNDk5LCAyMDE4LzA4LzEzLTE2OjQwOjIyICAgICAgICAiPiA8cmRmOlJERiB4bWxuczpyZGY9Imh0dHA6Ly93d3cudzMub3JnLzE5OTkvMDIvMjItcmRmLXN5bnRheC1ucyMiPiA8cmRmOkRlc2NyaXB0aW9uIHJkZjphYm91dD0iIiB4bWxuczp4bXBNTT0iaHR0cDovL25zLmFkb2JlLmNvbS94YXAvMS4wL21tLyIgeG1sbnM6c3RSZWY9Imh0dHA6Ly9ucy5hZG9iZS5jb20veGFwLzEuMC9zVHlwZS9SZXNvdXJjZVJlZiMiIHhtbG5zOnhtcD0iaHR0cDovL25zLmFkb2JlLmNvbS94YXAvMS4wLyIgeG1sbnM6ZGM9Imh0dHA6Ly9wdXJsLm9yZy9kYy9lbGVtZW50cy8xLjEvIiB4bXBNTTpPcmlnaW5hbERvY3VtZW50SUQ9InV1aWQ6NUQyMDg5MjQ5M0JGREIxMTkxNEE4NTkwRDMxNTA4QzgiIHhtcE1NOkRvY3VtZW50SUQ9InhtcC5kaWQ6N0M2RTcxRERBNTBDMTFFOTlFMEI5MUI4NEM5Qjk2NEMiIHhtcE1NOkluc3RhbmNlSUQ9InhtcC5paWQ6N0M2RTcxRENBNTBDMTFFOTlFMEI5MUI4NEM5Qjk2NEMiIHhtcDpDcmVhdG9yVG9vbD0iQWRvYmUgSWxsdXN0cmF0b3IgQ0MgMjIuMSAoTWFjaW50b3NoKSI+IDx4bXBNTTpEZXJpdmVkRnJvbSBzdFJlZjppbnN0YW5jZUlEPSJ1dWlkOjVmYjJkZjQ3LWM4YzYtNjM0Ny1hMzY3LWQwM2NhZmNmOWYxNSIgc3RSZWY6ZG9jdW1lbnRJRD0ieG1wLmRpZDoxZWJjMTdiNC1mOTQ1LTRmN2QtYWJiMC1hN2NkNDJlOWYxN2IiLz4gPGRjOnRpdGxlPiA8cmRmOkFsdD4gPHJkZjpsaSB4bWw6bGFuZz0ieC1kZWZhdWx0Ij52ZXJ0aWNhbDwvcmRmOmxpPiA8L3JkZjpBbHQ+IDwvZGM6dGl0bGU+IDwvcmRmOkRlc2NyaXB0aW9uPiA8L3JkZjpSREY+IDwveDp4bXBtZXRhPiA8P3hwYWNrZXQgZW5kPSJyIj8+q56OYAAAACF0RVh0Q3JlYXRpb24gVGltZQAyMDIyOjA0OjMwIDE3OjQzOjM2l5LCuQAAV4pJREFUeF7t3QlgZWdZP/73vcnMdIF2JslMaQstnWTaUsUNBBQUcUdU3Cj8BBEQmE5makVENrEURRZlKZ3JdGQX9A9FZFXZRCprgbI7tJ1k2kJLl0mmC91mkpznf+7MKwK2ZZLcJHf5fCA5z/Oc5Gaam7t87zn3nJwAgIWLyMPn731MrtLj6+4hKad1B1ewqCJdFzl9MkX1lonRofeknKOsAQC+i/APAAt03617T+xvxDvq8icPTlgOEfHxFX3VYy85Y901ZQQAFMI/ACzAya+54aTZ/tmLcspry4hlFJGu7q+qB1165tpvlREAUGuUJQAwVxdEXx38/0Xwbx85p+Nn+/I7mm/DKCMAoCb8A8A8bbh+6g/q4P9jpaVt5J8e2T71O6UBAGrCPwDMU+T8h6Wk3UR+YqkAgJrwDwDzFCkeWkraTvxMKQCAmvAPAPOwfuyadTnnFaWl3eS85sQ3Xn5Y6QCg5wn/ADAPK/JhR5SSdnXjauEfAArhHwAAALqc8A8AAABdTvgHAACALif8AwAAQJcT/gEAAKDLCf8AAADQ5YR/AAAA6HLCPwAAAHQ54R8AAAC6nPAPAAAAXU74BwAAgC4n/AMAAECXE/4BAACgywn/AAAA0OWEfwAAAOhywj8AAAB0OeEfAAAAupzwDwAAAF1O+AcAAIAuJ/wDAABAlxP+AQAAoMsJ/wAAANDlhH8AAADocsI/AAAAdDnhHwAAALqc8A8AAABdTvgHAACALif8AwAAQJcT/gEAAKDLCf8AAADQ5YR/AAAA6HLCPwAAAHQ54R8AAAC6nPAPAAAAXU74BwAAgC4n/AMAAECXE/4BAACgywn/AAAA0OWEfwAAAOhywj8AAAB0OeEfAAAAupzwDwAAAF1O+AcAAIAuJ/wDAABAlxP+AQAAoMsJ/wAAANDlhH8AAADocsI/AAAAdDnhHwAAALqc8A8AAABdTvgHAACALif8AwAAQJcT/gEAAKDLCf8AAADQ5YR/AAAA6HLCPwAAAHQ54R8AAAC6nPAPAAAAXU74BwAAgC4n/AMAAECXE/4BAACgywn/AAAA0OWEfwAAAOhywj8AAAB0OeEfAAAAupzwDwAAAF1O+AcAAIAuJ/wDAABAlxP+AQAAoMsJ/wAAANDlhH8AAADocsI/AAAAdDnhHwAAALqc8A8AAABdTvgHAACALif8AwAAQJcT/gEAAKDLCf8AMA8zVTVbStrUisZsVUoA6HnCPwDMQ55Zc30paUORYt/4WUM3lxYAep7wDwDzMH5WY19ETJSW9vP1sgQAasI/AMxTzuldpaTN5HDdAMB3E/4BYJ76G9UrU6TbSku7iLhp5cr+raUDAGrCPwDM0yVnrLumyjFaWtpFTn+082mr95YOAKgJ/wCwALtHh94cOc5MEY7+v8wiYrr+9JTx0aF3lhEAUAj/ALBAE5uGtkaOB0dKH2om0DJmyURV/9rfX1X5AeObh95YhgDAd8llCQC0wEmvvfaYxnTfg3M0jks5DitjFkHO+faIfHWjr/8zl208arKMAQAAAAAAAAAAAAAAAAAAAAAAAAAAAAAAAAAAAAAAAAAAAAAAAAAAAAAAAAAAAAAAAAAAAAAAAAAAAAAAAAAAAAAAAAAAAAAAADpALktgiZ3yuj33rPblX4qUN0RKh5cxi6S+s7s9p9gVM+kj42cN3VzGS2b9jr1H981Uv+D6XhrN67tqxGUrVsRHLn3q2m+X8ZIYGbvhx1OqHpJSrIvIHmcXUX2brnIjXzczkz51+ZmDXy1jAOBOeFICS+zEV92wun9ldXYdDEZzzivLmCUSEfvr3/uO/anv7G+Mrr6hjBfNaa+9cWD//tlzIsXTXd9Lr3l9p5y3zexrvOjKZ6y5sYwXxYZtU4+qUnp5HfdPKyOWUH1df7mR05/tGh36SBkBAN9F+IclNLz1upGc+/+tvuVtKCOWSR0UdldV9cjLz1x3WRm13Mk79pw6O5P/tQ7968uI5XNZVDOPmthyzHjpW2p4bPKlOeVnl5ZllFO8YNfo0F+XFgAohH9YIge2AE/PXlSXIwcnLLeIuGJFteKBl5x59FQZtcyp5900ON2Y/nwd/O9bRiy/8f2p70Gt3uNjw9jUsyKll5eWdhBp0/jmwfNLBwDUGmUJLLL9+2dfVC8E/zbSDOYzjem/KW1L1Zf7UsG/7YysjAO3w5YZOf/G4SrixaWlXeT0ylPO23Nc6QCAmvAPS6C51b/5nu/S0l7+aOTcm9eWuiXWj12zrl48+WBHO6lvhxtPGLtxTWkXLKqZP805rygt7ePwmb58VqkBgJrwD0tg//TsrwoIbSrnvujf/8jStUSOFb/avNzS0kaat8OVabaF13f+zVLQdvJvlAIAqAn/sAQi0smlpA3VgfDUUrZEqy+PFotoydtvTnzj5YfllO5dWtpNi65nAOgWwj8shZxWl4o2FCkdUcqWqC+vuds/bSpyHijlgvTtP9r13Maae3k0T61aWgDoecI/QIvlSP2lpIutqLLHUACgY3jiAgAAAF1O+AcAAIAuJ/wDAABAlxP+AQAAoMsJ/wAAANDlhH8AAADocsI/AAAAdDnhHwAAALqc8A8AAABdTvgHAACALif8AwAAQJcT/gEAAKDLCf8AAADQ5YR/AAAA6HLCPwAAAHQ54R8AAGi5E191w+qRsanHlBZYZsI/AADQcv0rZ7fViwuGt03+1/B51//EwSmwXIR/AACgpYa3TT025/z7zbpe/kxuND4/sm3ytSe99tpjDnwBsOSEfwAAoGU2bJ88PqUYK+1BOef646mN/St2jWyb+vPTLoiVZQ2wRIR/AACgNSJyFfkNddYfKJPvkXO6Z8rpZfv2TO0c3rrn0WUMLAHhHwAAaInhsaktOaVfLu1dyjkP50bj3cPbpj68fmzqh8sYWETCPwAAsGAn79hzah3qX1baQ5Jz+sVGxJeGxya3nXreTYNlDCwC4R8AAFiQB+yIFdVM4y11efjByRzk3JdTHp1pTO/aMDb5xw8/O/rLGqCFhH8AAGBBbpzZ+4KU0wNLOz85r4mUz73qmL1fGdk2+QPfOgDMjfAPAADM28jY5ENyiueVdsFySvdLOX+wvty3nbj1unuVMbBAwj8AADAvP/K31xxZx/W3NHfdL6MWyo9dkfsuGdm2dzSdHXILLJAbEQAAMC+3HrHiFfVi5GC3CHI+OuXYNnzM1EdPfs0NJ5UpMA/CPwAAMGfrt0/9Ws55Y2kXVU754bP91VeHx6aeniJyGQNzIPwDAABzcvKOm4cakV5f2iVRJ/4j648dI2NT7x859+a1ZQwcIuEfAACYk9nZ6e31YnkOxpfzr0X/9JfXb93zC2UCHALhHwAAOGQjWyd/L6f0e6VdFjmnYxs5f3hkbOpvHn529JcxcDeEfwAA4JCc+KobVqdGPq+0yyvn5nv/n3v1uqmPnXr+9cceHAJ3RfgHAAAOSf/K2ZfWi/Y6937OD52p+r6wfuveh5UJcCeEfwAA4Aca3jb10zmlp5e23dwrN6r/HN42eWbpge8j/AMAAHfvguhLKcbKrvZtKafcX//zXjM8NvmWe7/iG4eXMVAI/wAAwN3aMLX3qXWw/tHStrWc8hNWHXbEJ085b89xZQTUhH8AAOAuNQ/yV1Xx16XtCDnnH59pND6//vw9Dywj6HnCPwAAcJf6V1UvrMP0UGk7xoHTAVaN/9qwbfJ3ygh6mvAPAADcqTo43y9HbCltJzo8cnrHyNjkn5QeepbwDwAA3Kk6OL8y5dxX2g6V68yTXzU8NvXqFPV/EfQo4R8AAPg/1m/d8wt1aP7V0na8OvWfNTI29U+nXRArywh6ivAPAAB8r4jcaDReVrrukfPj9u+Zeu+xO64+okygZwj/AADA91i/fe9j68UDDnZdJudfOWLmsP9cv2Pv0WUCPUH4BwAAvuPhZ0d/js46td9c5ZwelGeqC0fOvXltGUHXE/4BAIDv+NbaqSfknIdL27Xq/8YfTf37P7ph++TxZQRdTfgHAAAOaB4MLxrpRaXtfjn/cFWlC0fOnbx3mUDXEv4BAIAD9u/Z+5Q6Ed+ntD2huZdD9KePeQGAbif8AwAAB7b6pxzPK21P8QIAvUD4BwAA0r7r9/5hr231/24HXwDIH3QQQLqV8A8AAD2ueYT/lOPZpe1ZOafT0orpDzgNIN1I+AcAgB531bqp3++FI/wfop9ozFT/euyOq48oPXQF4R8AAHpZRM4pPat0NOX80CNmD3vXgeMgQJcQ/gEAoIetP3/vI+uw+8Olpcgp/fL+yb2vbb44UkbQ0YR/AADoYY3KVv+78cTh7VMvKTV0NOEfAAB61Enb9vxkyunnSsudyCk/e3j75JbSQscS/gEAoEf15fzMUnI3cqRzN2ybelRpoSMJ/wAA0IM2bJ88PlL63dJyt3KjyultJ23b+yNlAB1H+AcAgB5UVfmMnHJ/afkBckr36EvV+07cet29ygg6ivAPAAA9ZuTcalXKsbG0HKqcT+hv9L/7wO8POozwDwAAPaZasfdxOeW1pWUOckoPjv4bxkoLHUP4BwCAHpMjj5aSecg5PWV4bOrppYWOIPwDAEAPOem8qfvX4fVBpWW+IrYOnz/1U6WDtif8AwBAD+lrJFusWyDnvCLNpneuH7tmXRlBWxP+AQCgRxy74+ojUoo/KC0LlHM6NsfKt6azQ66i7fkjBQCAHnGP6VWn14n16NLSAjmnXxo55oY/Ly20LeEfAAB6RNVITy4lrRTVX6/fuvdhpYO2JPwDAEAPOPk1N5yUU/7Z0tJKOfflHG87YezGNWUCbUf4BwCAHlD1zz6hlCyCnNPxK9PM9tJC2xH+AQCgF0R2oL9Flx+7YevU/ysNtBXhHwAAutyGrZMPTjltKC2LKHJsH942dZ/SQtsQ/gEAoMtVjfTEUrLYcj465/TmFJHLBNqC8A8AAN3s7GjkyL9bOpbGI4a37X1qqaEtCP8AANDFNhxzw0NTTseUlqXSSH+3Yfvk8aWDZSf8AwBAF4uI00vJEsopHVVFcvR/2obwDwAA3ersaERKdvlfJjnl31g/NvW40sKyEv4BAKBLNXf5zzkdW1qWQSPSuet37D26tLBshH8AAOhSVQpb/ZdbTusas/FXpYNlI/zDkoh9paAN5YiZUrZE5HRjKWlLcUcpFiQafbeUkjZ15PGrbysl9K6IXy8VyylidMP2vT9aOlgWwj8sgfqGdnUpaUOR8zWlbI1IV5WKdhStuT1etvGoyfqyWvJCAosg0vU7T8/7Swc96ZSxPafknIdLy3LKuS+qaptz/7OchH9YAjOz+T9LSTuanW3t9ZMr13cbi9zK22O4rttWfKwU0LNmovGoUtIOcn7o8PbJJ5QOlpzwD0vg8jMHv5oifb60tJGI+OLEmeu+UNqWmNg09IX6cr9cWtpIRPrs7tHBr5V24XJ6faloP64bel7OyS7/7SYaL7n3K75xeOlgSQn/sESqRvqT+h6/Ki1tIaqcGs8oTevkHKkRru92EzFbf27p9T2+afBfUiRbmNtMpPjX8c1DHyot9KSRcyePqm8LP1Na2kTO6fhVhx3xp6WFJSX8wxLZvWnwk/Vd/pbS0gZyHQTHNw9cWNqWmti09mN1AvHg3kZyI2+e2Dz4qdK2Rs5R5f2Pra/rXWXCcov42sy+PrvVwor0Sznl/tLRVvKz149ds640sGSEf1hC46OD23PE79ZB4boyYhlEij314vRdo0OvOThZHOObh86tF6dHxOTBCcuivr1VOX5n16bBHWXSUrtHj71+5cq+h9Q/571lxHKJuCDNpIde+Yw1zrhBz4tIv1RK2kzO6Z6NWPmXpYUl42iTsAxO23rdPfY1Gn+YI/9GfTNcXz9Ee/V30eXr69/z7kjpX/tXxZsuferab5cVi+6U1+2558y+/KT6DvdR9SP+cP2MbG1ZxaI5eH2n1Hjvypj+h51bjlmS0/Kt3z710FzF4+vyp3PKx9b/hlUH17A48h2R4ls550/Uv/d/3LVl6KKyAnre8LapS+qQeUppaTcRs/X/T53Ycsx4mcCiE/4BAKCLbNg+eXxEdtrZdhfpzeObB59UOlh0dvsHAIAuElXjEaWkrcUTTt6x59TSwKIT/gEAoItEjp8rJe0s575qNr+wdLDohH8AAOgiOcUvlpJ2F+n0ke2Tp5UOFpXwDwAAXeKU8/YcV8f/E0tLu8s5pyq9oHSwqIR/AADoEtP9+cGlpHM85pTtN9y31LBohH8AAOgSOZLw32ly7pupqmeUDhaN8A8AAF0ihy3/HSmnPzph7MY1pYNFIfwDAEA3uCD6IqcHlo4OklM6ckWa2VRaWBTCPwAAdIH1k3vvV4fIe5SWDpNTPnPk3GpVaaHlhH8AAOgCdfB/SCnpTPdKK2/8vVJDywn/AADQBXLET5aSThXVGaWClhP+AQCgG+T0w6WiY+WHrR+bcj2yKIR/AADoBpF+qFR0sEakjaWElsplCQAAdKgN2yePj8hXlZYOFpG+feRt+4/9yrOOvbWMoCVs+QcAgA4XKZ1WSjpczumetx254rGlhZYR/gEAoNPZ5b+7RP6DUkHLCP8AANDphP8uEw8fOXfy3qWBlhD+AQCg02W7/XeVnHPqz48vHbSEA/61mVO233Df2ZjdXJePTJGH62vosINrWCzNg6rUd6+X1dV7Gn0rt1+28ajJsmrRnHr+9cdOz/aNphy/Xt8MN9Q3xCPLKhbP7RFxWf1Y+m99s9XWS89c+60yX3SnnLfnuNm+xpb6b+xRzeu7Hh1+cA2LJVK6tb5x17fr/P4VfbPbLzlj3TVl1eKJyCPbp36n/plPqP8BP1UP1h148sYiiqr+tV9XP1Z+MqXqLROja99bViy69WPXrMuxcrT+N/xmfT2f7H58Sdxe/7531bfvf6+fI22b2Dz4zTKnNjw2OZlTHiwt3SDia+Obh+5fOlgwT0raxYEnjTc8O6I6p36uuLJMWWoRN6VGY/P4poF/LJOWG9k2dUbk9HeeKC6r2yPHn09sGtpa+kUzvG3yzPrJ2Mu9kLd8mi8ENHJ65q5NgzvKqOXuu3XviX2NeHt9u35wGbEMIsV/zVSzj71yyzHXltGiGBmbfEqkfG59fd+jjFhqke6ob9svmNg8+Hdl0tOO3XH1EUfOHubI8F2ozgU/tmvTwJdLCwtit/82MTK297z6kewlgv8yy/noFPHWkW2TZ5VJS9VPGM+uQ+B2wX/ZHZ4jnzcyNvXXpV8UI9umXlzfpl8j+C+v5u0tIp1f367/soxaqrnHVn+OiwT/5ZdT/tkVjb7PNveuKqOW2zA29az6J71e8F9m9f1qzulv68fVV5RJT7vHzKoTS0mXiSpOLyUsmPDfBobH9vxB/SDW3NWfdpHTK9dvn3po6Vpi/djUI+sLfmFpaQ/Pr29/v1nqlhreuufR9d/R80pLO8j5nIO3wxY6OxozMfuu+ro+pkxYdvk+M7ONdzT3qCuDlhnetucREfGy0tIW8p8Ob5/q+XBURRb+u1Sk9FulhAUT/pfZyLnVqvpqeGlpaRu50ajib0uzcPWT0BzJroltKKfG3zYDXGlbo768nOvLpe00Un27bmEoXH/M1B/klH+stLSLnB+6/vyplj9hrm/Xf9fcB7e0tIkc8fIH7IgVpe1J9V/lfUtJl6mv29PWb7++ebwgWDDhf5lVK2/4hfpZxHGlpZ3k/FOturM9aWzygc0779LSXk4eXrf3IaVuifX32vtTKScP1G0p/9D6HZMPKM2CNVL+w1LSZhpVflIpW2L92NQP14ufONjRXvKJN0xP/mxpelNOJ5SKLtQXfbb+0xLC/zLLVfxMKWlDjWi05PpppNZcDosjp9TS66dRpYeVkjbUmMktu74jwnXdtlr7+NoIt+t2lnNvP85GClv+u1h9/Qr/tITwv9xy9j7RNhYp3auUC5JzLNrBp1i4aPX7tXM6vlS0ofr6bsnt8cCp3nLu6V2N21rOa0584+WtO9hmTvcuFW0opx5/nA1/n10t0k81H3NKB/Mm/C+zHK6DthatOftCJAGhzbX2dhjpqFLRjlp0VpUV+bAjSkm7unF1y8J/OLp/m8urStGj8tpS0I1yLVb8aulg3gRPAADoYDmlgVLSper4/wulhHkT/gEAoINFDuG/y0VKv1hKmDfhHwAAOtTIuZNH5ZT7S0uXap4dbMO2yfuVFuZF+AcAgA6VV/QPlZIuVzWSXf9ZEOEfAAA61ExMD5aSLpcj2/WfBRH+AQCgQzVyw/v9e0XEz9YfuXQwZ8I/AAB0qqgOLxXdLuc1J23ds6F0MGfCPwAAdKzGqlLQAxp9+cGlhDkT/gEAoEM1Imz57yWRf6pUMGfCPwAAQAfIOT+olDBnwj8AAHSoyOnoUtIDIsWP3vsV37C3B/Mi/AMAQKfK9f/oGfXV3b/qsCN/vLQwJ8I/AAB0qsgO+NdrIv1QqWBOhH8AAOhQOceKUtIjciPdv5QwJ3YTWmYj26beVF8Lf1ha2kxEOmdi8+ALSztvw2NTr65vbGeVljYTKZ07MTr4J6VdMLfr9taq6/uU7Tfcdzaqy0tLG5re11hz5TPW3FjaBXE/3uYivXl88+CTStdTRsYm6/uz/KrS0hv+c3x08OdLvajW79h79Ioqr6lm0+r6hnZUNNJRuYp7VindIzfiyOaeJ/Xj6uEpN8868T17oRyV43s3NEdO33V/HHfUgzvq+9Xb6u/dHynfUj93ujnN1h/96aY0k25e0T+798i8dvLijXm6fBMLJPwvMyGhvQn/vUH47y3Cf+8Q/nuI8C/895JI19V/7/cq3ZydvOPmoWp29j5Vro6tA/px9QWuqy/z3inntTnFveogPljPB+v5YD3rK9+2bOrH7Zvr+9/r6+flk3V7dV1fW/+7roqovpUa8Y3+1H/Fva5dfdWF5+SZg9/BXbHbPwAAdKg6qN1WSnpFTsec9tobB0r3f5x63k2DG7ZPPmhkbOr3N4xN/sXwtqnX1x8frj8uGdk2dXs1O70npeoLjUj/Wgfp1+aUX5xz3lTXv1df+MPq5f3qn7GuHYJ/U/3vOapejOScHlJ//G492Fz/5b+k/je/OUfjP5svxF+9buqOkbHJK0a2TX6g+WJt/fH0DVv3/mzzhY6Dl0KT8A8AAB2qUcX+UtJD7pieffCG7Xt/dHj71Ol14P3L4W2T/1h/fKEOvTfN9M1MRuSL6i/7x0j5r+rA/JT64xfrj1Pq4HzYwUvoMgdeqMgn1stfySmdVX/siEZc2HyhY3hscrL+3fxX/XvaMbx16mkjYzf8+MPPjv7ynT1F+AcAgA4122juFU2vqUPcv0XEl3Kkt9eB95yc8+/XHz9etpLzXXLzbQw5/0z9e3p6bqS/b+71cPW6vd8e3jb16ZGxqdeMbN/7+FPG9pxSvryrCf8AANChcsRNpQQOVU6HNd9GUFdnpoi3zqZG8y0R146MTb6t+ZaB4a3XjRz8wu4i/AMAQIfKuc9BzqAVcjqm/vTY5lsGcqN/1/C2qauGxybfMrxt8onN4yiUr+powj8AAHSoiNhbSqCFck7H55Sf0Dyw4Ezf9PXN4wZsGJt6Vie/RUD4BwCADtWfq6lSAosmN5rHDYiUXl7eInDZ8NjkS086b+r+5Qs6gvAPAAAdKvpWCf+w1HLakFN+dl9f+srItsmvjoztfc59t+49saxtW8I/AAB0qMu+dU+7/cNyyvmHU4qX9DfiiuZbA4bH9vzBiW+8vC1PqSj8AwBApzonV973D+2h+daAnBr/sOK2e35reGzq1Sfv2HNqWdUWhH8AAOhgOWW7/kM7yXlNTumsarbx9ZFtU/+xfvvUr6WIerS8hH8AAOhgdaSw5R/aVU4/34j0ryPbp746sm3yyaddECvLmiUn/AMAQAfLKa4oJdC28g+lnN+wf3JqfGTb1BnL8SKA8A8AAB0sUhL+oWPk+6Sctv/PiwAP2BEryopFJ/wDAEAHy5GFf+g4B18EuGlm73+v3z7522W4qIR/AADoYBG2/EPHymlDI/K/jIxNfnzD9r0/WqaLQvgHAIAO1t+oLi8l0LHyw6KqLm6eInDk3MmjyrClhH8AAOhgs9ODtvxDN8i5r3mKwLQifW14bOpXyrRlhH8AAOhg42c19kWkq0sLdLx8n5zSB4a3TZ5/71d84/AyXDDhHwAAOt/OsgS6RM5542GHHfHZDdsm71dGCyL8AwBAh8spvlJKoJvk/MNVzp8dHtvzm2Uyb8I/AAB0uCqnr5YS6DI5pXvk1HjP8LapF6aIup0f4R8AADpcI/XZ8g9dLud09vD2qffM92wAwj8AAHS66aN3pojZ0gFdKqf8G9GfP3vyjj2nltEhE/4BAKDDHTjif86XlRboYjmnU6qZ/JmRsb2/XkaHRPgHAIAukCO+XEqg2+V8dIrqvSNjky841OMACP8AANANcrqoVEAvyLkO/flFI9v3/sspr9tzzzK9S8I/AAB0h8+UJdBbfmtmf+OiE8ZuXFP6OyX8AwBAN5ge+GJE7C8d0ENyxL3W9h19S2nvlPAPAABdoHnQv5zS50oL9JKc/vnijXm6dHdK+AcAgG6R88dKBfSQqoq3l/IuCf8AANAlIqWPlxLoEZFiz+51Qz/whT/hHwAAusSqauaTEXG3u/4C3SVHfns6Pc+W9i4J/wAA0CV2bjnmlpTTp0oL9ICc8wWlvFvCPwAAdJcPlSXQ5SLS1buuW/PJ0t4t4R8AALpKfLAUQJfLOd6ezslVae+W8A8AAF1kYtPQF+rFtQc7oMu9oyx/IOEfAAC6Sc6RIt5fOqBLRcTu8U2DF5X2BxL+AQCgy0SO95US6FY5vePAi32HSPgHAIAus+/22z9cJ4JbSwt0oUbV97ZSHhLhHwAAusxVzzzh9pzs+g/dK/5715Y1XyrNIRH+AQCgOx3ygcCAzhIpv7GUh0z4BwCALnTH7bf9m13/oftEin2rVvQJ/wAAQNn1P9K/lBboEjny23Y+bfXe0h4y4R8AALpWvLUUQJeo+qqtpZwT4R8AALrU+NrB/6gX1x7sgI4X6WO7z1j7+dLNifAPAADd6vQ8GyneXDqg48VLSjFnwj8AAHSxyNXrSwl0ti+Mbx76UKnnTPgHAIAutnvTul2R4sLSAp3rpWU5L8I/AAB0uUaVd5QS6ECR0tfHrxt4Z2nnRfgHAIAut2JdHRoiXVdaoMM0Iv4inZOr0s6L8A8AAF1u5+l5f+Rk6z90oEjxpV2jg+8q7bwJ/wAA0AMaOf4+IqZLC3SIOrQ/K+UcpZ034R8AAHrArk1DV+ec/7/SAp0g4t93jQ59pHQLIvwDAECPmI38ilIC7S5idrbKzy7dggn/AADQIy7fPPCVSGne5wkHlk7zOB2Xnzn41dIumPAPAAC9JFcvKRXQpiLF1KoV/S8obUsI/wAA0EMmNq39WB0tPlFaoA01cn7+zqet3lvalhD+AQCgx0SVX1xKoM1EpM/sunbgtaVtGeEfAAB6zMSWwQ9ESheVFmgTkWKmqtLT0zm5KqOWEf4BAKAX5eo5pQLaRE75b1t5kL/vJvwDtFxMl4IuNlNVs6WkTfUdEVHKBctu13Sh5nv/I8WFpQWWWf2oden04Te/qLQtJ/wvt5xuLhXtqBGTpVqQRmrN5bBIosW3w5yvKxVtKa4vxYLkmTUtuRwWR0Ts371x4KbSLliE23U7qwOs2+M8NXL681ICyyqqnONJVz75pDvKoOWE/+UWaWepaEONSJeUckGias3lsDgit/Z2mKv036WkDeWULi3lgoyf1dhXB8yJ0tJ+vl6WLRENj9ftLGePs/O1a9PQZ1PEBaUFlk1+2fjo0GdKsyiE/+U2E++v73DtOtqOIm44qm+wJbvC9R0WH0yRFu1VPOYvUuyb3df4QGlbYl+j7wPNyy0t7eX2ldXsB0u9YDmld5eSNlOHwXeVsiVmD7v5oxHp26WljRw4OFaafn9pmY++/udFeGsLLJuIr6XpNeeUbtEI/8ts/KyhqyLnN5WWNpJzfsnFG3NLHggvfera5hPGVx7saCc50tYrn7HmxtK2xDdGV99Qh8JtpaWdRHrVzi3H3FK6Bevvq15RL24/2NE2Im7qn12xtXQt0dwNM+f429LSRnLkHbtHj7Xb/wKMn7F6Iud0XmmBJdTcYFTl/P+aexSW0aIR/tvAqhV9zfdajR/saAcR8fEVQwPnlrYlbu2/48X15X6xtLSF+MrKmH1haVpqZTV7dn35i3KkVubtC83bYalb4pIz1l1T32FsLi3tIuenXXLm0VOla53pgZc7NVp7iUiXVP35+aVlAaq+xovqFOJFFFhiORp/unt08GulXVTCfxvY+bTVe3Pq+5X6Acz7CdtApLhw1cr+39p5et5fRi1xzcbjb5uJ2V+ry88dnLDMLs45/VortwJ/t+bl1pf/yLr8wsEJy6m+f/3sdDXzqObtsIxaZnzz0BtzirPqn9Ly8/EyNwd2W4546vjo4DvKqKWaW2Xy9IrfqH/GJ8uIZRVfmY38q608sGMva/4eIycvpMBSivTe8c0DY6VbdMJ/m9g1unr3kbftf1D9BPWv6icVN5QxS6j+3V9dP3H849V9g7/UfEGmjFvqyi3HXDt9+M0/m1P680ixp4xZQgd/7/m59fXwsF2bhq4u40XRvPz65zy0/pnPr/+2nPFhOUS6vnl7mzni5oc3b39l2nK7RodeMxvxkPrnfbSZQMuYJRNV/Xv/90aj8ZPjm4deX4aLYvyso/Yc3T/4iFTFn9btov1Ncdfqm1j9GB1/ecSt0z99xZaBK8uYFpi4buANzRdLSwssqvhmf9X/lNIsifo5Ee3mATtixc2zNzykiuqknNNAGbNo8vWzUe26fHTo8ynnpXvSfkH0De/d+6A8m4dTrobKlMUSjck6hO+eWDtwUTo9L/1BNpvX9569D84pr3d9L4Hm9d0XExPX1Nf3OXlJt8ifev71x07P5gfn3Di2/oesKmMWRd4Xqbo60sxnluU932dHY8O9ph4YkUfq63pdmbJI6lC6t5Ebl+8aWvOpZbkf7xEjYzf8eIrZz9XPifrKCGixiNjfaKSfOXC2jSUk/AMAAN8xPDb16joknFVaoNUibRrfPHh+6ZaM3f4BAIADTt6x59QUMVxaoPX+YTmCf5Mt/wAA0OOGt143knL/c3OKP7TLPyyaz91x+60Pv+qZJyzLaYKFfwAA6FEbtk3eL1J+dkrxBKEfFk/z4OIr+mZ/8sBpgpeJ8A8AAL0kIg9v3/vLOcWf1HHgV8sUWCyRbotq9mcmzly3rKeAFv4BAKAHHLvj6iOOmD3sCXUQOSvndFoZA4usyvE7uzcNvau0y0b4BwCALjYyNvmQevGUiPy4OvTf8+AUWBrxjPHRoVeXZlkJ/wAA0GVO3HrdvVY2+v+givSUOvCfWsbAEoqIv53YPPTnpV12wj8AAHSBU87bc9xMI/9u/Qz/9+on+Q+rn+o7rTcsn38Y3zTwpJRzlH7ZCf8AANCh1u/Ye0KeqR6dczo9RXpoHTQ8v4flFvHBlWsHf3Pn6Xl/mbQFdw4AANApLoi+Ddff8NCqUf1a/UT+1+qn8/cva4D28J+39t3x69dsPP620rcN4R8AANrY8NbrRhp9/b8QkX4hpfil+in86rIKaCvxiVv79v1KOwb/JuEfAADayIaxG9enauZno5Ef0Qz8OafjyyqgTdW31c9Gf/7l3RsHbiqjtiP8AwDAMhk5t1oVq274iTSbHlo/Mf/pevTT9TP0Yw6uBTpBJwT/JuEfAACWwAN2xIob9++5f8p9D0g5HpBTfkCk+JGc88ryJUDHiU9UfY1fb/fg3yT8AwBAi42cO3nvakW+fyPS/SPH/VO9rMen1UF/xcGvADpdRPrIbf13PLpd3+P//YR/AACYhzrgHzXb37hvf6pGqpxOzSmfUoeBU+tn2HWdjipfBnSjSO9duXbgMe12Or+7I/wDAMCdOPW8mwZn+qePSdFYH7m6b67SfSPl++acTkoRJ6Wc15QvBXpIpPSmiaGBp6bT82wZdYT2Df9n1/eyx91w777pPBA5js4p7lGlym5SAAAsSI7cXz8JvkfkdHT9JP4e9aj+yOvq55vH1su19fy4OtyvtYs+8P0i0jkTowPnpJzru4/O0jbh/+Qde06tZho/V/86H1H/q+5X/yZPzimvKqsBAABgWUTEdB2eN45vHnpjGXWcZQ3/I9snT4sq/UH9j/j9lPMJZQwAAABtIVK6OUc8pg7+HyqjjrT04T8ij4zd8OspV8+pf3zzXKYAAADQfiLtSo34rfFNQzvLpGMtafjfsG3qUVWKF+ecf7SMAAAAoP1E/Nv0/r7HX/mMNTeWSUdbkvB/3617T+zP8ar6p/12GQEAAEC7esn40MALOu2I/ndn0cP/yLa9T4gc59c/6MgyAgAAgLYTKd2Sq3jy+Jahfy6jrrFo4f/YHVcfccTsYa+pf8AflREAAAC0qy9ENfPYiS3HjJe+qyxK+B859+a10T/9/pzTg8oIAAAA2lKk9KpVQwPP2Xl63l9GXafl4X/k3Ml7R3/6WM55uIwAAACg7USKqUbkP9y1efBfy6hr9ZVlS2zYPnl85HSh4A8AAEA7i0gf7q/iVy7bMvSFMupqLdvyP3Lu5FHRn/7LafwAAABoWxE31Z+fOT46+IaUcxwcdr9GWS5MRE4r8psFfwAAANpWxL/lRvqh8c1Dr++l4N/Uki3/I2OTf1Jf1KtKCwAAAO0j4qY66v/Jri1DbyqTnrPg8D88tucBKfKnc84ryggAAADaQ8Tb+vuqP73kjHXXlElPWlj4PzsaI8fs/WxdPeDgAAAAANrCeMoxOr5p6MOl72kLes//8DGTm+qF4A8AAEBbiJRuqT89Z+XQwA8J/v9r3lv+T9t63T32NfquyCkPlhEAAAAsj6jl/KaZauZ5V2455toypZj3lv/9jRVbBH8AAACWXcQHZ1PjxyZGB58i+N+5eW35v/crvnH4qsOPuLIO/2vLCAAAAJZUpHRRVNXzd29Z+x9lxF2Y15b/ww4/8rcFfwAAAJZDpPhSpOrRE6ODDxH8D828wn9EelIpAQAAYGlE+nxE9dsTmwZ/YmJ07XvLlEMw593+Tzlvz3GzjXxVynlhpwkEAACAQxHpYxHpZRNbBj9QJszRnLf8Vzn/suAPAADAooqYrT+/YzaqB41vHnyE4L8w8wj/6RdLCQAAAC0VEXsjxctmojE8Pjp4+uWb136urGIB5rwFf3jb1FU5p+NLCwAAAK1Qh/w4/47bb/v/rnrmCbeXGS0yp/B/2mtvHNg/PTtVWgAAAJi/iJvqWPqWHI3X79qy5ktlyiKYU/hfv33qoY1InygtAAAAzEmkmKkXH0w5/8PMYTe/98onn3THwTUspjmF/5GxyafU3/L60gIAAMAPFhF1+vxk/fmCyNNv3z167PVlDUtkbuF/29Sz6+94aWkBAADgLkQVKX0iRfrn/ireeemZa79VVrAM5hr+X1x/x/NKCwAAAN8Rkb5dh8yPVDnes3J2xfsvOfNox4xrE3MN/+fV37GltAAAAPSyaO7Pn5oH6vtgTo0PHN2/5lMXb8zTB1fSTuYY/idfm3J+amkBAADoOfHfKfLHIlUfWbVyxX/tfNrqvWUFbWxO4X94bOrV9TecVVoAAAC6WKR0S50BL4pIn4qcPj2T+j7zjdHVN5TVdBDhHwAAgOYe/JM556/W1cVVyhf391VfuuxbQ5elc3JVvoQOJvwDAAD0igNv0U/frKPgeOS4rJHS12dTfK0xveqr42cdtefgF9GNhH8AAIAuUY62f20d7K+p22/klL+ZIn2jaqRv9Deq3dUdg5ePn9XYd/Cr6SXCPwAAwCKJlD5UZ6jbD9axurmsA/k9IqK/Wd+Fm+svqnKd4OvlTXW/v/7m2+rlLfXo1rq+Med8Y67SjbONdGNfFXunU+PaOPKm66588kl3HLgE+D7CPwAAwCJoboU/8rb9x37lWcfeWkawbBplCQAAQEvFWwV/2oXwDwAAsAga0ff3pYRlJ/wDAAC03ud2bVnzpVLDsptj+A8HjwAAAPhBIraXCtrC3MJ/ZOEfAADg7kTcdGv/vreXDtqC3f4BAABaKr/lmo3HN0/NB21jTuH/f85PCQAAwJ2brZID/dF25rblP8e+UgEAAPD9Ij59+ZmDXy0dtI05hf9IMV1KAAAAvk8OW/1pT3MK/40q31pKAAAAvlvEDbfvu82B/mhLcwr/s40UpQQAAOC7RMpvvuqZJzhOGm1pbgf8i7iplAAAAHyXaMyOlRLaztwO+AcAAMD/EZE+vHvTul2lhbYzt/f853xLKQEAAPiOylZ/2tqcwn+VY6aUAAAAHBDfnFg79L7SQFua43v+8x2lBAAAoBaRdqTT82xpoS3NKfzPRuO2UgIAAPS8iJiuVs68rrTQtuYU/lc28s2lBAAA6Hk5pXde/rR7XVdaaFtzCv99/cI/AADA/8i54UB/dIQ5hf909NGO9g8AAHBAfHXX6MDHSwNtbU7hf+fpeX8kR/wHAABIkW31p2PMbct/Ladk6z8AANDTIqWbV8bMW0sLbW/O4b92U1kCAAD0pJzidTu3HGPDKB1jPuHfHzgAANC7IqIx07e1dNAR5hz+I2XhHwAA6GH5fZf98ZrLSwMdYe7v+Y90aykBAAB6ThXVa0oJHWPuu/3n9O1SAQAA9JSItHP35qGPlhY6xjx2+083lBIAAKCn5JTOSznXsQg6y9x3+0+xt5QAAAA9JG484rb9bykNdJS5b/mPJPwDAAA9p85Cr/3Ks451DDQ60ty3/Ocs/AMAAD0mqv5G31hpoOPMOfxX3vMPAAD0nPzeSzetuaI00HHmHP4b4T3/AABAb4lcnVtK6Ehz3/LfJ/wDAAC9IyK+OLFp7cdKCx1pzuG/r1oh/AMAAD0jNxqvKCV0rDmH/9m+aqqUAAAAXS0iXX10Y80FpYWONefwv3vjwE3NI12WFgAAoGvllF5z8cY8XVroWHMO/03O9Q8AAHS7SOnW6f2Nvy8tdLR5hf+U8mQpAAAAulJO6Q1XPmPNjaWFjjav8F/fCK4tJQAAQBeKKqe+V5cGOt78tvznuK5UAAAAXSciv2vX6OrdpYWON8/3/GfhHwAA6FrRSK8qJXSFeb7nP+z2DwAAdKWI9JndmwY/WVroCvN7z39OtvwDAABdqc47rywldI15hf8q5WtKCQAA0DUiYmJ8aOBfSgtdY35b/lN1fSkBAAC6Rk7579Lpeba00DXmFf77Z5Mt/wAAQHeJdN0dd9z65tJBV5lX+L/HyqE9pQQAAOgKkeLcq555wu2lha4yr/B/8cY8Xd8wvAAAAAB0hYj07Zn9fdtLC11nXuG/KYcj/gMAAN0izr/yGWtuLA10nXmH/9o3yhIAAKBjRcT0ir7qVaWFrjTv8B8pfbOUAAAAHSun9OZLzljnoOZ0tflv+c+2/AMAAB0uImar6m9LB11rAbv9hy3/AABAR4uc33X5mesuKy10rfmH/0hXlQoAAKAjNXK8rJTQ1eYd/nPfCrv9AwAAnew/d20a+mypoavNf8v/vqNs+QcAADpW5OpFpYSuN+/wP35WY19yrn8AAKADRcTHJzat/Vhpoest4IB/BzjoHwAA0Hki/02poCcI/wAAQE+JlC6a2DL4gdJCT1hQ+K9vNFeWEgAAoCPkyC8uJfSMBW75j92lAAAAaHuR4kvjo2veX1roGQvb8t/IE6UEAABoe5HTi1LOUVroGQsL/zOz46UEAABoa3Xi//ruawffU1roKQsK/4cfs/aK+iZUlRYAAKBt1eH/RemcLL/QkxYU/neenvfXt6CrSgsAANCeIu3afd3ABaWDnrPAA/7Vsvf9AwAA7S1H/I2t/vSyhYf/COEfAABoW1FnluP2DL61tNCTWrDlvyH8AwAAbSunxgsvPCfPlBZ60sLDf7LlHwAAaE/NI/yPX7/mn0oLPWvB4T9mZ4V/AACgLTnCPxy04PCfq4Zz/QMAAG0nUnzJEf7hoAWH//Gzhm6O5HR/AABAm4k4x1Z/OKgF7/lvHkAjXVpKAACAZRcRX5wYHXpPaaHntST813aWJQAAwPKL/LyUc5QOel5rwn/kS0oFAACwrOrEf9HElsEPlBaotST8R5r9eikBAACWVSPFX5QSKFoS/meiEv4BAIBlFyku3DU69JHSAkVLwv+VW465NkXcVFoAAIBlkaNxdimB79KqA/6lSNnWfwAAYPlE/Nv45oELSwd8l5aF/5ST8A8AACyPiJhNjeeWDvg+LQv/9QUJ/wAAwDLJb71888BXSgN8n5aF/9mUvlZKAACAJRMR+2civ6C0wJ1oWfhfMVt9uZQAAABLJ+dtV2wZuLJ0wJ1oWfi/9My134oUU6UFAABYfBE39fWt+JvSAXehZeG/KUe29R8AAFgykdLfXrbxqMnSAnehpeE/chL+AQCApXLtbf37XlVq4G60NvynEP4BAIAlkXN64TUbj7+ttMDdaGn476v6hH8AAGDxRdp13LUDry8d8AO0NPyvWLd6Z6SYKS0AAMDiiHjehedk2QMOUUvD/87T8/4c6ZLSAgAAtFykdNH45sF3lhY4BC0N/031DdGu/wAAwOJppGeknOvoARyqlof/Rna6PwAAYJFEvG3ijMFPlw44RC0P/7OpuriUAAAArRPpjploPKd0wBy0PPyvWJk+lyLsggMAALTaK6/YMnBlqYE5aHn4v/Spa78dKV9WWgAAgFa4dmXMvKTUwBy1PPw35ZQ+W0oAAIAWiOfv3HLMLaUB5mhxwn+Oz5cSAABgQSLFl8avG3xTaYF5WJTwH7b8AwAArZLjGemcXJUOmIdFCf933H7bl1PEbGkBAADm690Tm9Z+rNTAPC1K+L/qmSfcHjl9tbQAAABzFhHTUc08q7TAAixK+G/KkbzvHwAAmLec03kTW44ZLy2wAIsW/iOy9/0DAADzEin2VH2NF5UWWKBFC/9VzheVEgAAYE5ySs/ZvXHgptICC7Ro4f/y69d8LVK6ubQAAACHJCJ91qn9oLUWLfw3T8WRIz5dOgAAgB8sIhqNONOp/aC1Fi/8N+X0yVIBAAD8QJHyG3dtGnL8MGixRQ3/VQrhHwAAODQRN0Xe/9zSAS20qOH/HrfOXFTfgGdLCwAAcJcix/N3jx57fWmBFlrU8P+VZx17a0r5i6UFAAC4U5HiSxNDQ+eXFmixxX3Pfy1S+lQpAQAA/q/mQf6qdEY6PdtrGBbJoof/+id43z8AAHB3Xr9ry9BFpQYWwaKH//6Z6hOlBAAA+B6RYmrlyv5nlxZYJIse/i89c+236hv05aUFAAD4X1V+7s6nrd5bOmCRLP5u/wfkj5YCAACgiE9NbB54XWmARbQk4T9H/lgpAQAAmrv7z0SVn55yjjICFtGShP++ataWfwAA4Dtyyn87sWXwv0sLLLIlCf8H3vcf6dLSAgAAPSwidt9x+61/VVpgCSzRe/6bwq7/AABAyiltuuqZJ9xeWmAJLFn4z5E+UkoAAKBXRbxtfPPQh0oHLJGl2/I/u/LCUgEAAD0oIvZWefqs0gJLaMnC//hZR+2pb+1fKy0AANBjIqc/3T167PWlBZbQEr7nv3ljz/9RSgAAoIdEpA/vHh16c2mBJbak4T9V1X+WCgAA6B239802NpYaWAZLGv77D0sfjRQzpQUAAHpARPqLy/54zeWlBZbBkob/S5+69tv14pMHOwAAoOtF+vzE2oFzSwcsk6Xd7b+WI/97KQEAgC4WEfurnJ6cTs+zZQQsk2UI/40PlhIAAOhuL9o9OuiMX9AGljz879q8+ssR6ZrSAgAA3ekL975+8GWlBpbZkof/lHOknGz9BwCALtU8yHeuGn904TnZwb6hTSx9+G+K9IFSAQAA3Sbyi3dtWfOl0gFtYFnC/3Tu+1B9j1CVFgAA6BIR8eXV/QMvLi3QJpYl/H9jdPUNEfmzpQUAALpA8+j+jUbjDy/emKfLCGgTy7Pbfy2ncMo/AADoLi/atWngy6UG2sjyhf/oe28pAQCADhcpXTSxdvClpQXazLKF/wMHAIn4RmkBAIDOdXtfX/WkdHqeLT3QZpYt/B+Q83tKBQAAdKx43mUb115SGqANLWv4r1L17lICAACdKNJHxzcNnls6oE0ta/hf0zf08fre4sbSAgAAHaV+Lj8Tf5hyjjIA2tSyhv/mKUAi0r+VFgAA6CBVypvGzxq6qrRAG1ve9/w3NbzvHwAAOk1E/NPu0cG3lRZoc8se/vtXVP9e33HsLy0AAND24psz+/s2lwboAMse/i996tpv55w+WloAAKCdRS3HE698xhrH7oIOsvy7/TeFXf8BAKATRE4vn9i09mOlBTpEW4T/Ku//l/pupCotAADQnj63um/wBaUGOkhbhP/do8denyJ79RAAANpUpHRLavT9v+YZu8oI6CDtsdv/Qe8oSwAAoO1Uo+NnrJ4oDdBh2ib8r1zZd0GkmCktAADQJpqn9ZsYXfuW0gIdqG3C/86nrd6bI/1HaQEAgDZQB//deSZtKi3Qodppt/8mu/4DAECbqIP/dPTFY8fPGrq5jIAO1Vbhf+XK/nfZ9R8AANpDzunPd5+x9vOlBTpYW4V/u/4DAEDbePf4psFzSw10uHbb7T9VOf1/pQQAAJZFfHPlir4/SjlHGQAdru3Cf+prvDtS7CsdAACwhJpvw41Gfmxzr9wyArpA24X/3RsHbsopv7e0AADAUor83IkzBj9dOqBLtN+W/wPyP5QCAABYOu+eGB14RamBLtKW4f/ovjUfjBR7SgsAACyy5vn8p/c1nux9/tCd2jL8X7wxT6eU/6m0AADAYop0RyP6fvfKZ6y5sUyALtOmu/03VW8pBQAAsKhiy64ta75UGqAL5bJsS8Pbpv4753RaaQEAgBaLlN40MTr45NICXaqNt/wfeGXCgf8AAGCRRIov7bv91tHSAl2svcN/I97aPPJIaQEAgBapn2bv7c99v33VM0+4vYyALtbW4X/XpqGrI+X/KC0AANASUeWU/t+lm9ZcUQZAl2vr8N+Uc3pjKQEAgJZoPH9889CHSgP0gLYP/2l6zTtTxA2lAwAAFiAivXN805qXlRboEW0f/sfPauyLlJ32DwAAFihS+nr/qurJKWfH1YIe0/5b/mtVlV5XSgAAYF7ixsizj770qWu/XQZAD+mI8H/5mYNfjUifLS0AADAnUaWcTt+9ad2uMgB6TEeE/6ac4u9LCQAAzEWV/mx809CHSwf0oI4J/0fcNv22SOnm0gIAAIci0pvHtwy9qnRAj+qY8P+VZx17a470D6UFAAB+gEjpojSzZmNpgR7WMeH/gEZsLxUAAHA36uB/1YrG7G83z55VRkAP66jwP75paGek+K/SAgAAdybSbTk1fvOSM9ZdUyZAj+usLf+1SNnWfwAAuCvRVP3++OiaL5YJQOeF/8OGBv6lXlx7sAMAAL5Xfs7ElrXvKQ3AAR0X/neenvenFOeXFgAAKCLSG8Y3D768tADf0XHhv2l2xcz5ETFdWgAA6HmR4sJVawc2lRbge3Rk+L/8afe6LuX09tICAEBPi0iXrlrR/zsH95IF+L86Mvw3NXI6r5QAANCzIsWevtnGI3c+bfXeMgL4Pzo2/O/aNPTZFPHp0gIAQC+6vZHTr1/2x2suLz3AnerY8H9ApFeWCgAAekxUVY7HH9goBvADdHT4H183+K5I4VVOAAB6Tk7pGbs3Db2rtAB3q7O3/J+eZ+v/gFeXDgAAekKkdO6u0aHXlBbgB+rs8F9bUc2+ob77u7G0AADQ3SIumNg08IzSARySjg//O7ccc0tEOr+0AADQternvR9ZuXbwD1LOUUYAh6Tjw3/Tir7qNSnSHaUFAICuExFfzDPxu87lD8xHV4T/S85Yd02keHNpAQCgq9TBf6JaOfPI8bOGbi4jgDnpivB/QMz+XX2vOFs6AADoCpFiT/1c91cvf9q9risjgDnrmvA/seWY8ZTTP5cWAAA6XqR0S/35kQee6wIsQPds+T+g72WlAACAjhYR+yNVj54YXXtxGQHMW1eF//HRNV+MFO8rLQAAdKioUo7H7B5d+9EyAFiQLtvyn1JO6W9KCQAAnSk3njgxuva9pQNYsK4L/+OjQ59JER8sLQAAdJbIm8c3Dfxj6QBaouvCf1P05XNKCQAAHSMinje+eWCstAAt05Xhf+KMwU9HigtLCwAAba9+/vryic1DLyktQEt1ZfhviqrxF6UEAIC2Vgf/8yc2DT6ntAAt17Xhf/eWgU947z8AAO0uUnpjHfxHU851CbA4ujb8H5DTC0sFAABtJyL+aWJo4GmCP7DYujr8Hzjyf0rvOdgBAED7OBD81w4+MZ2eZ8sIYNF095b/AxqO/A8AQHuJ9C7BH1hKXR/+x0fXfDFFvK20AACwrCLF+1auHXic4A8spR7Y8t/cpWr2BfWd7ExpAQBgWTSD/6qhwd/beXreX0YAS6Inwv/ElmPG68XfH+wAAGDpCf7AcuqJ8N+0olH9daR0a2kBAGDJCP7AcuuZ8H/JGeuuySm9urQAALAkBH+gHfRM+G/qW1m9rL73vb60AACwqJqn8xP8gXbQU+H/0qeu/Xbk9ILSAgDAovmf8/gL/kA76Knw33Tv6wbeUN8V/3dpAQCg5f4n+DudH9Auei78X3hOnokq/1lpAQCgxeK1gj/QbnJZ9pzhsakP1v/xv1xaAABogXjl+KbBP0s5RxkAtIWe2/L/PxoRfxIpZkoLAAALFC8cHx16puAPtKOeDf+7Ng99PUXeWloAAJi/Kv60Dv7nlA6g7fRs+G+K/vzCSLGntAAAMEdRpYinjm8ZelUZALSlng7/uzcO3JRSfl5pAQDgkEXEdET+/fHNQ68vI4C21dPhv2niuoE3RKTPlhYAAA7F7dHIvzWxefDtpQdoaz0f/tM5uUq5Gj2wyxYAAPwAkWKq/vzzuzcN/lsZAbQ94b82Mbr24kjp/NICAMBdiG82Iv3M+OjQZ8oAoCMI/0X0NZ6XIl1fWgAA+D7x32k6/fSBs0YBdBjhvygH/3tmaQEA4H9FfHJ/6v+Z8bOGrioTgI6Sy5JieNvUh3NOv1haAAB6XKR43219+x53zcbjbysjgI5jy//3aeS+jfXi9oMdAAC9LV47MTT424I/0OmE/++za3T17pzS2aUFAKBn5eeOjw49PZ2eZ8sAoGMJ/3fiuOsGXhUpvlRaAAB6SETsz1X6/fHRgZeWEUDH857/u7D+/D0PbMzmz6Sc+8oIAIBuF3FDzo1H7xod+HiZAHQFW/7vwu4z1n4+pfyy0gIA0OUixeV9OX5K8Ae6kfB/d2bWvKh+GPjv0gEA0KUi0mcjTT/k0tG1l5YRQFcR/u/G+FmNfVUjnlQ/GjjICwBAt4q44Lb+Ox6xe/TY68sEoOt4z/8hGNk29eL6N/W80gIA0CUi0jkTowPnpJyjjAC6ki3/h2JmzYsi4sulAwCg891eB//HTWwefKHgD/QCW/4P0UnnTd2/0YjP55xXlhEAAJ3p2jrvP3rXpqHPlh6g69nyf4guP3Pwqynl55cWAIAOFBFfTNPxk4I/0GuE/zmYuH7glZHiv0oLAEAHiZT++bb+fQ8bP2voqjIC6Bl2+5+j+27de2J/o/pS/atbXUYAALSziMg5/eWuTYMv9v5+oFcJ//MwMjb1mHpxwcEOAIC2FXFTyo0njI8OvL9MAHqS3f7nYXx08B31A8nrSgsAQBuKlL4+W1UPEvwBhP95O+K26T+JSJeWFgCA9vLu/pXVgy8/c91lpQfoaXb7X4ANW2/4saox+5mc8qoyAgBgOUVE/Qz37PFNg3/t/f0A/8uW/wXYtWVN88B/f1xaAACWU8QNOeXfGB8d+ivBH+B72fLfAsPbJt+ac358aQEAWHoXN2Yaj7nsj9dcXnoAvost/y2wKmbP8P5/AIBlEvH3aXrNQwV/gLtmy3+LrB+b+uFGpIvq3+gRZQQAwGKKdFuk2DSxeegfygSAu2DLf4vsHh38WqT0lNICALCYIu2ardJDBH+AQyP8t9DE5sG3R0qvKi0AAIsgIr2zb1X1gMvPHPxqGQHwAwj/LXbv6wb+PEX6WGkBAGiRSLGv/rRpYvPg71361LXfLmMADoH3/C+Ck1577TF90/2fq3+99ykjAAAWICJdUlXpdFv7AebHlv9FcPnT7nVdSn2PrsvbD04AAJivSOmNR962/4GCP8D82fK/iEbGph5TLy442AEAMBd16L8l53zG+KaBfywjAObJlv9FND46+I76QetFpQUA4BBFxBcjz/6E4A/QGrb8L7aIPLx97wX1L/r3ygQAgLtSp/5I6e9WrR38i52n5/1lCsACCf9L4NgdVx9xxOxhH61/2Q8uIwAAvk8d+q9KUT1xYvPa/ywjAFrEbv9L4JqNx98Waf9vRsQVZQQAwPeIt0+nvh8R/AEWhy3/S2jDtsn7RUqfTjkfXUYAAD0tIn075WrzxOjat5QRAItA+F9iw9v3/Fyq8odyzivKCACgR8Wn+nLf4y/dtMbekQCLTPhfBsPbp07PVbwt5ez3DwD0nEixr5HyC3YNDbwynZ5nyxiARSR8LpORbZNn1eH/1aUFAOgVF1cpPWn36ODXSg/AEnDAv2Uyvnno3EjxstICAHS1+nnPTIo4+/jrBh4i+AMsPVv+l1NEHt6+97X1lfBHZQIA0IXiq7nqe+KuLWu+VAYALDFb/pdTzjExNLAxRVxQJgAA3SNiNkX6mzQ98JOCP8DysuW/DZx2Qazcv2fq3SnnR5YRAEBHi4gvR188dfcZaz9fRgAsI1v+28DO0/P+W/v3/V5d/ufBCQBAZ2oeyb8O/n+xun/wJwV/gPZhy38bOeV1e+45s6/xkZzTg8oIAKBzRHyy0R9PvWzj2kvKBIA2Ify3mfU79h6dZ+JDXgAAADpFpHRryvGciWsHx9I5uSpjANqI8N+GvAAAAHSO+EDV19i4e+PAN8oAgDYk/LcpLwAAAO0sIl2TGulPJjYNOmsRQAdwwL82tXvjwE3Rn3+5fmD9bBkBALSBqFKkrXkmThX8ATqHLf9tbuTcyaPSivzuunzEwQkAwLL5QtWoNjqKP0DnEf47wLE7rj7iyNnD3l+XXgAAAJZcRPp2TvGC8bWDW9PpebaMAeggwn+HOO2CWLl/cu/b6/K3Dk4AAJZCvD3n9Mxdm4auLgMAOpDw30kuiL7hyb2vq6+0J5UJAMDiiPhaSo0t45sHLiwTADqY8N9pIvLw2N5X5pz+pEwAAFon4qb6ecZfHnfd4NiF5+SZMgWgwwn/HWpk29Sz62vvpaUFAFiYqKX8xsj7n7t79NjryxSALiH8d7CRbXufEKl6Q855RRkBAMxZ89TCjYg/3rVl6KIyAqDLCP8dbmT75C9F5H+ur8ijyggA4JDUof/qlKvnTmwaemvKOcoYgC4k/HeBDVtv+LGqUb2vvjLvXUYAAHepTvm35hQvu+P22/7uqmeecHsZA9DFhP8ucer51x87U/W9ry4fcHACAPB9yvv6V/TN/sUlZ6y7pkwB6AHCfxc5dsfVRxwxe9hb6iv1d8oIAOCgSB/NjfynuzYNfLlMAOghwn+3icgj2/e+uK6ee3AAAPS4y1LkPxvfPNDcQxCAHtUoS7pFzjE+Ovi8iPS4FOm2MgUAekyk9K2o0tOPv27ghwR/AGz572LNAwFGY/bd9dV8YhkBAF0vbkyRX3LHHbee52B+APwP4b/LnXreTYMzjZkL6mv658sIAOhOzaD/6ul9jZdf+Yw1Nx4cAcBBwn8vuCD6RvbsfVF9bT+vTACAbhExGzm9dkWjepEj+ANwV4T/HrJh29SjIsdb66t9dRkBAJ3qwFn70gVRzf7FxJZjxssUAO6U8N9jTn7NDSdVfVXzbQAPLCMAoJOU0F9/vGh809DOMgWAuyX896DTLoiV+/dM/U3K+ZllBAB0hvfMRv7LyzcPfKX0AHBIhP8etn5s6pE5xZtzymvLCABoT+9JqXHO+OiaL5YeAOZE+O9xp5y357iZRuNNOadfKiMAoH0I/QC0hPBP872DecP2qTPrxcvqv4jDyhQAWA7N9/Sn/O6UG38l9APQKsI/37Fh2+T9qpT+Mef842UEACyViNn6qdk/pUa81IH8AGg14Z/v8YAdseLGmb3PTzmen1PuL2MAYLFEuiNyvKk/973s0k1rrihTAGgp4Z87tWHrDT9W5dk35Zx/tIwAgBaKlG6tP29b0ahefckZ664pYwBYFMI/d6m5F8BNs1PPi0jPyzmvLGMAYAEixVT9BOy86X195175jDU3ljEALCrhnx9oZPvkafUzlR31n8vDyggAmLvL6sfTV91xx61vvuqZJ9xeZgCwJIR/Dk1EHt6296m5ES+v/2xWlykA8ANExMdTjr+buG7o/emcXJUxACwp4Z85Oem11x7T2N//ipzz48sIAPh+zSP35/TPsxGvuHzz2s+VKQAsG+GfeVm/de/Dcq62OiAgAPyvSOmWevHa2Sqfe8WWgSsPTgFg+Qn/zN8F0Tc8OXlGjvxXKec1ZQoAveiyFDGWZtIbx88aurnMAKBtCP8s2Mk7bh6qZqZfmFKckXLuK2MA6G5RS+lfU+RtE5sHPlg/BtYtALQn4Z+WOWVszymz0Xh5/Vf1m2UEAF0omqfne0Nq9I+Nn7F64uAMANqb8E/LjWzb+/D6idHf1X9dDywjAOh8EV+LnM878tb9//iVZx17a5kCQEcQ/lkcEXlk29TvRiO/qP4ju1+ZAkBHiRT76sU7Gqnx97tGBz5+cAoAnUf4Z3GdHY0Na6eeWDXSX+aUTypTAGhrkdLXc4q/X7mi/x92Pm313jIGgI4l/LMkTrsgVu7fs/cpKcfz6j+7+5QxALQNW/kB6GbCP0vqu14EeE7953diGQPA8on4Wv35dStX9r/FVn4AupXwz7J4+NnR/621U0+ocvqLnPNwGQPA0oi4KVJ6W87pTeOjQ58pUwDoWsI/y+rgiwB7HxON9Gd1+xMHpwCwGKJKkT5c5fym2cNvfveVTz7pjrICALqe8E/b2DA2+YtV5D/POf1SGQHAgkWkS3Md+HOu3rJr09DVZQwAPUX4p+1s2L73R6uq+vO6fEz9ZG3FwSkAzEHEDWW3/n+wWz8ACP+0sVPPv/7Y6arvjPoZ3Kac8toyBoA7F+m2lON9KRr/uHLtmg/uPD3vL2sAoOcJ/7S9kXOrVdWKvY9rpPzHdeu4AAB8R6SYyZE+lBqNf1o5O/2enVuOuaWsAgC+i/BPRxneNvXT9R/t0yPH43LKq8oYgF4SEfUzmE+myP/Y6F/xz5dtPGqyrAEA7oLwT0c67bU3DuyfnnliRD4j53RKGQPQxSKli+rFO6Ivv2P3xoFvHJwCAIdC+Kez1el/+PzJh6cqPzXn/Dv15PCDKwDoeN/Zwp/+uepvvEvgB4D5E/7pGut37D26r4rHVVV6Ss7pQWUMQEeJKlL6eB3439lfxTsvPXPtt8oKAGABhH+60vDWqR/KOZ4cKf9+zunYMgagDUXEdP2U5ML6Sck7q7z/X3aPHnt9WQUAtIjwT3e7IPpGpqZ+PlX58ZHS7+Sc7lnWALCs4sb6fvnfU+T3RH/+wO6NAzeVFQDAIhD+6Rn3fsU3Dl95+JGPzhGPr9tfzjmvPLgGgKUQEVekXIf9VL13Td/Qxy/emKfLKgBgkQn/9KQTX3XD6hUrZ3+3Lh8TOf1CTrn/4BoAWubAAfvy5+vFe6rUeN/lmwe+UtYAAEtM+KfnHTht4P6Z365LLwQALFCkmKo/fSCnxgeqvO9D3r8PAO1B+IfvcsLYjWtWpOlfT6nxWznSr9a3kCPKKgDuVFQR+fN18e+NiH/ftWfwc+mcXB1cBwC0C+Ef7kLzGAGrDj/8l1Jq/Hb95PY3csqDZRVAb4vU3Jr/wRzp3/ui/0OXnHn01MEVAEC7Ev7hUFwQfeun9j6kEelR9bPe+iP/SFkD0PUipVvqz81T8X1kdjb/x+VbBr6Wch39AYCOIfzDPKzfsfeExmw8KlI8Kqf88/Xo8INrADrfgfPu5/Sp+knCf1Q5f/Q+1w5cdOE5eaasBgA6kPAPCzRybrWq6pt6WM75V3JOv2KvAKDjRMzW911fTDk+Fil/5La+Oz5+zcbjbytrAYAuIPxDi5249bp79ee+X67L+iP/fM7p2INrANpDpNiXI30+5fyxqNInVqWZT+zccswtZTUA0IWEf1hkJ+/Yc+rsbPqFFI1H1E+5H5FzHiirAJZEpHRr/YD/mZziY1WOT8wcdstnrnzySXeU1QBADxD+YSmdHY0Na2/8kWjM/lx983t4RDTfLjBU1gK0SHyzTvyfrh/lP52r9Onj9gxe7D37ANDbhH9YThF5w9jUqdF8ISDFz6Scf7a+Ud67rAX4gcou/F+oy0/VzWf6Ij516Zlrv3VwLQDAQcI/tJnmmQTyTPxUfev8qfqJfL2Mn8gp95fVQI+rw/7lddj/3P9s1V+xbvCLO0/P+8tqAIA7JfxDm7v3K75x+MpV93hAI8dPR0oPyjkeVN9071NWA12tuft+bh6Y77MpVxev7O+/eOfTVu8tKwEADpnwDx3opNdee0z//hUPrFJ6cE7xwEjpJx07ADpbfTv+Vv354rq4qA78F+fZFRePn3XUnrIaAGBBhH/oEgffLjD7Eyk3frwOEPVH/nHHD4D2Eylm6tvm1+uw/+X6dvqlRoov576VX7ps41GT5UsAAFpO+IcuNnLuzWvTyv0/liP/WJXiR+rUcf96fFrOecXBrwAW14Gj7n+tfrT974j01Zz7vpqmj945flZjX/kCAIAlIfxDj3n42dF/1dq9p0Qj3b8R6f6R4/51OPmhnNN967uERvkyYC4ivhE5X1JXX09VHfT70s7G/vjq+FlDNx/8AgCA5SX8Awec+MbLD1t5x9GnzEbcL0c6rb53uF9Ocb+IdLI9BaAW6baUYzxSvqyuv54b+dKYmfn6kXfMXvqVZx17a/kqAIC2JPwDd++C6NswedOJVTV7cqMRJ0fkDZHTySni5JzTCfYWoJtEpG/Xn3fnnC+vl+NR1UG/r9rVSHnXrk1DV5cvAwDoOMI/MG8j51ar+lZM3Xc6N4ZzivUp8vr6TmV9HZrWRzpQH1m+FNpCpHRr/bd6Rb28Ike+vF5e3qj7qqquWHXYyiucRg8A6FbCP7Bo1o9dsy41+k9oVPnEVKUTopFPzJFOqO95TowUJ+aUB8uXQgtEVT+sXV8n/KsixzXNZf03dkU00hWRq939edUVjqgPAPQq4R9YNs3jDPTdceR9GlX/cTniuMjphEjpuPqe6bg6uN07pwOzY+oAt6p8Cz0qIiZzTs1A/63IuQ716dp6fHWk6upGztf25eqblwysvT6dnmcPfgcAAN9N+Afa3omvumH1qiNm7lXN9B1T5Ti2EXFMpHSvlPPaOhauy5GG6ruz+iOG6tma8m20sUgxlVOeqlP9VH3d7Ymc9tTTqUbKkweCfsrXR46pvtx37ez+o69xajwAgIUR/oGu0jyV4RVrrx/qT/2DdZAcrPLsQM55IFJeU9/hralDZ/PFgYN15NV1fVR9T3hUjrhnyvnoAxfCDxbpjvrzzfXvrnkqu+bHTQeWkW78zizSzbmRborZOug3GtdFrqaqmJ7cPXSvKVvoAQCWlvAP8F1Gzp08ql4clfvTPVMj3bNKcUQdYo9K0Ti8EXF45HR0fdd5WKR0eH0Purq+E20cWJ8P3J8eePEgUjRfVGgWzcv6n7MhHJ0Pfk09z4fVn+qP/1Vf3hGHdErF5unmUkyX7n9U9SX/n/PJR+Tb688HtpjXP/vb9c+YzZGbIb0ZvG+u/1tm6uUt9Rfur7/itvrn14G+uiOqfGv9HzUdjeb31D+rvuzGbP+NqZFvzn2Nm++Z7nnTxRvz9/8bAAAAAAAAWB4p/f/t71wv3wCHDwAAAABJRU5ErkJggg==;fontColor=#333;" parent="1" vertex="1">
                    <mxGeometry x="220" y="100" width="28.37" height="20" as="geometry"/>
                </mxCell>
                <mxCell id="92" style="edgeStyle=none;html=1;strokeColor=#333;" parent="1" source="89" target="64" edge="1">
                    <mxGeometry relative="1" as="geometry"/>
                </mxCell>
                <mxCell id="55" value="Worker" style="shape=image;verticalLabelPosition=bottom;labelBackgroundColor=none;verticalAlign=top;aspect=fixed;imageAspect=0;image=data:image/png,iVBORw0KGgoAAAANSUhEUgAAA/8AAALRCAYAAAAN0xOkAAAAAXNSR0IArs4c6QAAAARnQU1BAACxjwv8YQUAAAAJcEhZcwAADsMAAA7DAcdvqGQAAAAZdEVYdFNvZnR3YXJlAEFkb2JlIEltYWdlUmVhZHlxyWU8AAAD92lUWHRYTUw6Y29tLmFkb2JlLnhtcAAAAAAAPD94cGFja2V0IGJlZ2luPSLvu78iIGlkPSJXNU0wTXBDZWhpSHpyZVN6TlRjemtjOWQiPz4gPHg6eG1wbWV0YSB4bWxuczp4PSJhZG9iZTpuczptZXRhLyIgeDp4bXB0az0iQWRvYmUgWE1QIENvcmUgNS42LWMxNDUgNzkuMTYzNDk5LCAyMDE4LzA4LzEzLTE2OjQwOjIyICAgICAgICAiPiA8cmRmOlJERiB4bWxuczpyZGY9Imh0dHA6Ly93d3cudzMub3JnLzE5OTkvMDIvMjItcmRmLXN5bnRheC1ucyMiPiA8cmRmOkRlc2NyaXB0aW9uIHJkZjphYm91dD0iIiB4bWxuczp4bXBNTT0iaHR0cDovL25zLmFkb2JlLmNvbS94YXAvMS4wL21tLyIgeG1sbnM6c3RSZWY9Imh0dHA6Ly9ucy5hZG9iZS5jb20veGFwLzEuMC9zVHlwZS9SZXNvdXJjZVJlZiMiIHhtbG5zOnhtcD0iaHR0cDovL25zLmFkb2JlLmNvbS94YXAvMS4wLyIgeG1sbnM6ZGM9Imh0dHA6Ly9wdXJsLm9yZy9kYy9lbGVtZW50cy8xLjEvIiB4bXBNTTpPcmlnaW5hbERvY3VtZW50SUQ9InV1aWQ6NUQyMDg5MjQ5M0JGREIxMTkxNEE4NTkwRDMxNTA4QzgiIHhtcE1NOkRvY3VtZW50SUQ9InhtcC5kaWQ6N0M2RTcxRERBNTBDMTFFOTlFMEI5MUI4NEM5Qjk2NEMiIHhtcE1NOkluc3RhbmNlSUQ9InhtcC5paWQ6N0M2RTcxRENBNTBDMTFFOTlFMEI5MUI4NEM5Qjk2NEMiIHhtcDpDcmVhdG9yVG9vbD0iQWRvYmUgSWxsdXN0cmF0b3IgQ0MgMjIuMSAoTWFjaW50b3NoKSI+IDx4bXBNTTpEZXJpdmVkRnJvbSBzdFJlZjppbnN0YW5jZUlEPSJ1dWlkOjVmYjJkZjQ3LWM4YzYtNjM0Ny1hMzY3LWQwM2NhZmNmOWYxNSIgc3RSZWY6ZG9jdW1lbnRJRD0ieG1wLmRpZDoxZWJjMTdiNC1mOTQ1LTRmN2QtYWJiMC1hN2NkNDJlOWYxN2IiLz4gPGRjOnRpdGxlPiA8cmRmOkFsdD4gPHJkZjpsaSB4bWw6bGFuZz0ieC1kZWZhdWx0Ij52ZXJ0aWNhbDwvcmRmOmxpPiA8L3JkZjpBbHQ+IDwvZGM6dGl0bGU+IDwvcmRmOkRlc2NyaXB0aW9uPiA8L3JkZjpSREY+IDwveDp4bXBtZXRhPiA8P3hwYWNrZXQgZW5kPSJyIj8+q56OYAAAACF0RVh0Q3JlYXRpb24gVGltZQAyMDIyOjA0OjMwIDE3OjQzOjM2l5LCuQAAV4pJREFUeF7t3QlgZWdZP/73vcnMdIF2JslMaQstnWTaUsUNBBQUcUdU3Cj8BBEQmE5makVENrEURRZlKZ3JdGQX9A9FZFXZRCprgbI7tJ1k2kJLl0mmC91mkpznf+7MKwK2ZZLcJHf5fCA5z/Oc5Gaam7t87zn3nJwAgIWLyMPn731MrtLj6+4hKad1B1ewqCJdFzl9MkX1lonRofeknKOsAQC+i/APAAt03617T+xvxDvq8icPTlgOEfHxFX3VYy85Y901ZQQAFMI/ACzAya+54aTZ/tmLcspry4hlFJGu7q+qB1165tpvlREAUGuUJQAwVxdEXx38/0Xwbx85p+Nn+/I7mm/DKCMAoCb8A8A8bbh+6g/q4P9jpaVt5J8e2T71O6UBAGrCPwDMU+T8h6Wk3UR+YqkAgJrwDwDzFCkeWkraTvxMKQCAmvAPAPOwfuyadTnnFaWl3eS85sQ3Xn5Y6QCg5wn/ADAPK/JhR5SSdnXjauEfAArhHwAAALqc8A8AAABdTvgHAACALif8AwAAQJcT/gEAAKDLCf8AAADQ5YR/AAAA6HLCPwAAAHQ54R8AAAC6nPAPAAAAXU74BwAAgC4n/AMAAECXE/4BAACgywn/AAAA0OWEfwAAAOhywj8AAAB0OeEfAAAAupzwDwAAAF1O+AcAAIAuJ/wDAABAlxP+AQAAoMsJ/wAAANDlhH8AAADocsI/AAAAdDnhHwAAALqc8A8AAABdTvgHAACALif8AwAAQJcT/gEAAKDLCf8AAADQ5YR/AAAA6HLCPwAAAHQ54R8AAAC6nPAPAAAAXU74BwAAgC4n/AMAAECXE/4BAACgywn/AAAA0OWEfwAAAOhywj8AAAB0OeEfAAAAupzwDwAAAF1O+AcAAIAuJ/wDAABAlxP+AQAAoMsJ/wAAANDlhH8AAADocsI/AAAAdDnhHwAAALqc8A8AAABdTvgHAACALif8AwAAQJcT/gEAAKDLCf8AAADQ5YR/AAAA6HLCPwAAAHQ54R8AAAC6nPAPAAAAXU74BwAAgC4n/AMAAECXE/4BAACgywn/AAAA0OWEfwAAAOhywj8AAAB0OeEfAAAAupzwDwAAAF1O+AcAAIAuJ/wDAABAlxP+AQAAoMsJ/wAAANDlhH8AAADocsI/AAAAdDnhHwAAALqc8A8AAABdTvgHAACALif8AwAAQJcT/gEAAKDLCf8AMA8zVTVbStrUisZsVUoA6HnCPwDMQ55Zc30paUORYt/4WUM3lxYAep7wDwDzMH5WY19ETJSW9vP1sgQAasI/AMxTzuldpaTN5HDdAMB3E/4BYJ76G9UrU6TbSku7iLhp5cr+raUDAGrCPwDM0yVnrLumyjFaWtpFTn+082mr95YOAKgJ/wCwALtHh94cOc5MEY7+v8wiYrr+9JTx0aF3lhEAUAj/ALBAE5uGtkaOB0dKH2om0DJmyURV/9rfX1X5AeObh95YhgDAd8llCQC0wEmvvfaYxnTfg3M0jks5DitjFkHO+faIfHWjr/8zl208arKMAQAAAAAAAAAAAAAAAAAAAAAAAAAAAAAAAAAAAAAAAAAAAAAAAAAAAAAAAAAAAAAAAAAAAAAAAAAAAAAAAAAAAAAAAAAAAAAAADpALktgiZ3yuj33rPblX4qUN0RKh5cxi6S+s7s9p9gVM+kj42cN3VzGS2b9jr1H981Uv+D6XhrN67tqxGUrVsRHLn3q2m+X8ZIYGbvhx1OqHpJSrIvIHmcXUX2brnIjXzczkz51+ZmDXy1jAOBOeFICS+zEV92wun9ldXYdDEZzzivLmCUSEfvr3/uO/anv7G+Mrr6hjBfNaa+9cWD//tlzIsXTXd9Lr3l9p5y3zexrvOjKZ6y5sYwXxYZtU4+qUnp5HfdPKyOWUH1df7mR05/tGh36SBkBAN9F+IclNLz1upGc+/+tvuVtKCOWSR0UdldV9cjLz1x3WRm13Mk79pw6O5P/tQ7968uI5XNZVDOPmthyzHjpW2p4bPKlOeVnl5ZllFO8YNfo0F+XFgAohH9YIge2AE/PXlSXIwcnLLeIuGJFteKBl5x59FQZtcyp5900ON2Y/nwd/O9bRiy/8f2p70Gt3uNjw9jUsyKll5eWdhBp0/jmwfNLBwDUGmUJLLL9+2dfVC8E/zbSDOYzjem/KW1L1Zf7UsG/7YysjAO3w5YZOf/G4SrixaWlXeT0ylPO23Nc6QCAmvAPS6C51b/5nu/S0l7+aOTcm9eWuiXWj12zrl48+WBHO6lvhxtPGLtxTWkXLKqZP805rygt7ePwmb58VqkBgJrwD0tg//TsrwoIbSrnvujf/8jStUSOFb/avNzS0kaat8OVabaF13f+zVLQdvJvlAIAqAn/sAQi0smlpA3VgfDUUrZEqy+PFotoydtvTnzj5YfllO5dWtpNi65nAOgWwj8shZxWl4o2FCkdUcqWqC+vuds/bSpyHijlgvTtP9r13Maae3k0T61aWgDoecI/QIvlSP2lpIutqLLHUACgY3jiAgAAAF1O+AcAAIAuJ/wDAABAlxP+AQAAoMsJ/wAAANDlhH8AAADocsI/AAAAdDnhHwAAALqc8A8AAABdTvgHAACALif8AwAAQJcT/gEAAKDLCf8AAADQ5YR/AAAA6HLCPwAAAHQ54R8AAGi5E191w+qRsanHlBZYZsI/AADQcv0rZ7fViwuGt03+1/B51//EwSmwXIR/AACgpYa3TT025/z7zbpe/kxuND4/sm3ytSe99tpjDnwBsOSEfwAAoGU2bJ88PqUYK+1BOef646mN/St2jWyb+vPTLoiVZQ2wRIR/AACgNSJyFfkNddYfKJPvkXO6Z8rpZfv2TO0c3rrn0WUMLAHhHwAAaInhsaktOaVfLu1dyjkP50bj3cPbpj68fmzqh8sYWETCPwAAsGAn79hzah3qX1baQ5Jz+sVGxJeGxya3nXreTYNlDCwC4R8AAFiQB+yIFdVM4y11efjByRzk3JdTHp1pTO/aMDb5xw8/O/rLGqCFhH8AAGBBbpzZ+4KU0wNLOz85r4mUz73qmL1fGdk2+QPfOgDMjfAPAADM28jY5ENyiueVdsFySvdLOX+wvty3nbj1unuVMbBAwj8AADAvP/K31xxZx/W3NHfdL6MWyo9dkfsuGdm2dzSdHXILLJAbEQAAMC+3HrHiFfVi5GC3CHI+OuXYNnzM1EdPfs0NJ5UpMA/CPwAAMGfrt0/9Ws55Y2kXVU754bP91VeHx6aeniJyGQNzIPwDAABzcvKOm4cakV5f2iVRJ/4j648dI2NT7x859+a1ZQwcIuEfAACYk9nZ6e31YnkOxpfzr0X/9JfXb93zC2UCHALhHwAAOGQjWyd/L6f0e6VdFjmnYxs5f3hkbOpvHn529JcxcDeEfwAA4JCc+KobVqdGPq+0yyvn5nv/n3v1uqmPnXr+9cceHAJ3RfgHAAAOSf/K2ZfWi/Y6937OD52p+r6wfuveh5UJcCeEfwAA4Aca3jb10zmlp5e23dwrN6r/HN42eWbpge8j/AMAAHfvguhLKcbKrvZtKafcX//zXjM8NvmWe7/iG4eXMVAI/wAAwN3aMLX3qXWw/tHStrWc8hNWHXbEJ085b89xZQTUhH8AAOAuNQ/yV1Xx16XtCDnnH59pND6//vw9Dywj6HnCPwAAcJf6V1UvrMP0UGk7xoHTAVaN/9qwbfJ3ygh6mvAPAADcqTo43y9HbCltJzo8cnrHyNjkn5QeepbwDwAA3Kk6OL8y5dxX2g6V68yTXzU8NvXqFPV/EfQo4R8AAPg/1m/d8wt1aP7V0na8OvWfNTI29U+nXRArywh6ivAPAAB8r4jcaDReVrrukfPj9u+Zeu+xO64+okygZwj/AADA91i/fe9j68UDDnZdJudfOWLmsP9cv2Pv0WUCPUH4BwAAvuPhZ0d/js46td9c5ZwelGeqC0fOvXltGUHXE/4BAIDv+NbaqSfknIdL27Xq/8YfTf37P7ph++TxZQRdTfgHAAAOaB4MLxrpRaXtfjn/cFWlC0fOnbx3mUDXEv4BAIAD9u/Z+5Q6Ed+ntD2huZdD9KePeQGAbif8AwAAB7b6pxzPK21P8QIAvUD4BwAA0r7r9/5hr231/24HXwDIH3QQQLqV8A8AAD2ueYT/lOPZpe1ZOafT0orpDzgNIN1I+AcAgB531bqp3++FI/wfop9ozFT/euyOq48oPXQF4R8AAHpZRM4pPat0NOX80CNmD3vXgeMgQJcQ/gEAoIetP3/vI+uw+8Olpcgp/fL+yb2vbb44UkbQ0YR/AADoYY3KVv+78cTh7VMvKTV0NOEfAAB61Enb9vxkyunnSsudyCk/e3j75JbSQscS/gEAoEf15fzMUnI3cqRzN2ybelRpoSMJ/wAA0IM2bJ88PlL63dJyt3KjyultJ23b+yNlAB1H+AcAgB5UVfmMnHJ/afkBckr36EvV+07cet29ygg6ivAPAAA9ZuTcalXKsbG0HKqcT+hv9L/7wO8POozwDwAAPaZasfdxOeW1pWUOckoPjv4bxkoLHUP4BwCAHpMjj5aSecg5PWV4bOrppYWOIPwDAEAPOem8qfvX4fVBpWW+IrYOnz/1U6WDtif8AwBAD+lrJFusWyDnvCLNpneuH7tmXRlBWxP+AQCgRxy74+ojUoo/KC0LlHM6NsfKt6azQ66i7fkjBQCAHnGP6VWn14n16NLSAjmnXxo55oY/Ly20LeEfAAB6RNVITy4lrRTVX6/fuvdhpYO2JPwDAEAPOPk1N5yUU/7Z0tJKOfflHG87YezGNWUCbUf4BwCAHlD1zz6hlCyCnNPxK9PM9tJC2xH+AQCgF0R2oL9Flx+7YevU/ysNtBXhHwAAutyGrZMPTjltKC2LKHJsH942dZ/SQtsQ/gEAoMtVjfTEUrLYcj465/TmFJHLBNqC8A8AAN3s7GjkyL9bOpbGI4a37X1qqaEtCP8AANDFNhxzw0NTTseUlqXSSH+3Yfvk8aWDZSf8AwBAF4uI00vJEsopHVVFcvR/2obwDwAA3ersaERKdvlfJjnl31g/NvW40sKyEv4BAKBLNXf5zzkdW1qWQSPSuet37D26tLBshH8AAOhSVQpb/ZdbTusas/FXpYNlI/zDkoh9paAN5YiZUrZE5HRjKWlLcUcpFiQafbeUkjZ15PGrbysl9K6IXy8VyylidMP2vT9aOlgWwj8sgfqGdnUpaUOR8zWlbI1IV5WKdhStuT1etvGoyfqyWvJCAosg0vU7T8/7Swc96ZSxPafknIdLy3LKuS+qaptz/7OchH9YAjOz+T9LSTuanW3t9ZMr13cbi9zK22O4rttWfKwU0LNmovGoUtIOcn7o8PbJJ5QOlpzwD0vg8jMHv5oifb60tJGI+OLEmeu+UNqWmNg09IX6cr9cWtpIRPrs7tHBr5V24XJ6faloP64bel7OyS7/7SYaL7n3K75xeOlgSQn/sESqRvqT+h6/Ki1tIaqcGs8oTevkHKkRru92EzFbf27p9T2+afBfUiRbmNtMpPjX8c1DHyot9KSRcyePqm8LP1Na2kTO6fhVhx3xp6WFJSX8wxLZvWnwk/Vd/pbS0gZyHQTHNw9cWNqWmti09mN1AvHg3kZyI2+e2Dz4qdK2Rs5R5f2Pra/rXWXCcov42sy+PrvVwor0Sznl/tLRVvKz149ds640sGSEf1hC46OD23PE79ZB4boyYhlEij314vRdo0OvOThZHOObh86tF6dHxOTBCcuivr1VOX5n16bBHWXSUrtHj71+5cq+h9Q/571lxHKJuCDNpIde+Yw1zrhBz4tIv1RK2kzO6Z6NWPmXpYUl42iTsAxO23rdPfY1Gn+YI/9GfTNcXz9Ee/V30eXr69/z7kjpX/tXxZsuferab5cVi+6U1+2558y+/KT6DvdR9SP+cP2MbG1ZxaI5eH2n1Hjvypj+h51bjlmS0/Kt3z710FzF4+vyp3PKx9b/hlUH17A48h2R4ls550/Uv/d/3LVl6KKyAnre8LapS+qQeUppaTcRs/X/T53Ycsx4mcCiE/4BAKCLbNg+eXxEdtrZdhfpzeObB59UOlh0dvsHAIAuElXjEaWkrcUTTt6x59TSwKIT/gEAoItEjp8rJe0s575qNr+wdLDohH8AAOgiOcUvlpJ2F+n0ke2Tp5UOFpXwDwAAXeKU8/YcV8f/E0tLu8s5pyq9oHSwqIR/AADoEtP9+cGlpHM85pTtN9y31LBohH8AAOgSOZLw32ly7pupqmeUDhaN8A8AAF0ihy3/HSmnPzph7MY1pYNFIfwDAEA3uCD6IqcHlo4OklM6ckWa2VRaWBTCPwAAdIH1k3vvV4fIe5SWDpNTPnPk3GpVaaHlhH8AAOgCdfB/SCnpTPdKK2/8vVJDywn/AADQBXLET5aSThXVGaWClhP+AQCgG+T0w6WiY+WHrR+bcj2yKIR/AADoBpF+qFR0sEakjaWElsplCQAAdKgN2yePj8hXlZYOFpG+feRt+4/9yrOOvbWMoCVs+QcAgA4XKZ1WSjpczumetx254rGlhZYR/gEAoNPZ5b+7RP6DUkHLCP8AANDphP8uEw8fOXfy3qWBlhD+AQCg02W7/XeVnHPqz48vHbSEA/61mVO233Df2ZjdXJePTJGH62vosINrWCzNg6rUd6+X1dV7Gn0rt1+28ajJsmrRnHr+9cdOz/aNphy/Xt8MN9Q3xCPLKhbP7RFxWf1Y+m99s9XWS89c+60yX3SnnLfnuNm+xpb6b+xRzeu7Hh1+cA2LJVK6tb5x17fr/P4VfbPbLzlj3TVl1eKJyCPbp36n/plPqP8BP1UP1h148sYiiqr+tV9XP1Z+MqXqLROja99bViy69WPXrMuxcrT+N/xmfT2f7H58Sdxe/7531bfvf6+fI22b2Dz4zTKnNjw2OZlTHiwt3SDia+Obh+5fOlgwT0raxYEnjTc8O6I6p36uuLJMWWoRN6VGY/P4poF/LJOWG9k2dUbk9HeeKC6r2yPHn09sGtpa+kUzvG3yzPrJ2Mu9kLd8mi8ENHJ65q5NgzvKqOXuu3XviX2NeHt9u35wGbEMIsV/zVSzj71yyzHXltGiGBmbfEqkfG59fd+jjFhqke6ob9svmNg8+Hdl0tOO3XH1EUfOHubI8F2ozgU/tmvTwJdLCwtit/82MTK297z6kewlgv8yy/noFPHWkW2TZ5VJS9VPGM+uQ+B2wX/ZHZ4jnzcyNvXXpV8UI9umXlzfpl8j+C+v5u0tIp1f367/soxaqrnHVn+OiwT/5ZdT/tkVjb7PNveuKqOW2zA29az6J71e8F9m9f1qzulv68fVV5RJT7vHzKoTS0mXiSpOLyUsmPDfBobH9vxB/SDW3NWfdpHTK9dvn3po6Vpi/djUI+sLfmFpaQ/Pr29/v1nqlhreuufR9d/R80pLO8j5nIO3wxY6OxozMfuu+ro+pkxYdvk+M7ONdzT3qCuDlhnetucREfGy0tIW8p8Ob5/q+XBURRb+u1Sk9FulhAUT/pfZyLnVqvpqeGlpaRu50ajib0uzcPWT0BzJroltKKfG3zYDXGlbo768nOvLpe00Un27bmEoXH/M1B/klH+stLSLnB+6/vyplj9hrm/Xf9fcB7e0tIkc8fIH7IgVpe1J9V/lfUtJl6mv29PWb7++ebwgWDDhf5lVK2/4hfpZxHGlpZ3k/FOturM9aWzygc0779LSXk4eXrf3IaVuifX32vtTKScP1G0p/9D6HZMPKM2CNVL+w1LSZhpVflIpW2L92NQP14ufONjRXvKJN0xP/mxpelNOJ5SKLtQXfbb+0xLC/zLLVfxMKWlDjWi05PpppNZcDosjp9TS66dRpYeVkjbUmMktu74jwnXdtlr7+NoIt+t2lnNvP85GClv+u1h9/Qr/tITwv9xy9j7RNhYp3auUC5JzLNrBp1i4aPX7tXM6vlS0ofr6bsnt8cCp3nLu6V2N21rOa0584+WtO9hmTvcuFW0opx5/nA1/n10t0k81H3NKB/Mm/C+zHK6DthatOftCJAGhzbX2dhjpqFLRjlp0VpUV+bAjSkm7unF1y8J/OLp/m8urStGj8tpS0I1yLVb8aulg3gRPAADoYDmlgVLSper4/wulhHkT/gEAoINFDuG/y0VKv1hKmDfhHwAAOtTIuZNH5ZT7S0uXap4dbMO2yfuVFuZF+AcAgA6VV/QPlZIuVzWSXf9ZEOEfAAA61ExMD5aSLpcj2/WfBRH+AQCgQzVyw/v9e0XEz9YfuXQwZ8I/AAB0qqgOLxXdLuc1J23ds6F0MGfCPwAAdKzGqlLQAxp9+cGlhDkT/gEAoEM1Imz57yWRf6pUMGfCPwAAQAfIOT+olDBnwj8AAHSoyOnoUtIDIsWP3vsV37C3B/Mi/AMAQKfK9f/oGfXV3b/qsCN/vLQwJ8I/AAB0qsgO+NdrIv1QqWBOhH8AAOhQOceKUtIjciPdv5QwJ3YTWmYj26beVF8Lf1ha2kxEOmdi8+ALSztvw2NTr65vbGeVljYTKZ07MTr4J6VdMLfr9taq6/uU7Tfcdzaqy0tLG5re11hz5TPW3FjaBXE/3uYivXl88+CTStdTRsYm6/uz/KrS0hv+c3x08OdLvajW79h79Ioqr6lm0+r6hnZUNNJRuYp7VindIzfiyOaeJ/Xj6uEpN8868T17oRyV43s3NEdO33V/HHfUgzvq+9Xb6u/dHynfUj93ujnN1h/96aY0k25e0T+798i8dvLijXm6fBMLJPwvMyGhvQn/vUH47y3Cf+8Q/nuI8C/895JI19V/7/cq3ZydvOPmoWp29j5Vro6tA/px9QWuqy/z3inntTnFveogPljPB+v5YD3rK9+2bOrH7Zvr+9/r6+flk3V7dV1fW/+7roqovpUa8Y3+1H/Fva5dfdWF5+SZg9/BXbHbPwAAdKg6qN1WSnpFTsec9tobB0r3f5x63k2DG7ZPPmhkbOr3N4xN/sXwtqnX1x8frj8uGdk2dXs1O70npeoLjUj/Wgfp1+aUX5xz3lTXv1df+MPq5f3qn7GuHYJ/U/3vOapejOScHlJ//G492Fz/5b+k/je/OUfjP5svxF+9buqOkbHJK0a2TX6g+WJt/fH0DVv3/mzzhY6Dl0KT8A8AAB2qUcX+UtJD7pieffCG7Xt/dHj71Ol14P3L4W2T/1h/fKEOvTfN9M1MRuSL6i/7x0j5r+rA/JT64xfrj1Pq4HzYwUvoMgdeqMgn1stfySmdVX/siEZc2HyhY3hscrL+3fxX/XvaMbx16mkjYzf8+MPPjv7ynT1F+AcAgA4122juFU2vqUPcv0XEl3Kkt9eB95yc8+/XHz9etpLzXXLzbQw5/0z9e3p6bqS/b+71cPW6vd8e3jb16ZGxqdeMbN/7+FPG9pxSvryrCf8AANChcsRNpQQOVU6HNd9GUFdnpoi3zqZG8y0R146MTb6t+ZaB4a3XjRz8wu4i/AMAQIfKuc9BzqAVcjqm/vTY5lsGcqN/1/C2qauGxybfMrxt8onN4yiUr+powj8AAHSoiNhbSqCFck7H55Sf0Dyw4Ezf9PXN4wZsGJt6Vie/RUD4BwCADtWfq6lSAosmN5rHDYiUXl7eInDZ8NjkS086b+r+5Qs6gvAPAAAdKvpWCf+w1HLakFN+dl9f+srItsmvjoztfc59t+49saxtW8I/AAB0qMu+dU+7/cNyyvmHU4qX9DfiiuZbA4bH9vzBiW+8vC1PqSj8AwBApzonV973D+2h+daAnBr/sOK2e35reGzq1Sfv2HNqWdUWhH8AAOhgOWW7/kM7yXlNTumsarbx9ZFtU/+xfvvUr6WIerS8hH8AAOhgdaSw5R/aVU4/34j0ryPbp746sm3yyaddECvLmiUn/AMAQAfLKa4oJdC28g+lnN+wf3JqfGTb1BnL8SKA8A8AAB0sUhL+oWPk+6Sctv/PiwAP2BEryopFJ/wDAEAHy5GFf+g4B18EuGlm73+v3z7522W4qIR/AADoYBG2/EPHymlDI/K/jIxNfnzD9r0/WqaLQvgHAIAO1t+oLi8l0LHyw6KqLm6eInDk3MmjyrClhH8AAOhgs9ODtvxDN8i5r3mKwLQifW14bOpXyrRlhH8AAOhg42c19kWkq0sLdLx8n5zSB4a3TZ5/71d84/AyXDDhHwAAOt/OsgS6RM5542GHHfHZDdsm71dGCyL8AwBAh8spvlJKoJvk/MNVzp8dHtvzm2Uyb8I/AAB0uCqnr5YS6DI5pXvk1HjP8LapF6aIup0f4R8AADpcI/XZ8g9dLud09vD2qffM92wAwj8AAHS66aN3pojZ0gFdKqf8G9GfP3vyjj2nltEhE/4BAKDDHTjif86XlRboYjmnU6qZ/JmRsb2/XkaHRPgHAIAukCO+XEqg2+V8dIrqvSNjky841OMACP8AANANcrqoVEAvyLkO/flFI9v3/sspr9tzzzK9S8I/AAB0h8+UJdBbfmtmf+OiE8ZuXFP6OyX8AwBAN5ge+GJE7C8d0ENyxL3W9h19S2nvlPAPAABdoHnQv5zS50oL9JKc/vnijXm6dHdK+AcAgG6R88dKBfSQqoq3l/IuCf8AANAlIqWPlxLoEZFiz+51Qz/whT/hHwAAusSqauaTEXG3u/4C3SVHfns6Pc+W9i4J/wAA0CV2bjnmlpTTp0oL9ICc8wWlvFvCPwAAdJcPlSXQ5SLS1buuW/PJ0t4t4R8AALpKfLAUQJfLOd6ezslVae+W8A8AAF1kYtPQF+rFtQc7oMu9oyx/IOEfAAC6Sc6RIt5fOqBLRcTu8U2DF5X2BxL+AQCgy0SO95US6FY5vePAi32HSPgHAIAus+/22z9cJ4JbSwt0oUbV97ZSHhLhHwAAusxVzzzh9pzs+g/dK/5715Y1XyrNIRH+AQCgOx3ygcCAzhIpv7GUh0z4BwCALnTH7bf9m13/oftEin2rVvQJ/wAAQNn1P9K/lBboEjny23Y+bfXe0h4y4R8AALpWvLUUQJeo+qqtpZwT4R8AALrU+NrB/6gX1x7sgI4X6WO7z1j7+dLNifAPAADd6vQ8GyneXDqg48VLSjFnwj8AAHSxyNXrSwl0ti+Mbx76UKnnTPgHAIAutnvTul2R4sLSAp3rpWU5L8I/AAB0uUaVd5QS6ECR0tfHrxt4Z2nnRfgHAIAut2JdHRoiXVdaoMM0Iv4inZOr0s6L8A8AAF1u5+l5f+Rk6z90oEjxpV2jg+8q7bwJ/wAA0AMaOf4+IqZLC3SIOrQ/K+UcpZ034R8AAHrArk1DV+ec/7/SAp0g4t93jQ59pHQLIvwDAECPmI38ilIC7S5idrbKzy7dggn/AADQIy7fPPCVSGne5wkHlk7zOB2Xnzn41dIumPAPAAC9JFcvKRXQpiLF1KoV/S8obUsI/wAA0EMmNq39WB0tPlFaoA01cn7+zqet3lvalhD+AQCgx0SVX1xKoM1EpM/sunbgtaVtGeEfAAB6zMSWwQ9ESheVFmgTkWKmqtLT0zm5KqOWEf4BAKAX5eo5pQLaRE75b1t5kL/vJvwDtFxMl4IuNlNVs6WkTfUdEVHKBctu13Sh5nv/I8WFpQWWWf2oden04Te/qLQtJ/wvt5xuLhXtqBGTpVqQRmrN5bBIosW3w5yvKxVtKa4vxYLkmTUtuRwWR0Ts371x4KbSLliE23U7qwOs2+M8NXL681ICyyqqnONJVz75pDvKoOWE/+UWaWepaEONSJeUckGias3lsDgit/Z2mKv036WkDeWULi3lgoyf1dhXB8yJ0tJ+vl6WLRENj9ftLGePs/O1a9PQZ1PEBaUFlk1+2fjo0GdKsyiE/+U2E++v73DtOtqOIm44qm+wJbvC9R0WH0yRFu1VPOYvUuyb3df4QGlbYl+j7wPNyy0t7eX2ldXsB0u9YDmld5eSNlOHwXeVsiVmD7v5oxHp26WljRw4OFaafn9pmY++/udFeGsLLJuIr6XpNeeUbtEI/8ts/KyhqyLnN5WWNpJzfsnFG3NLHggvfera5hPGVx7saCc50tYrn7HmxtK2xDdGV99Qh8JtpaWdRHrVzi3H3FK6Bevvq15RL24/2NE2Im7qn12xtXQt0dwNM+f429LSRnLkHbtHj7Xb/wKMn7F6Iud0XmmBJdTcYFTl/P+aexSW0aIR/tvAqhV9zfdajR/saAcR8fEVQwPnlrYlbu2/48X15X6xtLSF+MrKmH1haVpqZTV7dn35i3KkVubtC83bYalb4pIz1l1T32FsLi3tIuenXXLm0VOla53pgZc7NVp7iUiXVP35+aVlAaq+xovqFOJFFFhiORp/unt08GulXVTCfxvY+bTVe3Pq+5X6Acz7CdtApLhw1cr+39p5et5fRi1xzcbjb5uJ2V+ry88dnLDMLs45/VortwJ/t+bl1pf/yLr8wsEJy6m+f/3sdDXzqObtsIxaZnzz0BtzirPqn9Ly8/EyNwd2W4546vjo4DvKqKWaW2Xy9IrfqH/GJ8uIZRVfmY38q608sGMva/4eIycvpMBSivTe8c0DY6VbdMJ/m9g1unr3kbftf1D9BPWv6icVN5QxS6j+3V9dP3H849V9g7/UfEGmjFvqyi3HXDt9+M0/m1P680ixp4xZQgd/7/m59fXwsF2bhq4u40XRvPz65zy0/pnPr/+2nPFhOUS6vnl7mzni5oc3b39l2nK7RodeMxvxkPrnfbSZQMuYJRNV/Xv/90aj8ZPjm4deX4aLYvyso/Yc3T/4iFTFn9btov1Ncdfqm1j9GB1/ecSt0z99xZaBK8uYFpi4buANzRdLSwssqvhmf9X/lNIsifo5Ee3mATtixc2zNzykiuqknNNAGbNo8vWzUe26fHTo8ynnpXvSfkH0De/d+6A8m4dTrobKlMUSjck6hO+eWDtwUTo9L/1BNpvX9569D84pr3d9L4Hm9d0XExPX1Nf3OXlJt8ifev71x07P5gfn3Di2/oesKmMWRd4Xqbo60sxnluU932dHY8O9ph4YkUfq63pdmbJI6lC6t5Ebl+8aWvOpZbkf7xEjYzf8eIrZz9XPifrKCGixiNjfaKSfOXC2jSUk/AMAAN8xPDb16joknFVaoNUibRrfPHh+6ZaM3f4BAIADTt6x59QUMVxaoPX+YTmCf5Mt/wAA0OOGt143knL/c3OKP7TLPyyaz91x+60Pv+qZJyzLaYKFfwAA6FEbtk3eL1J+dkrxBKEfFk/z4OIr+mZ/8sBpgpeJ8A8AAL0kIg9v3/vLOcWf1HHgV8sUWCyRbotq9mcmzly3rKeAFv4BAKAHHLvj6iOOmD3sCXUQOSvndFoZA4usyvE7uzcNvau0y0b4BwCALjYyNvmQevGUiPy4OvTf8+AUWBrxjPHRoVeXZlkJ/wAA0GVO3HrdvVY2+v+givSUOvCfWsbAEoqIv53YPPTnpV12wj8AAHSBU87bc9xMI/9u/Qz/9+on+Q+rn+o7rTcsn38Y3zTwpJRzlH7ZCf8AANCh1u/Ye0KeqR6dczo9RXpoHTQ8v4flFvHBlWsHf3Pn6Xl/mbQFdw4AANApLoi+Ddff8NCqUf1a/UT+1+qn8/cva4D28J+39t3x69dsPP620rcN4R8AANrY8NbrRhp9/b8QkX4hpfil+in86rIKaCvxiVv79v1KOwb/JuEfAADayIaxG9enauZno5Ef0Qz8OafjyyqgTdW31c9Gf/7l3RsHbiqjtiP8AwDAMhk5t1oVq274iTSbHlo/Mf/pevTT9TP0Yw6uBTpBJwT/JuEfAACWwAN2xIob9++5f8p9D0g5HpBTfkCk+JGc88ryJUDHiU9UfY1fb/fg3yT8AwBAi42cO3nvakW+fyPS/SPH/VO9rMen1UF/xcGvADpdRPrIbf13PLpd3+P//YR/AACYhzrgHzXb37hvf6pGqpxOzSmfUoeBU+tn2HWdjipfBnSjSO9duXbgMe12Or+7I/wDAMCdOPW8mwZn+qePSdFYH7m6b67SfSPl++acTkoRJ6Wc15QvBXpIpPSmiaGBp6bT82wZdYT2Df9n1/eyx91w777pPBA5js4p7lGlym5SAAAsSI7cXz8JvkfkdHT9JP4e9aj+yOvq55vH1su19fy4OtyvtYs+8P0i0jkTowPnpJzru4/O0jbh/+Qde06tZho/V/86H1H/q+5X/yZPzimvKqsBAABgWUTEdB2eN45vHnpjGXWcZQ3/I9snT4sq/UH9j/j9lPMJZQwAAABtIVK6OUc8pg7+HyqjjrT04T8ij4zd8OspV8+pf3zzXKYAAADQfiLtSo34rfFNQzvLpGMtafjfsG3qUVWKF+ecf7SMAAAAoP1E/Nv0/r7HX/mMNTeWSUdbkvB/3617T+zP8ar6p/12GQEAAEC7esn40MALOu2I/ndn0cP/yLa9T4gc59c/6MgyAgAAgLYTKd2Sq3jy+Jahfy6jrrFo4f/YHVcfccTsYa+pf8AflREAAAC0qy9ENfPYiS3HjJe+qyxK+B859+a10T/9/pzTg8oIAAAA2lKk9KpVQwPP2Xl63l9GXafl4X/k3Ml7R3/6WM55uIwAAACg7USKqUbkP9y1efBfy6hr9ZVlS2zYPnl85HSh4A8AAEA7i0gf7q/iVy7bMvSFMupqLdvyP3Lu5FHRn/7LafwAAABoWxE31Z+fOT46+IaUcxwcdr9GWS5MRE4r8psFfwAAANpWxL/lRvqh8c1Dr++l4N/Uki3/I2OTf1Jf1KtKCwAAAO0j4qY66v/Jri1DbyqTnrPg8D88tucBKfKnc84ryggAAADaQ8Tb+vuqP73kjHXXlElPWlj4PzsaI8fs/WxdPeDgAAAAANrCeMoxOr5p6MOl72kLes//8DGTm+qF4A8AAEBbiJRuqT89Z+XQwA8J/v9r3lv+T9t63T32NfquyCkPlhEAAAAsj6jl/KaZauZ5V2455toypZj3lv/9jRVbBH8AAACWXcQHZ1PjxyZGB58i+N+5eW35v/crvnH4qsOPuLIO/2vLCAAAAJZUpHRRVNXzd29Z+x9lxF2Y15b/ww4/8rcFfwAAAJZDpPhSpOrRE6ODDxH8D828wn9EelIpAQAAYGlE+nxE9dsTmwZ/YmJ07XvLlEMw593+Tzlvz3GzjXxVynlhpwkEAACAQxHpYxHpZRNbBj9QJszRnLf8Vzn/suAPAADAooqYrT+/YzaqB41vHnyE4L8w8wj/6RdLCQAAAC0VEXsjxctmojE8Pjp4+uWb136urGIB5rwFf3jb1FU5p+NLCwAAAK1Qh/w4/47bb/v/rnrmCbeXGS0yp/B/2mtvHNg/PTtVWgAAAJi/iJvqWPqWHI3X79qy5ktlyiKYU/hfv33qoY1InygtAAAAzEmkmKkXH0w5/8PMYTe/98onn3THwTUspjmF/5GxyafU3/L60gIAAMAPFhF1+vxk/fmCyNNv3z167PVlDUtkbuF/29Sz6+94aWkBAADgLkQVKX0iRfrn/ireeemZa79VVrAM5hr+X1x/x/NKCwAAAN8Rkb5dh8yPVDnes3J2xfsvOfNox4xrE3MN/+fV37GltAAAAPSyaO7Pn5oH6vtgTo0PHN2/5lMXb8zTB1fSTuYY/idfm3J+amkBAADoOfHfKfLHIlUfWbVyxX/tfNrqvWUFbWxO4X94bOrV9TecVVoAAAC6WKR0S50BL4pIn4qcPj2T+j7zjdHVN5TVdBDhHwAAgOYe/JM556/W1cVVyhf391VfuuxbQ5elc3JVvoQOJvwDAAD0igNv0U/frKPgeOS4rJHS12dTfK0xveqr42cdtefgF9GNhH8AAIAuUY62f20d7K+p22/klL+ZIn2jaqRv9Deq3dUdg5ePn9XYd/Cr6SXCPwAAwCKJlD5UZ6jbD9axurmsA/k9IqK/Wd+Fm+svqnKd4OvlTXW/v/7m2+rlLfXo1rq+Med8Y67SjbONdGNfFXunU+PaOPKm66588kl3HLgE+D7CPwAAwCJoboU/8rb9x37lWcfeWkawbBplCQAAQEvFWwV/2oXwDwAAsAga0ff3pYRlJ/wDAAC03ud2bVnzpVLDsptj+A8HjwAAAPhBIraXCtrC3MJ/ZOEfAADg7kTcdGv/vreXDtqC3f4BAABaKr/lmo3HN0/NB21jTuH/f85PCQAAwJ2brZID/dF25rblP8e+UgEAAPD9Ij59+ZmDXy0dtI05hf9IMV1KAAAAvk8OW/1pT3MK/40q31pKAAAAvlvEDbfvu82B/mhLcwr/s40UpQQAAOC7RMpvvuqZJzhOGm1pbgf8i7iplAAAAHyXaMyOlRLaztwO+AcAAMD/EZE+vHvTul2lhbYzt/f853xLKQEAAPiOylZ/2tqcwn+VY6aUAAAAHBDfnFg79L7SQFua43v+8x2lBAAAoBaRdqTT82xpoS3NKfzPRuO2UgIAAPS8iJiuVs68rrTQtuYU/lc28s2lBAAA6Hk5pXde/rR7XVdaaFtzCv99/cI/AADA/8i54UB/dIQ5hf909NGO9g8AAHBAfHXX6MDHSwNtbU7hf+fpeX8kR/wHAABIkW31p2PMbct/Ladk6z8AANDTIqWbV8bMW0sLbW/O4b92U1kCAAD0pJzidTu3HGPDKB1jPuHfHzgAANC7IqIx07e1dNAR5hz+I2XhHwAA6GH5fZf98ZrLSwMdYe7v+Y90aykBAAB6ThXVa0oJHWPuu/3n9O1SAQAA9JSItHP35qGPlhY6xjx2+083lBIAAKCn5JTOSznXsQg6y9x3+0+xt5QAAAA9JG484rb9bykNdJS5b/mPJPwDAAA9p85Cr/3Ks451DDQ60ty3/Ocs/AMAAD0mqv5G31hpoOPMOfxX3vMPAAD0nPzeSzetuaI00HHmHP4b4T3/AABAb4lcnVtK6Ehz3/LfJ/wDAAC9IyK+OLFp7cdKCx1pzuG/r1oh/AMAAD0jNxqvKCV0rDmH/9m+aqqUAAAAXS0iXX10Y80FpYWONefwv3vjwE3NI12WFgAAoGvllF5z8cY8XVroWHMO/03O9Q8AAHS7SOnW6f2Nvy8tdLR5hf+U8mQpAAAAulJO6Q1XPmPNjaWFjjav8F/fCK4tJQAAQBeKKqe+V5cGOt78tvznuK5UAAAAXSciv2vX6OrdpYWON8/3/GfhHwAA6FrRSK8qJXSFeb7nP+z2DwAAdKWI9JndmwY/WVroCvN7z39OtvwDAABdqc47rywldI15hf8q5WtKCQAA0DUiYmJ8aOBfSgtdY35b/lN1fSkBAAC6Rk7579Lpeba00DXmFf77Z5Mt/wAAQHeJdN0dd9z65tJBV5lX+L/HyqE9pQQAAOgKkeLcq555wu2lha4yr/B/8cY8Xd8wvAAAAAB0hYj07Zn9fdtLC11nXuG/KYcj/gMAAN0izr/yGWtuLA10nXmH/9o3yhIAAKBjRcT0ir7qVaWFrjTv8B8pfbOUAAAAHSun9OZLzljnoOZ0tflv+c+2/AMAAB0uImar6m9LB11rAbv9hy3/AABAR4uc33X5mesuKy10rfmH/0hXlQoAAKAjNXK8rJTQ1eYd/nPfCrv9AwAAnew/d20a+mypoavNf8v/vqNs+QcAADpW5OpFpYSuN+/wP35WY19yrn8AAKADRcTHJzat/Vhpoest4IB/BzjoHwAA0Hki/02poCcI/wAAQE+JlC6a2DL4gdJCT1hQ+K9vNFeWEgAAoCPkyC8uJfSMBW75j92lAAAAaHuR4kvjo2veX1roGQvb8t/IE6UEAABoe5HTi1LOUVroGQsL/zOz46UEAABoa3Xi//ruawffU1roKQsK/4cfs/aK+iZUlRYAAKBt1eH/RemcLL/QkxYU/neenvfXt6CrSgsAANCeIu3afd3ABaWDnrPAA/7Vsvf9AwAA7S1H/I2t/vSyhYf/COEfAABoW1FnluP2DL61tNCTWrDlvyH8AwAAbSunxgsvPCfPlBZ60sLDf7LlHwAAaE/NI/yPX7/mn0oLPWvB4T9mZ4V/AACgLTnCPxy04PCfq4Zz/QMAAG0nUnzJEf7hoAWH//Gzhm6O5HR/AABAm4k4x1Z/OKgF7/lvHkAjXVpKAACAZRcRX5wYHXpPaaHntST813aWJQAAwPKL/LyUc5QOel5rwn/kS0oFAACwrOrEf9HElsEPlBaotST8R5r9eikBAACWVSPFX5QSKFoS/meiEv4BAIBlFyku3DU69JHSAkVLwv+VW465NkXcVFoAAIBlkaNxdimB79KqA/6lSNnWfwAAYPlE/Nv45oELSwd8l5aF/5ST8A8AACyPiJhNjeeWDvg+LQv/9QUJ/wAAwDLJb71888BXSgN8n5aF/9mUvlZKAACAJRMR+2civ6C0wJ1oWfhfMVt9uZQAAABLJ+dtV2wZuLJ0wJ1oWfi/9My134oUU6UFAABYfBE39fWt+JvSAXehZeG/KUe29R8AAFgykdLfXrbxqMnSAnehpeE/chL+AQCApXLtbf37XlVq4G60NvynEP4BAIAlkXN64TUbj7+ttMDdaGn476v6hH8AAGDxRdp13LUDry8d8AO0NPyvWLd6Z6SYKS0AAMDiiHjehedk2QMOUUvD/87T8/4c6ZLSAgAAtFykdNH45sF3lhY4BC0N/031DdGu/wAAwOJppGeknOvoARyqlof/Rna6PwAAYJFEvG3ijMFPlw44RC0P/7OpuriUAAAArRPpjploPKd0wBy0PPyvWJk+lyLsggMAALTaK6/YMnBlqYE5aHn4v/Spa78dKV9WWgAAgFa4dmXMvKTUwBy1PPw35ZQ+W0oAAIAWiOfv3HLMLaUB5mhxwn+Oz5cSAABgQSLFl8avG3xTaYF5WJTwH7b8AwAArZLjGemcXJUOmIdFCf933H7bl1PEbGkBAADm690Tm9Z+rNTAPC1K+L/qmSfcHjl9tbQAAABzFhHTUc08q7TAAixK+G/KkbzvHwAAmLec03kTW44ZLy2wAIsW/iOy9/0DAADzEin2VH2NF5UWWKBFC/9VzheVEgAAYE5ySs/ZvXHgptICC7Ro4f/y69d8LVK6ubQAAACHJCJ91qn9oLUWLfw3T8WRIz5dOgAAgB8sIhqNONOp/aC1Fi/8N+X0yVIBAAD8QJHyG3dtGnL8MGixRQ3/VQrhHwAAODQRN0Xe/9zSAS20qOH/HrfOXFTfgGdLCwAAcJcix/N3jx57fWmBFlrU8P+VZx17a0r5i6UFAAC4U5HiSxNDQ+eXFmixxX3Pfy1S+lQpAQAA/q/mQf6qdEY6PdtrGBbJoof/+id43z8AAHB3Xr9ry9BFpQYWwaKH//6Z6hOlBAAA+B6RYmrlyv5nlxZYJIse/i89c+236hv05aUFAAD4X1V+7s6nrd5bOmCRLP5u/wfkj5YCAACgiE9NbB54XWmARbQk4T9H/lgpAQAAmrv7z0SVn55yjjICFtGShP++ataWfwAA4Dtyyn87sWXwv0sLLLIlCf8H3vcf6dLSAgAAPSwidt9x+61/VVpgCSzRe/6bwq7/AABAyiltuuqZJ9xeWmAJLFn4z5E+UkoAAKBXRbxtfPPQh0oHLJGl2/I/u/LCUgEAAD0oIvZWefqs0gJLaMnC//hZR+2pb+1fKy0AANBjIqc/3T167PWlBZbQEr7nv3ljz/9RSgAAoIdEpA/vHh16c2mBJbak4T9V1X+WCgAA6B239802NpYaWAZLGv77D0sfjRQzpQUAAHpARPqLy/54zeWlBZbBkob/S5+69tv14pMHOwAAoOtF+vzE2oFzSwcsk6Xd7b+WI/97KQEAgC4WEfurnJ6cTs+zZQQsk2UI/40PlhIAAOhuL9o9OuiMX9AGljz879q8+ssR6ZrSAgAA3ekL975+8GWlBpbZkof/lHOknGz9BwCALtU8yHeuGn904TnZwb6hTSx9+G+K9IFSAQAA3Sbyi3dtWfOl0gFtYFnC/3Tu+1B9j1CVFgAA6BIR8eXV/QMvLi3QJpYl/H9jdPUNEfmzpQUAALpA8+j+jUbjDy/emKfLCGgTy7Pbfy2ncMo/AADoLi/atWngy6UG2sjyhf/oe28pAQCADhcpXTSxdvClpQXazLKF/wMHAIn4RmkBAIDOdXtfX/WkdHqeLT3QZpYt/B+Q83tKBQAAdKx43mUb115SGqANLWv4r1L17lICAACdKNJHxzcNnls6oE0ta/hf0zf08fre4sbSAgAAHaV+Lj8Tf5hyjjIA2tSyhv/mKUAi0r+VFgAA6CBVypvGzxq6qrRAG1ve9/w3NbzvHwAAOk1E/NPu0cG3lRZoc8se/vtXVP9e33HsLy0AAND24psz+/s2lwboAMse/i996tpv55w+WloAAKCdRS3HE698xhrH7oIOsvy7/TeFXf8BAKATRE4vn9i09mOlBTpEW4T/Ku//l/pupCotAADQnj63um/wBaUGOkhbhP/do8denyJ79RAAANpUpHRLavT9v+YZu8oI6CDtsdv/Qe8oSwAAoO1Uo+NnrJ4oDdBh2ib8r1zZd0GkmCktAADQJpqn9ZsYXfuW0gIdqG3C/86nrd6bI/1HaQEAgDZQB//deSZtKi3Qodppt/8mu/4DAECbqIP/dPTFY8fPGrq5jIAO1Vbhf+XK/nfZ9R8AANpDzunPd5+x9vOlBTpYW4V/u/4DAEDbePf4psFzSw10uHbb7T9VOf1/pQQAAJZFfHPlir4/SjlHGQAdru3Cf+prvDtS7CsdAACwhJpvw41Gfmxzr9wyArpA24X/3RsHbsopv7e0AADAUor83IkzBj9dOqBLtN+W/wPyP5QCAABYOu+eGB14RamBLtKW4f/ovjUfjBR7SgsAACyy5vn8p/c1nux9/tCd2jL8X7wxT6eU/6m0AADAYop0RyP6fvfKZ6y5sUyALtOmu/03VW8pBQAAsKhiy64ta75UGqAL5bJsS8Pbpv4753RaaQEAgBaLlN40MTr45NICXaqNt/wfeGXCgf8AAGCRRIov7bv91tHSAl2svcN/I97aPPJIaQEAgBapn2bv7c99v33VM0+4vYyALtbW4X/XpqGrI+X/KC0AANASUeWU/t+lm9ZcUQZAl2vr8N+Uc3pjKQEAgJZoPH9889CHSgP0gLYP/2l6zTtTxA2lAwAAFiAivXN805qXlRboEW0f/sfPauyLlJ32DwAAFihS+nr/qurJKWfH1YIe0/5b/mtVlV5XSgAAYF7ixsizj770qWu/XQZAD+mI8H/5mYNfjUifLS0AADAnUaWcTt+9ad2uMgB6TEeE/6ac4u9LCQAAzEWV/mx809CHSwf0oI4J/0fcNv22SOnm0gIAAIci0pvHtwy9qnRAj+qY8P+VZx17a470D6UFAAB+gEjpojSzZmNpgR7WMeH/gEZsLxUAAHA36uB/1YrG7G83z55VRkAP66jwP75paGek+K/SAgAAdybSbTk1fvOSM9ZdUyZAj+usLf+1SNnWfwAAuCvRVP3++OiaL5YJQOeF/8OGBv6lXlx7sAMAAL5Xfs7ElrXvKQ3AAR0X/neenvenFOeXFgAAKCLSG8Y3D768tADf0XHhv2l2xcz5ETFdWgAA6HmR4sJVawc2lRbge3Rk+L/8afe6LuX09tICAEBPi0iXrlrR/zsH95IF+L86Mvw3NXI6r5QAANCzIsWevtnGI3c+bfXeMgL4Pzo2/O/aNPTZFPHp0gIAQC+6vZHTr1/2x2suLz3AnerY8H9ApFeWCgAAekxUVY7HH9goBvADdHT4H183+K5I4VVOAAB6Tk7pGbs3Db2rtAB3q7O3/J+eZ+v/gFeXDgAAekKkdO6u0aHXlBbgB+rs8F9bUc2+ob77u7G0AADQ3SIumNg08IzSARySjg//O7ccc0tEOr+0AADQternvR9ZuXbwD1LOUUYAh6Tjw3/Tir7qNSnSHaUFAICuExFfzDPxu87lD8xHV4T/S85Yd02keHNpAQCgq9TBf6JaOfPI8bOGbi4jgDnpivB/QMz+XX2vOFs6AADoCpFiT/1c91cvf9q9risjgDnrmvA/seWY8ZTTP5cWAAA6XqR0S/35kQee6wIsQPds+T+g72WlAACAjhYR+yNVj54YXXtxGQHMW1eF//HRNV+MFO8rLQAAdKioUo7H7B5d+9EyAFiQLtvyn1JO6W9KCQAAnSk3njgxuva9pQNYsK4L/+OjQ59JER8sLQAAdJbIm8c3Dfxj6QBaouvCf1P05XNKCQAAHSMinje+eWCstAAt05Xhf+KMwU9HigtLCwAAba9+/vryic1DLyktQEt1ZfhviqrxF6UEAIC2Vgf/8yc2DT6ntAAt17Xhf/eWgU947z8AAO0uUnpjHfxHU851CbA4ujb8H5DTC0sFAABtJyL+aWJo4GmCP7DYujr8Hzjyf0rvOdgBAED7OBD81w4+MZ2eZ8sIYNF095b/AxqO/A8AQHuJ9C7BH1hKXR/+x0fXfDFFvK20AACwrCLF+1auHXic4A8spR7Y8t/cpWr2BfWd7ExpAQBgWTSD/6qhwd/beXreX0YAS6Inwv/ElmPG68XfH+wAAGDpCf7AcuqJ8N+0olH9daR0a2kBAGDJCP7AcuuZ8H/JGeuuySm9urQAALAkBH+gHfRM+G/qW1m9rL73vb60AACwqJqn8xP8gXbQU+H/0qeu/Xbk9ILSAgDAovmf8/gL/kA76Knw33Tv6wbeUN8V/3dpAQCg5f4n+DudH9Auei78X3hOnokq/1lpAQCgxeK1gj/QbnJZ9pzhsakP1v/xv1xaAABogXjl+KbBP0s5RxkAtIWe2/L/PxoRfxIpZkoLAAALFC8cHx16puAPtKOeDf+7Ng99PUXeWloAAJi/Kv60Dv7nlA6g7fRs+G+K/vzCSLGntAAAMEdRpYinjm8ZelUZALSlng7/uzcO3JRSfl5pAQDgkEXEdET+/fHNQ68vI4C21dPhv2niuoE3RKTPlhYAAA7F7dHIvzWxefDtpQdoaz0f/tM5uUq5Gj2wyxYAAPwAkWKq/vzzuzcN/lsZAbQ94b82Mbr24kjp/NICAMBdiG82Iv3M+OjQZ8oAoCMI/0X0NZ6XIl1fWgAA+D7x32k6/fSBs0YBdBjhvygH/3tmaQEA4H9FfHJ/6v+Z8bOGrioTgI6Sy5JieNvUh3NOv1haAAB6XKR43219+x53zcbjbysjgI5jy//3aeS+jfXi9oMdAAC9LV47MTT424I/0OmE/++za3T17pzS2aUFAKBn5eeOjw49PZ2eZ8sAoGMJ/3fiuOsGXhUpvlRaAAB6SETsz1X6/fHRgZeWEUDH857/u7D+/D0PbMzmz6Sc+8oIAIBuF3FDzo1H7xod+HiZAHQFW/7vwu4z1n4+pfyy0gIA0OUixeV9OX5K8Ae6kfB/d2bWvKh+GPjv0gEA0KUi0mcjTT/k0tG1l5YRQFcR/u/G+FmNfVUjnlQ/GjjICwBAt4q44Lb+Ox6xe/TY68sEoOt4z/8hGNk29eL6N/W80gIA0CUi0jkTowPnpJyjjAC6ki3/h2JmzYsi4sulAwCg891eB//HTWwefKHgD/QCW/4P0UnnTd2/0YjP55xXlhEAAJ3p2jrvP3rXpqHPlh6g69nyf4guP3Pwqynl55cWAIAOFBFfTNPxk4I/0GuE/zmYuH7glZHiv0oLAEAHiZT++bb+fQ8bP2voqjIC6Bl2+5+j+27de2J/o/pS/atbXUYAALSziMg5/eWuTYMv9v5+oFcJ//MwMjb1mHpxwcEOAIC2FXFTyo0njI8OvL9MAHqS3f7nYXx08B31A8nrSgsAQBuKlL4+W1UPEvwBhP95O+K26T+JSJeWFgCA9vLu/pXVgy8/c91lpQfoaXb7X4ANW2/4saox+5mc8qoyAgBgOUVE/Qz37PFNg3/t/f0A/8uW/wXYtWVN88B/f1xaAACWU8QNOeXfGB8d+ivBH+B72fLfAsPbJt+ac358aQEAWHoXN2Yaj7nsj9dcXnoAvost/y2wKmbP8P5/AIBlEvH3aXrNQwV/gLtmy3+LrB+b+uFGpIvq3+gRZQQAwGKKdFuk2DSxeegfygSAu2DLf4vsHh38WqT0lNICALCYIu2ardJDBH+AQyP8t9DE5sG3R0qvKi0AAIsgIr2zb1X1gMvPHPxqGQHwAwj/LXbv6wb+PEX6WGkBAGiRSLGv/rRpYvPg71361LXfLmMADoH3/C+Ck1577TF90/2fq3+99ykjAAAWICJdUlXpdFv7AebHlv9FcPnT7nVdSn2PrsvbD04AAJivSOmNR962/4GCP8D82fK/iEbGph5TLy442AEAMBd16L8l53zG+KaBfywjAObJlv9FND46+I76QetFpQUA4BBFxBcjz/6E4A/QGrb8L7aIPLx97wX1L/r3ygQAgLtSp/5I6e9WrR38i52n5/1lCsACCf9L4NgdVx9xxOxhH61/2Q8uIwAAvk8d+q9KUT1xYvPa/ywjAFrEbv9L4JqNx98Waf9vRsQVZQQAwPeIt0+nvh8R/AEWhy3/S2jDtsn7RUqfTjkfXUYAAD0tIn075WrzxOjat5QRAItA+F9iw9v3/Fyq8odyzivKCACgR8Wn+nLf4y/dtMbekQCLTPhfBsPbp07PVbwt5ez3DwD0nEixr5HyC3YNDbwynZ5nyxiARSR8LpORbZNn1eH/1aUFAOgVF1cpPWn36ODXSg/AEnDAv2Uyvnno3EjxstICAHS1+nnPTIo4+/jrBh4i+AMsPVv+l1NEHt6+97X1lfBHZQIA0IXiq7nqe+KuLWu+VAYALDFb/pdTzjExNLAxRVxQJgAA3SNiNkX6mzQ98JOCP8DysuW/DZx2Qazcv2fq3SnnR5YRAEBHi4gvR188dfcZaz9fRgAsI1v+28DO0/P+W/v3/V5d/ufBCQBAZ2oeyb8O/n+xun/wJwV/gPZhy38bOeV1e+45s6/xkZzTg8oIAKBzRHyy0R9PvWzj2kvKBIA2Ify3mfU79h6dZ+JDXgAAADpFpHRryvGciWsHx9I5uSpjANqI8N+GvAAAAHSO+EDV19i4e+PAN8oAgDYk/LcpLwAAAO0sIl2TGulPJjYNOmsRQAdwwL82tXvjwE3Rn3+5fmD9bBkBALSBqFKkrXkmThX8ATqHLf9tbuTcyaPSivzuunzEwQkAwLL5QtWoNjqKP0DnEf47wLE7rj7iyNnD3l+XXgAAAJZcRPp2TvGC8bWDW9PpebaMAeggwn+HOO2CWLl/cu/b6/K3Dk4AAJZCvD3n9Mxdm4auLgMAOpDw30kuiL7hyb2vq6+0J5UJAMDiiPhaSo0t45sHLiwTADqY8N9pIvLw2N5X5pz+pEwAAFon4qb6ecZfHnfd4NiF5+SZMgWgwwn/HWpk29Sz62vvpaUFAFiYqKX8xsj7n7t79NjryxSALiH8d7CRbXufEKl6Q855RRkBAMxZ89TCjYg/3rVl6KIyAqDLCP8dbmT75C9F5H+ur8ijyggA4JDUof/qlKvnTmwaemvKOcoYgC4k/HeBDVtv+LGqUb2vvjLvXUYAAHepTvm35hQvu+P22/7uqmeecHsZA9DFhP8ucer51x87U/W9ry4fcHACAPB9yvv6V/TN/sUlZ6y7pkwB6AHCfxc5dsfVRxwxe9hb6iv1d8oIAOCgSB/NjfynuzYNfLlMAOghwn+3icgj2/e+uK6ee3AAAPS4y1LkPxvfPNDcQxCAHtUoS7pFzjE+Ovi8iPS4FOm2MgUAekyk9K2o0tOPv27ghwR/AGz572LNAwFGY/bd9dV8YhkBAF0vbkyRX3LHHbee52B+APwP4b/LnXreTYMzjZkL6mv658sIAOhOzaD/6ul9jZdf+Yw1Nx4cAcBBwn8vuCD6RvbsfVF9bT+vTACAbhExGzm9dkWjepEj+ANwV4T/HrJh29SjIsdb66t9dRkBAJ3qwFn70gVRzf7FxJZjxssUAO6U8N9jTn7NDSdVfVXzbQAPLCMAoJOU0F9/vGh809DOMgWAuyX896DTLoiV+/dM/U3K+ZllBAB0hvfMRv7LyzcPfKX0AHBIhP8etn5s6pE5xZtzymvLCABoT+9JqXHO+OiaL5YeAOZE+O9xp5y357iZRuNNOadfKiMAoH0I/QC0hPBP872DecP2qTPrxcvqv4jDyhQAWA7N9/Sn/O6UG38l9APQKsI/37Fh2+T9qpT+Mef842UEACyViNn6qdk/pUa81IH8AGg14Z/v8YAdseLGmb3PTzmen1PuL2MAYLFEuiNyvKk/973s0k1rrihTAGgp4Z87tWHrDT9W5dk35Zx/tIwAgBaKlG6tP29b0ahefckZ664pYwBYFMI/d6m5F8BNs1PPi0jPyzmvLGMAYAEixVT9BOy86X195175jDU3ljEALCrhnx9oZPvkafUzlR31n8vDyggAmLvL6sfTV91xx61vvuqZJ9xeZgCwJIR/Dk1EHt6296m5ES+v/2xWlykA8ANExMdTjr+buG7o/emcXJUxACwp4Z85Oem11x7T2N//ipzz48sIAPh+zSP35/TPsxGvuHzz2s+VKQAsG+GfeVm/de/Dcq62OiAgAPyvSOmWevHa2Sqfe8WWgSsPTgFg+Qn/zN8F0Tc8OXlGjvxXKec1ZQoAveiyFDGWZtIbx88aurnMAKBtCP8s2Mk7bh6qZqZfmFKckXLuK2MA6G5RS+lfU+RtE5sHPlg/BtYtALQn4Z+WOWVszymz0Xh5/Vf1m2UEAF0omqfne0Nq9I+Nn7F64uAMANqb8E/LjWzb+/D6idHf1X9dDywjAOh8EV+LnM878tb9//iVZx17a5kCQEcQ/lkcEXlk29TvRiO/qP4ju1+ZAkBHiRT76sU7Gqnx97tGBz5+cAoAnUf4Z3GdHY0Na6eeWDXSX+aUTypTAGhrkdLXc4q/X7mi/x92Pm313jIGgI4l/LMkTrsgVu7fs/cpKcfz6j+7+5QxALQNW/kB6GbCP0vqu14EeE7953diGQPA8on4Wv35dStX9r/FVn4AupXwz7J4+NnR/621U0+ocvqLnPNwGQPA0oi4KVJ6W87pTeOjQ58pUwDoWsI/y+rgiwB7HxON9Gd1+xMHpwCwGKJKkT5c5fym2cNvfveVTz7pjrICALqe8E/b2DA2+YtV5D/POf1SGQHAgkWkS3Md+HOu3rJr09DVZQwAPUX4p+1s2L73R6uq+vO6fEz9ZG3FwSkAzEHEDWW3/n+wWz8ACP+0sVPPv/7Y6arvjPoZ3Kac8toyBoA7F+m2lON9KRr/uHLtmg/uPD3vL2sAoOcJ/7S9kXOrVdWKvY9rpPzHdeu4AAB8R6SYyZE+lBqNf1o5O/2enVuOuaWsAgC+i/BPRxneNvXT9R/t0yPH43LKq8oYgF4SEfUzmE+myP/Y6F/xz5dtPGqyrAEA7oLwT0c67bU3DuyfnnliRD4j53RKGQPQxSKli+rFO6Ivv2P3xoFvHJwCAIdC+Kez1el/+PzJh6cqPzXn/Dv15PCDKwDoeN/Zwp/+uepvvEvgB4D5E/7pGut37D26r4rHVVV6Ss7pQWUMQEeJKlL6eB3439lfxTsvPXPtt8oKAGABhH+60vDWqR/KOZ4cKf9+zunYMgagDUXEdP2U5ML6Sck7q7z/X3aPHnt9WQUAtIjwT3e7IPpGpqZ+PlX58ZHS7+Sc7lnWALCs4sb6fvnfU+T3RH/+wO6NAzeVFQDAIhD+6Rn3fsU3Dl95+JGPzhGPr9tfzjmvPLgGgKUQEVekXIf9VL13Td/Qxy/emKfLKgBgkQn/9KQTX3XD6hUrZ3+3Lh8TOf1CTrn/4BoAWubAAfvy5+vFe6rUeN/lmwe+UtYAAEtM+KfnHTht4P6Z365LLwQALFCkmKo/fSCnxgeqvO9D3r8PAO1B+IfvcsLYjWtWpOlfT6nxWznSr9a3kCPKKgDuVFQR+fN18e+NiH/ftWfwc+mcXB1cBwC0C+Ef7kLzGAGrDj/8l1Jq/Hb95PY3csqDZRVAb4vU3Jr/wRzp3/ui/0OXnHn01MEVAEC7Ev7hUFwQfeun9j6kEelR9bPe+iP/SFkD0PUipVvqz81T8X1kdjb/x+VbBr6Wch39AYCOIfzDPKzfsfeExmw8KlI8Kqf88/Xo8INrADrfgfPu5/Sp+knCf1Q5f/Q+1w5cdOE5eaasBgA6kPAPCzRybrWq6pt6WM75V3JOv2KvAKDjRMzW911fTDk+Fil/5La+Oz5+zcbjbytrAYAuIPxDi5249bp79ee+X67L+iP/fM7p2INrANpDpNiXI30+5fyxqNInVqWZT+zccswtZTUA0IWEf1hkJ+/Yc+rsbPqFFI1H1E+5H5FzHiirAJZEpHRr/YD/mZziY1WOT8wcdstnrnzySXeU1QBADxD+YSmdHY0Na2/8kWjM/lx983t4RDTfLjBU1gK0SHyzTvyfrh/lP52r9Onj9gxe7D37ANDbhH9YThF5w9jUqdF8ISDFz6Scf7a+Ud67rAX4gcou/F+oy0/VzWf6Ij516Zlrv3VwLQDAQcI/tJnmmQTyTPxUfev8qfqJfL2Mn8gp95fVQI+rw/7lddj/3P9s1V+xbvCLO0/P+8tqAIA7JfxDm7v3K75x+MpV93hAI8dPR0oPyjkeVN9071NWA12tuft+bh6Y77MpVxev7O+/eOfTVu8tKwEADpnwDx3opNdee0z//hUPrFJ6cE7xwEjpJx07ADpbfTv+Vv354rq4qA78F+fZFRePn3XUnrIaAGBBhH/oEgffLjD7Eyk3frwOEPVH/nHHD4D2Eylm6tvm1+uw/+X6dvqlRoov576VX7ps41GT5UsAAFpO+IcuNnLuzWvTyv0/liP/WJXiR+rUcf96fFrOecXBrwAW14Gj7n+tfrT974j01Zz7vpqmj945flZjX/kCAIAlIfxDj3n42dF/1dq9p0Qj3b8R6f6R4/51OPmhnNN967uERvkyYC4ivhE5X1JXX09VHfT70s7G/vjq+FlDNx/8AgCA5SX8Awec+MbLD1t5x9GnzEbcL0c6rb53uF9Ocb+IdLI9BaAW6baUYzxSvqyuv54b+dKYmfn6kXfMXvqVZx17a/kqAIC2JPwDd++C6NswedOJVTV7cqMRJ0fkDZHTySni5JzTCfYWoJtEpG/Xn3fnnC+vl+NR1UG/r9rVSHnXrk1DV5cvAwDoOMI/MG8j51ar+lZM3Xc6N4ZzivUp8vr6TmV9HZrWRzpQH1m+FNpCpHRr/bd6Rb28Ike+vF5e3qj7qqquWHXYyiucRg8A6FbCP7Bo1o9dsy41+k9oVPnEVKUTopFPzJFOqO95TowUJ+aUB8uXQgtEVT+sXV8n/KsixzXNZf03dkU00hWRq939edUVjqgPAPQq4R9YNs3jDPTdceR9GlX/cTniuMjphEjpuPqe6bg6uN07pwOzY+oAt6p8Cz0qIiZzTs1A/63IuQ716dp6fHWk6upGztf25eqblwysvT6dnmcPfgcAAN9N+Afa3omvumH1qiNm7lXN9B1T5Ti2EXFMpHSvlPPaOhauy5GG6ruz+iOG6tma8m20sUgxlVOeqlP9VH3d7Ymc9tTTqUbKkweCfsrXR46pvtx37ez+o69xajwAgIUR/oGu0jyV4RVrrx/qT/2DdZAcrPLsQM55IFJeU9/hralDZ/PFgYN15NV1fVR9T3hUjrhnyvnoAxfCDxbpjvrzzfXvrnkqu+bHTQeWkW78zizSzbmRborZOug3GtdFrqaqmJ7cPXSvKVvoAQCWlvAP8F1Gzp08ql4clfvTPVMj3bNKcUQdYo9K0Ti8EXF45HR0fdd5WKR0eH0Purq+E20cWJ8P3J8eePEgUjRfVGgWzcv6n7MhHJ0Pfk09z4fVn+qP/1Vf3hGHdErF5unmUkyX7n9U9SX/n/PJR+Tb688HtpjXP/vb9c+YzZGbIb0ZvG+u/1tm6uUt9Rfur7/itvrn14G+uiOqfGv9HzUdjeb31D+rvuzGbP+NqZFvzn2Nm++Z7nnTxRvz9/8bAAAAAAAAWB4p/f/t71wv3wCHDwAAAABJRU5ErkJggg==;fontColor=#333;" parent="1" vertex="1">
                    <mxGeometry x="20" y="180" width="28.37" height="20" as="geometry"/>
                </mxCell>
                <mxCell id="52" value="Worker" style="shape=image;verticalLabelPosition=bottom;labelBackgroundColor=none;verticalAlign=top;aspect=fixed;imageAspect=0;image=data:image/png,iVBORw0KGgoAAAANSUhEUgAAA/8AAALRCAYAAAAN0xOkAAAAAXNSR0IArs4c6QAAAARnQU1BAACxjwv8YQUAAAAJcEhZcwAADsMAAA7DAcdvqGQAAAAZdEVYdFNvZnR3YXJlAEFkb2JlIEltYWdlUmVhZHlxyWU8AAAD92lUWHRYTUw6Y29tLmFkb2JlLnhtcAAAAAAAPD94cGFja2V0IGJlZ2luPSLvu78iIGlkPSJXNU0wTXBDZWhpSHpyZVN6TlRjemtjOWQiPz4gPHg6eG1wbWV0YSB4bWxuczp4PSJhZG9iZTpuczptZXRhLyIgeDp4bXB0az0iQWRvYmUgWE1QIENvcmUgNS42LWMxNDUgNzkuMTYzNDk5LCAyMDE4LzA4LzEzLTE2OjQwOjIyICAgICAgICAiPiA8cmRmOlJERiB4bWxuczpyZGY9Imh0dHA6Ly93d3cudzMub3JnLzE5OTkvMDIvMjItcmRmLXN5bnRheC1ucyMiPiA8cmRmOkRlc2NyaXB0aW9uIHJkZjphYm91dD0iIiB4bWxuczp4bXBNTT0iaHR0cDovL25zLmFkb2JlLmNvbS94YXAvMS4wL21tLyIgeG1sbnM6c3RSZWY9Imh0dHA6Ly9ucy5hZG9iZS5jb20veGFwLzEuMC9zVHlwZS9SZXNvdXJjZVJlZiMiIHhtbG5zOnhtcD0iaHR0cDovL25zLmFkb2JlLmNvbS94YXAvMS4wLyIgeG1sbnM6ZGM9Imh0dHA6Ly9wdXJsLm9yZy9kYy9lbGVtZW50cy8xLjEvIiB4bXBNTTpPcmlnaW5hbERvY3VtZW50SUQ9InV1aWQ6NUQyMDg5MjQ5M0JGREIxMTkxNEE4NTkwRDMxNTA4QzgiIHhtcE1NOkRvY3VtZW50SUQ9InhtcC5kaWQ6N0M2RTcxRERBNTBDMTFFOTlFMEI5MUI4NEM5Qjk2NEMiIHhtcE1NOkluc3RhbmNlSUQ9InhtcC5paWQ6N0M2RTcxRENBNTBDMTFFOTlFMEI5MUI4NEM5Qjk2NEMiIHhtcDpDcmVhdG9yVG9vbD0iQWRvYmUgSWxsdXN0cmF0b3IgQ0MgMjIuMSAoTWFjaW50b3NoKSI+IDx4bXBNTTpEZXJpdmVkRnJvbSBzdFJlZjppbnN0YW5jZUlEPSJ1dWlkOjVmYjJkZjQ3LWM4YzYtNjM0Ny1hMzY3LWQwM2NhZmNmOWYxNSIgc3RSZWY6ZG9jdW1lbnRJRD0ieG1wLmRpZDoxZWJjMTdiNC1mOTQ1LTRmN2QtYWJiMC1hN2NkNDJlOWYxN2IiLz4gPGRjOnRpdGxlPiA8cmRmOkFsdD4gPHJkZjpsaSB4bWw6bGFuZz0ieC1kZWZhdWx0Ij52ZXJ0aWNhbDwvcmRmOmxpPiA8L3JkZjpBbHQ+IDwvZGM6dGl0bGU+IDwvcmRmOkRlc2NyaXB0aW9uPiA8L3JkZjpSREY+IDwveDp4bXBtZXRhPiA8P3hwYWNrZXQgZW5kPSJyIj8+q56OYAAAACF0RVh0Q3JlYXRpb24gVGltZQAyMDIyOjA0OjMwIDE3OjQzOjM2l5LCuQAAV4pJREFUeF7t3QlgZWdZP/73vcnMdIF2JslMaQstnWTaUsUNBBQUcUdU3Cj8BBEQmE5makVENrEURRZlKZ3JdGQX9A9FZFXZRCprgbI7tJ1k2kJLl0mmC91mkpznf+7MKwK2ZZLcJHf5fCA5z/Oc5Gaam7t87zn3nJwAgIWLyMPn731MrtLj6+4hKad1B1ewqCJdFzl9MkX1lonRofeknKOsAQC+i/APAAt03617T+xvxDvq8icPTlgOEfHxFX3VYy85Y901ZQQAFMI/ACzAya+54aTZ/tmLcspry4hlFJGu7q+qB1165tpvlREAUGuUJQAwVxdEXx38/0Xwbx85p+Nn+/I7mm/DKCMAoCb8A8A8bbh+6g/q4P9jpaVt5J8e2T71O6UBAGrCPwDMU+T8h6Wk3UR+YqkAgJrwDwDzFCkeWkraTvxMKQCAmvAPAPOwfuyadTnnFaWl3eS85sQ3Xn5Y6QCg5wn/ADAPK/JhR5SSdnXjauEfAArhHwAAALqc8A8AAABdTvgHAACALif8AwAAQJcT/gEAAKDLCf8AAADQ5YR/AAAA6HLCPwAAAHQ54R8AAAC6nPAPAAAAXU74BwAAgC4n/AMAAECXE/4BAACgywn/AAAA0OWEfwAAAOhywj8AAAB0OeEfAAAAupzwDwAAAF1O+AcAAIAuJ/wDAABAlxP+AQAAoMsJ/wAAANDlhH8AAADocsI/AAAAdDnhHwAAALqc8A8AAABdTvgHAACALif8AwAAQJcT/gEAAKDLCf8AAADQ5YR/AAAA6HLCPwAAAHQ54R8AAAC6nPAPAAAAXU74BwAAgC4n/AMAAECXE/4BAACgywn/AAAA0OWEfwAAAOhywj8AAAB0OeEfAAAAupzwDwAAAF1O+AcAAIAuJ/wDAABAlxP+AQAAoMsJ/wAAANDlhH8AAADocsI/AAAAdDnhHwAAALqc8A8AAABdTvgHAACALif8AwAAQJcT/gEAAKDLCf8AAADQ5YR/AAAA6HLCPwAAAHQ54R8AAAC6nPAPAAAAXU74BwAAgC4n/AMAAECXE/4BAACgywn/AAAA0OWEfwAAAOhywj8AAAB0OeEfAAAAupzwDwAAAF1O+AcAAIAuJ/wDAABAlxP+AQAAoMsJ/wAAANDlhH8AAADocsI/AAAAdDnhHwAAALqc8A8AAABdTvgHAACALif8AwAAQJcT/gEAAKDLCf8AMA8zVTVbStrUisZsVUoA6HnCPwDMQ55Zc30paUORYt/4WUM3lxYAep7wDwDzMH5WY19ETJSW9vP1sgQAasI/AMxTzuldpaTN5HDdAMB3E/4BYJ76G9UrU6TbSku7iLhp5cr+raUDAGrCPwDM0yVnrLumyjFaWtpFTn+082mr95YOAKgJ/wCwALtHh94cOc5MEY7+v8wiYrr+9JTx0aF3lhEAUAj/ALBAE5uGtkaOB0dKH2om0DJmyURV/9rfX1X5AeObh95YhgDAd8llCQC0wEmvvfaYxnTfg3M0jks5DitjFkHO+faIfHWjr/8zl208arKMAQAAAAAAAAAAAAAAAAAAAAAAAAAAAAAAAAAAAAAAAAAAAAAAAAAAAAAAAAAAAAAAAAAAAAAAAAAAAAAAAAAAAAAAAAAAAAAAADpALktgiZ3yuj33rPblX4qUN0RKh5cxi6S+s7s9p9gVM+kj42cN3VzGS2b9jr1H981Uv+D6XhrN67tqxGUrVsRHLn3q2m+X8ZIYGbvhx1OqHpJSrIvIHmcXUX2brnIjXzczkz51+ZmDXy1jAOBOeFICS+zEV92wun9ldXYdDEZzzivLmCUSEfvr3/uO/anv7G+Mrr6hjBfNaa+9cWD//tlzIsXTXd9Lr3l9p5y3zexrvOjKZ6y5sYwXxYZtU4+qUnp5HfdPKyOWUH1df7mR05/tGh36SBkBAN9F+IclNLz1upGc+/+tvuVtKCOWSR0UdldV9cjLz1x3WRm13Mk79pw6O5P/tQ7968uI5XNZVDOPmthyzHjpW2p4bPKlOeVnl5ZllFO8YNfo0F+XFgAohH9YIge2AE/PXlSXIwcnLLeIuGJFteKBl5x59FQZtcyp5900ON2Y/nwd/O9bRiy/8f2p70Gt3uNjw9jUsyKll5eWdhBp0/jmwfNLBwDUGmUJLLL9+2dfVC8E/zbSDOYzjem/KW1L1Zf7UsG/7YysjAO3w5YZOf/G4SrixaWlXeT0ylPO23Nc6QCAmvAPS6C51b/5nu/S0l7+aOTcm9eWuiXWj12zrl48+WBHO6lvhxtPGLtxTWkXLKqZP805rygt7ePwmb58VqkBgJrwD0tg//TsrwoIbSrnvujf/8jStUSOFb/avNzS0kaat8OVabaF13f+zVLQdvJvlAIAqAn/sAQi0smlpA3VgfDUUrZEqy+PFotoydtvTnzj5YfllO5dWtpNi65nAOgWwj8shZxWl4o2FCkdUcqWqC+vuds/bSpyHijlgvTtP9r13Maae3k0T61aWgDoecI/QIvlSP2lpIutqLLHUACgY3jiAgAAAF1O+AcAAIAuJ/wDAABAlxP+AQAAoMsJ/wAAANDlhH8AAADocsI/AAAAdDnhHwAAALqc8A8AAABdTvgHAACALif8AwAAQJcT/gEAAKDLCf8AAADQ5YR/AAAA6HLCPwAAAHQ54R8AAGi5E191w+qRsanHlBZYZsI/AADQcv0rZ7fViwuGt03+1/B51//EwSmwXIR/AACgpYa3TT025/z7zbpe/kxuND4/sm3ytSe99tpjDnwBsOSEfwAAoGU2bJ88PqUYK+1BOef646mN/St2jWyb+vPTLoiVZQ2wRIR/AACgNSJyFfkNddYfKJPvkXO6Z8rpZfv2TO0c3rrn0WUMLAHhHwAAaInhsaktOaVfLu1dyjkP50bj3cPbpj68fmzqh8sYWETCPwAAsGAn79hzah3qX1baQ5Jz+sVGxJeGxya3nXreTYNlDCwC4R8AAFiQB+yIFdVM4y11efjByRzk3JdTHp1pTO/aMDb5xw8/O/rLGqCFhH8AAGBBbpzZ+4KU0wNLOz85r4mUz73qmL1fGdk2+QPfOgDMjfAPAADM28jY5ENyiueVdsFySvdLOX+wvty3nbj1unuVMbBAwj8AADAvP/K31xxZx/W3NHfdL6MWyo9dkfsuGdm2dzSdHXILLJAbEQAAMC+3HrHiFfVi5GC3CHI+OuXYNnzM1EdPfs0NJ5UpMA/CPwAAMGfrt0/9Ws55Y2kXVU754bP91VeHx6aeniJyGQNzIPwDAABzcvKOm4cakV5f2iVRJ/4j648dI2NT7x859+a1ZQwcIuEfAACYk9nZ6e31YnkOxpfzr0X/9JfXb93zC2UCHALhHwAAOGQjWyd/L6f0e6VdFjmnYxs5f3hkbOpvHn529JcxcDeEfwAA4JCc+KobVqdGPq+0yyvn5nv/n3v1uqmPnXr+9cceHAJ3RfgHAAAOSf/K2ZfWi/Y6937OD52p+r6wfuveh5UJcCeEfwAA4Aca3jb10zmlp5e23dwrN6r/HN42eWbpge8j/AMAAHfvguhLKcbKrvZtKafcX//zXjM8NvmWe7/iG4eXMVAI/wAAwN3aMLX3qXWw/tHStrWc8hNWHXbEJ085b89xZQTUhH8AAOAuNQ/yV1Xx16XtCDnnH59pND6//vw9Dywj6HnCPwAAcJf6V1UvrMP0UGk7xoHTAVaN/9qwbfJ3ygh6mvAPAADcqTo43y9HbCltJzo8cnrHyNjkn5QeepbwDwAA3Kk6OL8y5dxX2g6V68yTXzU8NvXqFPV/EfQo4R8AAPg/1m/d8wt1aP7V0na8OvWfNTI29U+nXRArywh6ivAPAAB8r4jcaDReVrrukfPj9u+Zeu+xO64+okygZwj/AADA91i/fe9j68UDDnZdJudfOWLmsP9cv2Pv0WUCPUH4BwAAvuPhZ0d/js46td9c5ZwelGeqC0fOvXltGUHXE/4BAIDv+NbaqSfknIdL27Xq/8YfTf37P7ph++TxZQRdTfgHAAAOaB4MLxrpRaXtfjn/cFWlC0fOnbx3mUDXEv4BAIAD9u/Z+5Q6Ed+ntD2huZdD9KePeQGAbif8AwAAB7b6pxzPK21P8QIAvUD4BwAA0r7r9/5hr231/24HXwDIH3QQQLqV8A8AAD2ueYT/lOPZpe1ZOafT0orpDzgNIN1I+AcAgB531bqp3++FI/wfop9ozFT/euyOq48oPXQF4R8AAHpZRM4pPat0NOX80CNmD3vXgeMgQJcQ/gEAoIetP3/vI+uw+8Olpcgp/fL+yb2vbb44UkbQ0YR/AADoYY3KVv+78cTh7VMvKTV0NOEfAAB61Enb9vxkyunnSsudyCk/e3j75JbSQscS/gEAoEf15fzMUnI3cqRzN2ybelRpoSMJ/wAA0IM2bJ88PlL63dJyt3KjyultJ23b+yNlAB1H+AcAgB5UVfmMnHJ/afkBckr36EvV+07cet29ygg6ivAPAAA9ZuTcalXKsbG0HKqcT+hv9L/7wO8POozwDwAAPaZasfdxOeW1pWUOckoPjv4bxkoLHUP4BwCAHpMjj5aSecg5PWV4bOrppYWOIPwDAEAPOem8qfvX4fVBpWW+IrYOnz/1U6WDtif8AwBAD+lrJFusWyDnvCLNpneuH7tmXRlBWxP+AQCgRxy74+ojUoo/KC0LlHM6NsfKt6azQ66i7fkjBQCAHnGP6VWn14n16NLSAjmnXxo55oY/Ly20LeEfAAB6RNVITy4lrRTVX6/fuvdhpYO2JPwDAEAPOPk1N5yUU/7Z0tJKOfflHG87YezGNWUCbUf4BwCAHlD1zz6hlCyCnNPxK9PM9tJC2xH+AQCgF0R2oL9Flx+7YevU/ysNtBXhHwAAutyGrZMPTjltKC2LKHJsH942dZ/SQtsQ/gEAoMtVjfTEUrLYcj465/TmFJHLBNqC8A8AAN3s7GjkyL9bOpbGI4a37X1qqaEtCP8AANDFNhxzw0NTTseUlqXSSH+3Yfvk8aWDZSf8AwBAF4uI00vJEsopHVVFcvR/2obwDwAA3ersaERKdvlfJjnl31g/NvW40sKyEv4BAKBLNXf5zzkdW1qWQSPSuet37D26tLBshH8AAOhSVQpb/ZdbTusas/FXpYNlI/zDkoh9paAN5YiZUrZE5HRjKWlLcUcpFiQafbeUkjZ15PGrbysl9K6IXy8VyylidMP2vT9aOlgWwj8sgfqGdnUpaUOR8zWlbI1IV5WKdhStuT1etvGoyfqyWvJCAosg0vU7T8/7Swc96ZSxPafknIdLy3LKuS+qaptz/7OchH9YAjOz+T9LSTuanW3t9ZMr13cbi9zK22O4rttWfKwU0LNmovGoUtIOcn7o8PbJJ5QOlpzwD0vg8jMHv5oifb60tJGI+OLEmeu+UNqWmNg09IX6cr9cWtpIRPrs7tHBr5V24XJ6faloP64bel7OyS7/7SYaL7n3K75xeOlgSQn/sESqRvqT+h6/Ki1tIaqcGs8oTevkHKkRru92EzFbf27p9T2+afBfUiRbmNtMpPjX8c1DHyot9KSRcyePqm8LP1Na2kTO6fhVhx3xp6WFJSX8wxLZvWnwk/Vd/pbS0gZyHQTHNw9cWNqWmti09mN1AvHg3kZyI2+e2Dz4qdK2Rs5R5f2Pra/rXWXCcov42sy+PrvVwor0Sznl/tLRVvKz149ds640sGSEf1hC46OD23PE79ZB4boyYhlEij314vRdo0OvOThZHOObh86tF6dHxOTBCcuivr1VOX5n16bBHWXSUrtHj71+5cq+h9Q/571lxHKJuCDNpIde+Yw1zrhBz4tIv1RK2kzO6Z6NWPmXpYUl42iTsAxO23rdPfY1Gn+YI/9GfTNcXz9Ee/V30eXr69/z7kjpX/tXxZsuferab5cVi+6U1+2558y+/KT6DvdR9SP+cP2MbG1ZxaI5eH2n1Hjvypj+h51bjlmS0/Kt3z710FzF4+vyp3PKx9b/hlUH17A48h2R4ls550/Uv/d/3LVl6KKyAnre8LapS+qQeUppaTcRs/X/T53Ycsx4mcCiE/4BAKCLbNg+eXxEdtrZdhfpzeObB59UOlh0dvsHAIAuElXjEaWkrcUTTt6x59TSwKIT/gEAoItEjp8rJe0s575qNr+wdLDohH8AAOgiOcUvlpJ2F+n0ke2Tp5UOFpXwDwAAXeKU8/YcV8f/E0tLu8s5pyq9oHSwqIR/AADoEtP9+cGlpHM85pTtN9y31LBohH8AAOgSOZLw32ly7pupqmeUDhaN8A8AAF0ihy3/HSmnPzph7MY1pYNFIfwDAEA3uCD6IqcHlo4OklM6ckWa2VRaWBTCPwAAdIH1k3vvV4fIe5SWDpNTPnPk3GpVaaHlhH8AAOgCdfB/SCnpTPdKK2/8vVJDywn/AADQBXLET5aSThXVGaWClhP+AQCgG+T0w6WiY+WHrR+bcj2yKIR/AADoBpF+qFR0sEakjaWElsplCQAAdKgN2yePj8hXlZYOFpG+feRt+4/9yrOOvbWMoCVs+QcAgA4XKZ1WSjpczumetx254rGlhZYR/gEAoNPZ5b+7RP6DUkHLCP8AANDphP8uEw8fOXfy3qWBlhD+AQCg02W7/XeVnHPqz48vHbSEA/61mVO233Df2ZjdXJePTJGH62vosINrWCzNg6rUd6+X1dV7Gn0rt1+28ajJsmrRnHr+9cdOz/aNphy/Xt8MN9Q3xCPLKhbP7RFxWf1Y+m99s9XWS89c+60yX3SnnLfnuNm+xpb6b+xRzeu7Hh1+cA2LJVK6tb5x17fr/P4VfbPbLzlj3TVl1eKJyCPbp36n/plPqP8BP1UP1h148sYiiqr+tV9XP1Z+MqXqLROja99bViy69WPXrMuxcrT+N/xmfT2f7H58Sdxe/7531bfvf6+fI22b2Dz4zTKnNjw2OZlTHiwt3SDia+Obh+5fOlgwT0raxYEnjTc8O6I6p36uuLJMWWoRN6VGY/P4poF/LJOWG9k2dUbk9HeeKC6r2yPHn09sGtpa+kUzvG3yzPrJ2Mu9kLd8mi8ENHJ65q5NgzvKqOXuu3XviX2NeHt9u35wGbEMIsV/zVSzj71yyzHXltGiGBmbfEqkfG59fd+jjFhqke6ob9svmNg8+Hdl0tOO3XH1EUfOHubI8F2ozgU/tmvTwJdLCwtit/82MTK297z6kewlgv8yy/noFPHWkW2TZ5VJS9VPGM+uQ+B2wX/ZHZ4jnzcyNvXXpV8UI9umXlzfpl8j+C+v5u0tIp1f367/soxaqrnHVn+OiwT/5ZdT/tkVjb7PNveuKqOW2zA29az6J71e8F9m9f1qzulv68fVV5RJT7vHzKoTS0mXiSpOLyUsmPDfBobH9vxB/SDW3NWfdpHTK9dvn3po6Vpi/djUI+sLfmFpaQ/Pr29/v1nqlhreuufR9d/R80pLO8j5nIO3wxY6OxozMfuu+ro+pkxYdvk+M7ONdzT3qCuDlhnetucREfGy0tIW8p8Ob5/q+XBURRb+u1Sk9FulhAUT/pfZyLnVqvpqeGlpaRu50ajib0uzcPWT0BzJroltKKfG3zYDXGlbo768nOvLpe00Un27bmEoXH/M1B/klH+stLSLnB+6/vyplj9hrm/Xf9fcB7e0tIkc8fIH7IgVpe1J9V/lfUtJl6mv29PWb7++ebwgWDDhf5lVK2/4hfpZxHGlpZ3k/FOturM9aWzygc0779LSXk4eXrf3IaVuifX32vtTKScP1G0p/9D6HZMPKM2CNVL+w1LSZhpVflIpW2L92NQP14ufONjRXvKJN0xP/mxpelNOJ5SKLtQXfbb+0xLC/zLLVfxMKWlDjWi05PpppNZcDosjp9TS66dRpYeVkjbUmMktu74jwnXdtlr7+NoIt+t2lnNvP85GClv+u1h9/Qr/tITwv9xy9j7RNhYp3auUC5JzLNrBp1i4aPX7tXM6vlS0ofr6bsnt8cCp3nLu6V2N21rOa0584+WtO9hmTvcuFW0opx5/nA1/n10t0k81H3NKB/Mm/C+zHK6DthatOftCJAGhzbX2dhjpqFLRjlp0VpUV+bAjSkm7unF1y8J/OLp/m8urStGj8tpS0I1yLVb8aulg3gRPAADoYDmlgVLSper4/wulhHkT/gEAoINFDuG/y0VKv1hKmDfhHwAAOtTIuZNH5ZT7S0uXap4dbMO2yfuVFuZF+AcAgA6VV/QPlZIuVzWSXf9ZEOEfAAA61ExMD5aSLpcj2/WfBRH+AQCgQzVyw/v9e0XEz9YfuXQwZ8I/AAB0qqgOLxXdLuc1J23ds6F0MGfCPwAAdKzGqlLQAxp9+cGlhDkT/gEAoEM1Imz57yWRf6pUMGfCPwAAQAfIOT+olDBnwj8AAHSoyOnoUtIDIsWP3vsV37C3B/Mi/AMAQKfK9f/oGfXV3b/qsCN/vLQwJ8I/AAB0qsgO+NdrIv1QqWBOhH8AAOhQOceKUtIjciPdv5QwJ3YTWmYj26beVF8Lf1ha2kxEOmdi8+ALSztvw2NTr65vbGeVljYTKZ07MTr4J6VdMLfr9taq6/uU7Tfcdzaqy0tLG5re11hz5TPW3FjaBXE/3uYivXl88+CTStdTRsYm6/uz/KrS0hv+c3x08OdLvajW79h79Ioqr6lm0+r6hnZUNNJRuYp7VindIzfiyOaeJ/Xj6uEpN8868T17oRyV43s3NEdO33V/HHfUgzvq+9Xb6u/dHynfUj93ujnN1h/96aY0k25e0T+798i8dvLijXm6fBMLJPwvMyGhvQn/vUH47y3Cf+8Q/nuI8C/895JI19V/7/cq3ZydvOPmoWp29j5Vro6tA/px9QWuqy/z3inntTnFveogPljPB+v5YD3rK9+2bOrH7Zvr+9/r6+flk3V7dV1fW/+7roqovpUa8Y3+1H/Fva5dfdWF5+SZg9/BXbHbPwAAdKg6qN1WSnpFTsec9tobB0r3f5x63k2DG7ZPPmhkbOr3N4xN/sXwtqnX1x8frj8uGdk2dXs1O70npeoLjUj/Wgfp1+aUX5xz3lTXv1df+MPq5f3qn7GuHYJ/U/3vOapejOScHlJ//G492Fz/5b+k/je/OUfjP5svxF+9buqOkbHJK0a2TX6g+WJt/fH0DVv3/mzzhY6Dl0KT8A8AAB2qUcX+UtJD7pieffCG7Xt/dHj71Ol14P3L4W2T/1h/fKEOvTfN9M1MRuSL6i/7x0j5r+rA/JT64xfrj1Pq4HzYwUvoMgdeqMgn1stfySmdVX/siEZc2HyhY3hscrL+3fxX/XvaMbx16mkjYzf8+MPPjv7ynT1F+AcAgA4122juFU2vqUPcv0XEl3Kkt9eB95yc8+/XHz9etpLzXXLzbQw5/0z9e3p6bqS/b+71cPW6vd8e3jb16ZGxqdeMbN/7+FPG9pxSvryrCf8AANChcsRNpQQOVU6HNd9GUFdnpoi3zqZG8y0R146MTb6t+ZaB4a3XjRz8wu4i/AMAQIfKuc9BzqAVcjqm/vTY5lsGcqN/1/C2qauGxybfMrxt8onN4yiUr+powj8AAHSoiNhbSqCFck7H55Sf0Dyw4Ezf9PXN4wZsGJt6Vie/RUD4BwCADtWfq6lSAosmN5rHDYiUXl7eInDZ8NjkS086b+r+5Qs6gvAPAAAdKvpWCf+w1HLakFN+dl9f+srItsmvjoztfc59t+49saxtW8I/AAB0qMu+dU+7/cNyyvmHU4qX9DfiiuZbA4bH9vzBiW+8vC1PqSj8AwBApzonV973D+2h+daAnBr/sOK2e35reGzq1Sfv2HNqWdUWhH8AAOhgOWW7/kM7yXlNTumsarbx9ZFtU/+xfvvUr6WIerS8hH8AAOhgdaSw5R/aVU4/34j0ryPbp746sm3yyaddECvLmiUn/AMAQAfLKa4oJdC28g+lnN+wf3JqfGTb1BnL8SKA8A8AAB0sUhL+oWPk+6Sctv/PiwAP2BEryopFJ/wDAEAHy5GFf+g4B18EuGlm73+v3z7522W4qIR/AADoYBG2/EPHymlDI/K/jIxNfnzD9r0/WqaLQvgHAIAO1t+oLi8l0LHyw6KqLm6eInDk3MmjyrClhH8AAOhgs9ODtvxDN8i5r3mKwLQifW14bOpXyrRlhH8AAOhg42c19kWkq0sLdLx8n5zSB4a3TZ5/71d84/AyXDDhHwAAOt/OsgS6RM5542GHHfHZDdsm71dGCyL8AwBAh8spvlJKoJvk/MNVzp8dHtvzm2Uyb8I/AAB0uCqnr5YS6DI5pXvk1HjP8LapF6aIup0f4R8AADpcI/XZ8g9dLud09vD2qffM92wAwj8AAHS66aN3pojZ0gFdKqf8G9GfP3vyjj2nltEhE/4BAKDDHTjif86XlRboYjmnU6qZ/JmRsb2/XkaHRPgHAIAukCO+XEqg2+V8dIrqvSNjky841OMACP8AANANcrqoVEAvyLkO/flFI9v3/sspr9tzzzK9S8I/AAB0h8+UJdBbfmtmf+OiE8ZuXFP6OyX8AwBAN5ge+GJE7C8d0ENyxL3W9h19S2nvlPAPAABdoHnQv5zS50oL9JKc/vnijXm6dHdK+AcAgG6R88dKBfSQqoq3l/IuCf8AANAlIqWPlxLoEZFiz+51Qz/whT/hHwAAusSqauaTEXG3u/4C3SVHfns6Pc+W9i4J/wAA0CV2bjnmlpTTp0oL9ICc8wWlvFvCPwAAdJcPlSXQ5SLS1buuW/PJ0t4t4R8AALpKfLAUQJfLOd6ezslVae+W8A8AAF1kYtPQF+rFtQc7oMu9oyx/IOEfAAC6Sc6RIt5fOqBLRcTu8U2DF5X2BxL+AQCgy0SO95US6FY5vePAi32HSPgHAIAus+/22z9cJ4JbSwt0oUbV97ZSHhLhHwAAusxVzzzh9pzs+g/dK/5715Y1XyrNIRH+AQCgOx3ygcCAzhIpv7GUh0z4BwCALnTH7bf9m13/oftEin2rVvQJ/wAAQNn1P9K/lBboEjny23Y+bfXe0h4y4R8AALpWvLUUQJeo+qqtpZwT4R8AALrU+NrB/6gX1x7sgI4X6WO7z1j7+dLNifAPAADd6vQ8GyneXDqg48VLSjFnwj8AAHSxyNXrSwl0ti+Mbx76UKnnTPgHAIAutnvTul2R4sLSAp3rpWU5L8I/AAB0uUaVd5QS6ECR0tfHrxt4Z2nnRfgHAIAut2JdHRoiXVdaoMM0Iv4inZOr0s6L8A8AAF1u5+l5f+Rk6z90oEjxpV2jg+8q7bwJ/wAA0AMaOf4+IqZLC3SIOrQ/K+UcpZ034R8AAHrArk1DV+ec/7/SAp0g4t93jQ59pHQLIvwDAECPmI38ilIC7S5idrbKzy7dggn/AADQIy7fPPCVSGne5wkHlk7zOB2Xnzn41dIumPAPAAC9JFcvKRXQpiLF1KoV/S8obUsI/wAA0EMmNq39WB0tPlFaoA01cn7+zqet3lvalhD+AQCgx0SVX1xKoM1EpM/sunbgtaVtGeEfAAB6zMSWwQ9ESheVFmgTkWKmqtLT0zm5KqOWEf4BAKAX5eo5pQLaRE75b1t5kL/vJvwDtFxMl4IuNlNVs6WkTfUdEVHKBctu13Sh5nv/I8WFpQWWWf2oden04Te/qLQtJ/wvt5xuLhXtqBGTpVqQRmrN5bBIosW3w5yvKxVtKa4vxYLkmTUtuRwWR0Ts371x4KbSLliE23U7qwOs2+M8NXL681ICyyqqnONJVz75pDvKoOWE/+UWaWepaEONSJeUckGias3lsDgit/Z2mKv036WkDeWULi3lgoyf1dhXB8yJ0tJ+vl6WLRENj9ftLGePs/O1a9PQZ1PEBaUFlk1+2fjo0GdKsyiE/+U2E++v73DtOtqOIm44qm+wJbvC9R0WH0yRFu1VPOYvUuyb3df4QGlbYl+j7wPNyy0t7eX2ldXsB0u9YDmld5eSNlOHwXeVsiVmD7v5oxHp26WljRw4OFaafn9pmY++/udFeGsLLJuIr6XpNeeUbtEI/8ts/KyhqyLnN5WWNpJzfsnFG3NLHggvfera5hPGVx7saCc50tYrn7HmxtK2xDdGV99Qh8JtpaWdRHrVzi3H3FK6Bevvq15RL24/2NE2Im7qn12xtXQt0dwNM+f429LSRnLkHbtHj7Xb/wKMn7F6Iud0XmmBJdTcYFTl/P+aexSW0aIR/tvAqhV9zfdajR/saAcR8fEVQwPnlrYlbu2/48X15X6xtLSF+MrKmH1haVpqZTV7dn35i3KkVubtC83bYalb4pIz1l1T32FsLi3tIuenXXLm0VOla53pgZc7NVp7iUiXVP35+aVlAaq+xovqFOJFFFhiORp/unt08GulXVTCfxvY+bTVe3Pq+5X6Acz7CdtApLhw1cr+39p5et5fRi1xzcbjb5uJ2V+ry88dnLDMLs45/VortwJ/t+bl1pf/yLr8wsEJy6m+f/3sdDXzqObtsIxaZnzz0BtzirPqn9Ly8/EyNwd2W4546vjo4DvKqKWaW2Xy9IrfqH/GJ8uIZRVfmY38q608sGMva/4eIycvpMBSivTe8c0DY6VbdMJ/m9g1unr3kbftf1D9BPWv6icVN5QxS6j+3V9dP3H849V9g7/UfEGmjFvqyi3HXDt9+M0/m1P680ixp4xZQgd/7/m59fXwsF2bhq4u40XRvPz65zy0/pnPr/+2nPFhOUS6vnl7mzni5oc3b39l2nK7RodeMxvxkPrnfbSZQMuYJRNV/Xv/90aj8ZPjm4deX4aLYvyso/Yc3T/4iFTFn9btov1Ncdfqm1j9GB1/ecSt0z99xZaBK8uYFpi4buANzRdLSwssqvhmf9X/lNIsifo5Ee3mATtixc2zNzykiuqknNNAGbNo8vWzUe26fHTo8ynnpXvSfkH0De/d+6A8m4dTrobKlMUSjck6hO+eWDtwUTo9L/1BNpvX9569D84pr3d9L4Hm9d0XExPX1Nf3OXlJt8ifev71x07P5gfn3Di2/oesKmMWRd4Xqbo60sxnluU932dHY8O9ph4YkUfq63pdmbJI6lC6t5Ebl+8aWvOpZbkf7xEjYzf8eIrZz9XPifrKCGixiNjfaKSfOXC2jSUk/AMAAN8xPDb16joknFVaoNUibRrfPHh+6ZaM3f4BAIADTt6x59QUMVxaoPX+YTmCf5Mt/wAA0OOGt143knL/c3OKP7TLPyyaz91x+60Pv+qZJyzLaYKFfwAA6FEbtk3eL1J+dkrxBKEfFk/z4OIr+mZ/8sBpgpeJ8A8AAL0kIg9v3/vLOcWf1HHgV8sUWCyRbotq9mcmzly3rKeAFv4BAKAHHLvj6iOOmD3sCXUQOSvndFoZA4usyvE7uzcNvau0y0b4BwCALjYyNvmQevGUiPy4OvTf8+AUWBrxjPHRoVeXZlkJ/wAA0GVO3HrdvVY2+v+givSUOvCfWsbAEoqIv53YPPTnpV12wj8AAHSBU87bc9xMI/9u/Qz/9+on+Q+rn+o7rTcsn38Y3zTwpJRzlH7ZCf8AANCh1u/Ye0KeqR6dczo9RXpoHTQ8v4flFvHBlWsHf3Pn6Xl/mbQFdw4AANApLoi+Ddff8NCqUf1a/UT+1+qn8/cva4D28J+39t3x69dsPP620rcN4R8AANrY8NbrRhp9/b8QkX4hpfil+in86rIKaCvxiVv79v1KOwb/JuEfAADayIaxG9enauZno5Ef0Qz8OafjyyqgTdW31c9Gf/7l3RsHbiqjtiP8AwDAMhk5t1oVq274iTSbHlo/Mf/pevTT9TP0Yw6uBTpBJwT/JuEfAACWwAN2xIob9++5f8p9D0g5HpBTfkCk+JGc88ryJUDHiU9UfY1fb/fg3yT8AwBAi42cO3nvakW+fyPS/SPH/VO9rMen1UF/xcGvADpdRPrIbf13PLpd3+P//YR/AACYhzrgHzXb37hvf6pGqpxOzSmfUoeBU+tn2HWdjipfBnSjSO9duXbgMe12Or+7I/wDAMCdOPW8mwZn+qePSdFYH7m6b67SfSPl++acTkoRJ6Wc15QvBXpIpPSmiaGBp6bT82wZdYT2Df9n1/eyx91w777pPBA5js4p7lGlym5SAAAsSI7cXz8JvkfkdHT9JP4e9aj+yOvq55vH1su19fy4OtyvtYs+8P0i0jkTowPnpJzru4/O0jbh/+Qde06tZho/V/86H1H/q+5X/yZPzimvKqsBAABgWUTEdB2eN45vHnpjGXWcZQ3/I9snT4sq/UH9j/j9lPMJZQwAAABtIVK6OUc8pg7+HyqjjrT04T8ij4zd8OspV8+pf3zzXKYAAADQfiLtSo34rfFNQzvLpGMtafjfsG3qUVWKF+ecf7SMAAAAoP1E/Nv0/r7HX/mMNTeWSUdbkvB/3617T+zP8ar6p/12GQEAAEC7esn40MALOu2I/ndn0cP/yLa9T4gc59c/6MgyAgAAgLYTKd2Sq3jy+Jahfy6jrrFo4f/YHVcfccTsYa+pf8AflREAAAC0qy9ENfPYiS3HjJe+qyxK+B859+a10T/9/pzTg8oIAAAA2lKk9KpVQwPP2Xl63l9GXafl4X/k3Ml7R3/6WM55uIwAAACg7USKqUbkP9y1efBfy6hr9ZVlS2zYPnl85HSh4A8AAEA7i0gf7q/iVy7bMvSFMupqLdvyP3Lu5FHRn/7LafwAAABoWxE31Z+fOT46+IaUcxwcdr9GWS5MRE4r8psFfwAAANpWxL/lRvqh8c1Dr++l4N/Uki3/I2OTf1Jf1KtKCwAAAO0j4qY66v/Jri1DbyqTnrPg8D88tucBKfKnc84ryggAAADaQ8Tb+vuqP73kjHXXlElPWlj4PzsaI8fs/WxdPeDgAAAAANrCeMoxOr5p6MOl72kLes//8DGTm+qF4A8AAEBbiJRuqT89Z+XQwA8J/v9r3lv+T9t63T32NfquyCkPlhEAAAAsj6jl/KaZauZ5V2455toypZj3lv/9jRVbBH8AAACWXcQHZ1PjxyZGB58i+N+5eW35v/crvnH4qsOPuLIO/2vLCAAAAJZUpHRRVNXzd29Z+x9lxF2Y15b/ww4/8rcFfwAAAJZDpPhSpOrRE6ODDxH8D828wn9EelIpAQAAYGlE+nxE9dsTmwZ/YmJ07XvLlEMw593+Tzlvz3GzjXxVynlhpwkEAACAQxHpYxHpZRNbBj9QJszRnLf8Vzn/suAPAADAooqYrT+/YzaqB41vHnyE4L8w8wj/6RdLCQAAAC0VEXsjxctmojE8Pjp4+uWb136urGIB5rwFf3jb1FU5p+NLCwAAAK1Qh/w4/47bb/v/rnrmCbeXGS0yp/B/2mtvHNg/PTtVWgAAAJi/iJvqWPqWHI3X79qy5ktlyiKYU/hfv33qoY1InygtAAAAzEmkmKkXH0w5/8PMYTe/98onn3THwTUspjmF/5GxyafU3/L60gIAAMAPFhF1+vxk/fmCyNNv3z167PVlDUtkbuF/29Sz6+94aWkBAADgLkQVKX0iRfrn/ireeemZa79VVrAM5hr+X1x/x/NKCwAAAN8Rkb5dh8yPVDnes3J2xfsvOfNox4xrE3MN/+fV37GltAAAAPSyaO7Pn5oH6vtgTo0PHN2/5lMXb8zTB1fSTuYY/idfm3J+amkBAADoOfHfKfLHIlUfWbVyxX/tfNrqvWUFbWxO4X94bOrV9TecVVoAAAC6WKR0S50BL4pIn4qcPj2T+j7zjdHVN5TVdBDhHwAAgOYe/JM556/W1cVVyhf391VfuuxbQ5elc3JVvoQOJvwDAAD0igNv0U/frKPgeOS4rJHS12dTfK0xveqr42cdtefgF9GNhH8AAIAuUY62f20d7K+p22/klL+ZIn2jaqRv9Deq3dUdg5ePn9XYd/Cr6SXCPwAAwCKJlD5UZ6jbD9axurmsA/k9IqK/Wd+Fm+svqnKd4OvlTXW/v/7m2+rlLfXo1rq+Med8Y67SjbONdGNfFXunU+PaOPKm66588kl3HLgE+D7CPwAAwCJoboU/8rb9x37lWcfeWkawbBplCQAAQEvFWwV/2oXwDwAAsAga0ff3pYRlJ/wDAAC03ud2bVnzpVLDsptj+A8HjwAAAPhBIraXCtrC3MJ/ZOEfAADg7kTcdGv/vreXDtqC3f4BAABaKr/lmo3HN0/NB21jTuH/f85PCQAAwJ2brZID/dF25rblP8e+UgEAAPD9Ij59+ZmDXy0dtI05hf9IMV1KAAAAvk8OW/1pT3MK/40q31pKAAAAvlvEDbfvu82B/mhLcwr/s40UpQQAAOC7RMpvvuqZJzhOGm1pbgf8i7iplAAAAHyXaMyOlRLaztwO+AcAAMD/EZE+vHvTul2lhbYzt/f853xLKQEAAPiOylZ/2tqcwn+VY6aUAAAAHBDfnFg79L7SQFua43v+8x2lBAAAoBaRdqTT82xpoS3NKfzPRuO2UgIAAPS8iJiuVs68rrTQtuYU/lc28s2lBAAA6Hk5pXde/rR7XVdaaFtzCv99/cI/AADA/8i54UB/dIQ5hf909NGO9g8AAHBAfHXX6MDHSwNtbU7hf+fpeX8kR/wHAABIkW31p2PMbct/Ladk6z8AANDTIqWbV8bMW0sLbW/O4b92U1kCAAD0pJzidTu3HGPDKB1jPuHfHzgAANC7IqIx07e1dNAR5hz+I2XhHwAA6GH5fZf98ZrLSwMdYe7v+Y90aykBAAB6ThXVa0oJHWPuu/3n9O1SAQAA9JSItHP35qGPlhY6xjx2+083lBIAAKCn5JTOSznXsQg6y9x3+0+xt5QAAAA9JG484rb9bykNdJS5b/mPJPwDAAA9p85Cr/3Ks451DDQ60ty3/Ocs/AMAAD0mqv5G31hpoOPMOfxX3vMPAAD0nPzeSzetuaI00HHmHP4b4T3/AABAb4lcnVtK6Ehz3/LfJ/wDAAC9IyK+OLFp7cdKCx1pzuG/r1oh/AMAAD0jNxqvKCV0rDmH/9m+aqqUAAAAXS0iXX10Y80FpYWONefwv3vjwE3NI12WFgAAoGvllF5z8cY8XVroWHMO/03O9Q8AAHS7SOnW6f2Nvy8tdLR5hf+U8mQpAAAAulJO6Q1XPmPNjaWFjjav8F/fCK4tJQAAQBeKKqe+V5cGOt78tvznuK5UAAAAXSciv2vX6OrdpYWON8/3/GfhHwAA6FrRSK8qJXSFeb7nP+z2DwAAdKWI9JndmwY/WVroCvN7z39OtvwDAABdqc47rywldI15hf8q5WtKCQAA0DUiYmJ8aOBfSgtdY35b/lN1fSkBAAC6Rk7579Lpeba00DXmFf77Z5Mt/wAAQHeJdN0dd9z65tJBV5lX+L/HyqE9pQQAAOgKkeLcq555wu2lha4yr/B/8cY8Xd8wvAAAAAB0hYj07Zn9fdtLC11nXuG/KYcj/gMAAN0izr/yGWtuLA10nXmH/9o3yhIAAKBjRcT0ir7qVaWFrjTv8B8pfbOUAAAAHSun9OZLzljnoOZ0tflv+c+2/AMAAB0uImar6m9LB11rAbv9hy3/AABAR4uc33X5mesuKy10rfmH/0hXlQoAAKAjNXK8rJTQ1eYd/nPfCrv9AwAAnew/d20a+mypoavNf8v/vqNs+QcAADpW5OpFpYSuN+/wP35WY19yrn8AAKADRcTHJzat/Vhpoest4IB/BzjoHwAA0Hki/02poCcI/wAAQE+JlC6a2DL4gdJCT1hQ+K9vNFeWEgAAoCPkyC8uJfSMBW75j92lAAAAaHuR4kvjo2veX1roGQvb8t/IE6UEAABoe5HTi1LOUVroGQsL/zOz46UEAABoa3Xi//ruawffU1roKQsK/4cfs/aK+iZUlRYAAKBt1eH/RemcLL/QkxYU/neenvfXt6CrSgsAANCeIu3afd3ABaWDnrPAA/7Vsvf9AwAA7S1H/I2t/vSyhYf/COEfAABoW1FnluP2DL61tNCTWrDlvyH8AwAAbSunxgsvPCfPlBZ60sLDf7LlHwAAaE/NI/yPX7/mn0oLPWvB4T9mZ4V/AACgLTnCPxy04PCfq4Zz/QMAAG0nUnzJEf7hoAWH//Gzhm6O5HR/AABAm4k4x1Z/OKgF7/lvHkAjXVpKAACAZRcRX5wYHXpPaaHntST813aWJQAAwPKL/LyUc5QOel5rwn/kS0oFAACwrOrEf9HElsEPlBaotST8R5r9eikBAACWVSPFX5QSKFoS/meiEv4BAIBlFyku3DU69JHSAkVLwv+VW465NkXcVFoAAIBlkaNxdimB79KqA/6lSNnWfwAAYPlE/Nv45oELSwd8l5aF/5ST8A8AACyPiJhNjeeWDvg+LQv/9QUJ/wAAwDLJb71888BXSgN8n5aF/9mUvlZKAACAJRMR+2civ6C0wJ1oWfhfMVt9uZQAAABLJ+dtV2wZuLJ0wJ1oWfi/9My134oUU6UFAABYfBE39fWt+JvSAXehZeG/KUe29R8AAFgykdLfXrbxqMnSAnehpeE/chL+AQCApXLtbf37XlVq4G60NvynEP4BAIAlkXN64TUbj7+ttMDdaGn476v6hH8AAGDxRdp13LUDry8d8AO0NPyvWLd6Z6SYKS0AAMDiiHjehedk2QMOUUvD/87T8/4c6ZLSAgAAtFykdNH45sF3lhY4BC0N/031DdGu/wAAwOJppGeknOvoARyqlof/Rna6PwAAYJFEvG3ijMFPlw44RC0P/7OpuriUAAAArRPpjploPKd0wBy0PPyvWJk+lyLsggMAALTaK6/YMnBlqYE5aHn4v/Spa78dKV9WWgAAgFa4dmXMvKTUwBy1PPw35ZQ+W0oAAIAWiOfv3HLMLaUB5mhxwn+Oz5cSAABgQSLFl8avG3xTaYF5WJTwH7b8AwAArZLjGemcXJUOmIdFCf933H7bl1PEbGkBAADm690Tm9Z+rNTAPC1K+L/qmSfcHjl9tbQAAABzFhHTUc08q7TAAixK+G/KkbzvHwAAmLec03kTW44ZLy2wAIsW/iOy9/0DAADzEin2VH2NF5UWWKBFC/9VzheVEgAAYE5ySs/ZvXHgptICC7Ro4f/y69d8LVK6ubQAAACHJCJ91qn9oLUWLfw3T8WRIz5dOgAAgB8sIhqNONOp/aC1Fi/8N+X0yVIBAAD8QJHyG3dtGnL8MGixRQ3/VQrhHwAAODQRN0Xe/9zSAS20qOH/HrfOXFTfgGdLCwAAcJcix/N3jx57fWmBFlrU8P+VZx17a0r5i6UFAAC4U5HiSxNDQ+eXFmixxX3Pfy1S+lQpAQAA/q/mQf6qdEY6PdtrGBbJoof/+id43z8AAHB3Xr9ry9BFpQYWwaKH//6Z6hOlBAAA+B6RYmrlyv5nlxZYJIse/i89c+236hv05aUFAAD4X1V+7s6nrd5bOmCRLP5u/wfkj5YCAACgiE9NbB54XWmARbQk4T9H/lgpAQAAmrv7z0SVn55yjjICFtGShP++ataWfwAA4Dtyyn87sWXwv0sLLLIlCf8H3vcf6dLSAgAAPSwidt9x+61/VVpgCSzRe/6bwq7/AABAyiltuuqZJ9xeWmAJLFn4z5E+UkoAAKBXRbxtfPPQh0oHLJGl2/I/u/LCUgEAAD0oIvZWefqs0gJLaMnC//hZR+2pb+1fKy0AANBjIqc/3T167PWlBZbQEr7nv3ljz/9RSgAAoIdEpA/vHh16c2mBJbak4T9V1X+WCgAA6B239802NpYaWAZLGv77D0sfjRQzpQUAAHpARPqLy/54zeWlBZbBkob/S5+69tv14pMHOwAAoOtF+vzE2oFzSwcsk6Xd7b+WI/97KQEAgC4WEfurnJ6cTs+zZQQsk2UI/40PlhIAAOhuL9o9OuiMX9AGljz879q8+ssR6ZrSAgAA3ekL975+8GWlBpbZkof/lHOknGz9BwCALtU8yHeuGn904TnZwb6hTSx9+G+K9IFSAQAA3Sbyi3dtWfOl0gFtYFnC/3Tu+1B9j1CVFgAA6BIR8eXV/QMvLi3QJpYl/H9jdPUNEfmzpQUAALpA8+j+jUbjDy/emKfLCGgTy7Pbfy2ncMo/AADoLi/atWngy6UG2sjyhf/oe28pAQCADhcpXTSxdvClpQXazLKF/wMHAIn4RmkBAIDOdXtfX/WkdHqeLT3QZpYt/B+Q83tKBQAAdKx43mUb115SGqANLWv4r1L17lICAACdKNJHxzcNnls6oE0ta/hf0zf08fre4sbSAgAAHaV+Lj8Tf5hyjjIA2tSyhv/mKUAi0r+VFgAA6CBVypvGzxq6qrRAG1ve9/w3NbzvHwAAOk1E/NPu0cG3lRZoc8se/vtXVP9e33HsLy0AAND24psz+/s2lwboAMse/i996tpv55w+WloAAKCdRS3HE698xhrH7oIOsvy7/TeFXf8BAKATRE4vn9i09mOlBTpEW4T/Ku//l/pupCotAADQnj63um/wBaUGOkhbhP/do8denyJ79RAAANpUpHRLavT9v+YZu8oI6CDtsdv/Qe8oSwAAoO1Uo+NnrJ4oDdBh2ib8r1zZd0GkmCktAADQJpqn9ZsYXfuW0gIdqG3C/86nrd6bI/1HaQEAgDZQB//deSZtKi3Qodppt/8mu/4DAECbqIP/dPTFY8fPGrq5jIAO1Vbhf+XK/nfZ9R8AANpDzunPd5+x9vOlBTpYW4V/u/4DAEDbePf4psFzSw10uHbb7T9VOf1/pQQAAJZFfHPlir4/SjlHGQAdru3Cf+prvDtS7CsdAACwhJpvw41Gfmxzr9wyArpA24X/3RsHbsopv7e0AADAUor83IkzBj9dOqBLtN+W/wPyP5QCAABYOu+eGB14RamBLtKW4f/ovjUfjBR7SgsAACyy5vn8p/c1nux9/tCd2jL8X7wxT6eU/6m0AADAYop0RyP6fvfKZ6y5sUyALtOmu/03VW8pBQAAsKhiy64ta75UGqAL5bJsS8Pbpv4753RaaQEAgBaLlN40MTr45NICXaqNt/wfeGXCgf8AAGCRRIov7bv91tHSAl2svcN/I97aPPJIaQEAgBapn2bv7c99v33VM0+4vYyALtbW4X/XpqGrI+X/KC0AANASUeWU/t+lm9ZcUQZAl2vr8N+Uc3pjKQEAgJZoPH9889CHSgP0gLYP/2l6zTtTxA2lAwAAFiAivXN805qXlRboEW0f/sfPauyLlJ32DwAAFihS+nr/qurJKWfH1YIe0/5b/mtVlV5XSgAAYF7ixsizj770qWu/XQZAD+mI8H/5mYNfjUifLS0AADAnUaWcTt+9ad2uMgB6TEeE/6ac4u9LCQAAzEWV/mx809CHSwf0oI4J/0fcNv22SOnm0gIAAIci0pvHtwy9qnRAj+qY8P+VZx17a470D6UFAAB+gEjpojSzZmNpgR7WMeH/gEZsLxUAAHA36uB/1YrG7G83z55VRkAP66jwP75paGek+K/SAgAAdybSbTk1fvOSM9ZdUyZAj+usLf+1SNnWfwAAuCvRVP3++OiaL5YJQOeF/8OGBv6lXlx7sAMAAL5Xfs7ElrXvKQ3AAR0X/neenvenFOeXFgAAKCLSG8Y3D768tADf0XHhv2l2xcz5ETFdWgAA6HmR4sJVawc2lRbge3Rk+L/8afe6LuX09tICAEBPi0iXrlrR/zsH95IF+L86Mvw3NXI6r5QAANCzIsWevtnGI3c+bfXeMgL4Pzo2/O/aNPTZFPHp0gIAQC+6vZHTr1/2x2suLz3AnerY8H9ApFeWCgAAekxUVY7HH9goBvADdHT4H183+K5I4VVOAAB6Tk7pGbs3Db2rtAB3q7O3/J+eZ+v/gFeXDgAAekKkdO6u0aHXlBbgB+rs8F9bUc2+ob77u7G0AADQ3SIumNg08IzSARySjg//O7ccc0tEOr+0AADQternvR9ZuXbwD1LOUUYAh6Tjw3/Tir7qNSnSHaUFAICuExFfzDPxu87lD8xHV4T/S85Yd02keHNpAQCgq9TBf6JaOfPI8bOGbi4jgDnpivB/QMz+XX2vOFs6AADoCpFiT/1c91cvf9q9risjgDnrmvA/seWY8ZTTP5cWAAA6XqR0S/35kQee6wIsQPds+T+g72WlAACAjhYR+yNVj54YXXtxGQHMW1eF//HRNV+MFO8rLQAAdKioUo7H7B5d+9EyAFiQLtvyn1JO6W9KCQAAnSk3njgxuva9pQNYsK4L/+OjQ59JER8sLQAAdJbIm8c3Dfxj6QBaouvCf1P05XNKCQAAHSMinje+eWCstAAt05Xhf+KMwU9HigtLCwAAba9+/vryic1DLyktQEt1ZfhviqrxF6UEAIC2Vgf/8yc2DT6ntAAt17Xhf/eWgU947z8AAO0uUnpjHfxHU851CbA4ujb8H5DTC0sFAABtJyL+aWJo4GmCP7DYujr8Hzjyf0rvOdgBAED7OBD81w4+MZ2eZ8sIYNF095b/AxqO/A8AQHuJ9C7BH1hKXR/+x0fXfDFFvK20AACwrCLF+1auHXic4A8spR7Y8t/cpWr2BfWd7ExpAQBgWTSD/6qhwd/beXreX0YAS6Inwv/ElmPG68XfH+wAAGDpCf7AcuqJ8N+0olH9daR0a2kBAGDJCP7AcuuZ8H/JGeuuySm9urQAALAkBH+gHfRM+G/qW1m9rL73vb60AACwqJqn8xP8gXbQU+H/0qeu/Xbk9ILSAgDAovmf8/gL/kA76Knw33Tv6wbeUN8V/3dpAQCg5f4n+DudH9Auei78X3hOnokq/1lpAQCgxeK1gj/QbnJZ9pzhsakP1v/xv1xaAABogXjl+KbBP0s5RxkAtIWe2/L/PxoRfxIpZkoLAAALFC8cHx16puAPtKOeDf+7Ng99PUXeWloAAJi/Kv60Dv7nlA6g7fRs+G+K/vzCSLGntAAAMEdRpYinjm8ZelUZALSlng7/uzcO3JRSfl5pAQDgkEXEdET+/fHNQ68vI4C21dPhv2niuoE3RKTPlhYAAA7F7dHIvzWxefDtpQdoaz0f/tM5uUq5Gj2wyxYAAPwAkWKq/vzzuzcN/lsZAbQ94b82Mbr24kjp/NICAMBdiG82Iv3M+OjQZ8oAoCMI/0X0NZ6XIl1fWgAA+D7x32k6/fSBs0YBdBjhvygH/3tmaQEA4H9FfHJ/6v+Z8bOGrioTgI6Sy5JieNvUh3NOv1haAAB6XKR43219+x53zcbjbysjgI5jy//3aeS+jfXi9oMdAAC9LV47MTT424I/0OmE/++za3T17pzS2aUFAKBn5eeOjw49PZ2eZ8sAoGMJ/3fiuOsGXhUpvlRaAAB6SETsz1X6/fHRgZeWEUDH857/u7D+/D0PbMzmz6Sc+8oIAIBuF3FDzo1H7xod+HiZAHQFW/7vwu4z1n4+pfyy0gIA0OUixeV9OX5K8Ae6kfB/d2bWvKh+GPjv0gEA0KUi0mcjTT/k0tG1l5YRQFcR/u/G+FmNfVUjnlQ/GjjICwBAt4q44Lb+Ox6xe/TY68sEoOt4z/8hGNk29eL6N/W80gIA0CUi0jkTowPnpJyjjAC6ki3/h2JmzYsi4sulAwCg891eB//HTWwefKHgD/QCW/4P0UnnTd2/0YjP55xXlhEAAJ3p2jrvP3rXpqHPlh6g69nyf4guP3Pwqynl55cWAIAOFBFfTNPxk4I/0GuE/zmYuH7glZHiv0oLAEAHiZT++bb+fQ8bP2voqjIC6Bl2+5+j+27de2J/o/pS/atbXUYAALSziMg5/eWuTYMv9v5+oFcJ//MwMjb1mHpxwcEOAIC2FXFTyo0njI8OvL9MAHqS3f7nYXx08B31A8nrSgsAQBuKlL4+W1UPEvwBhP95O+K26T+JSJeWFgCA9vLu/pXVgy8/c91lpQfoaXb7X4ANW2/4saox+5mc8qoyAgBgOUVE/Qz37PFNg3/t/f0A/8uW/wXYtWVN88B/f1xaAACWU8QNOeXfGB8d+ivBH+B72fLfAsPbJt+ac358aQEAWHoXN2Yaj7nsj9dcXnoAvost/y2wKmbP8P5/AIBlEvH3aXrNQwV/gLtmy3+LrB+b+uFGpIvq3+gRZQQAwGKKdFuk2DSxeegfygSAu2DLf4vsHh38WqT0lNICALCYIu2ardJDBH+AQyP8t9DE5sG3R0qvKi0AAIsgIr2zb1X1gMvPHPxqGQHwAwj/LXbv6wb+PEX6WGkBAGiRSLGv/rRpYvPg71361LXfLmMADoH3/C+Ck1577TF90/2fq3+99ykjAAAWICJdUlXpdFv7AebHlv9FcPnT7nVdSn2PrsvbD04AAJivSOmNR962/4GCP8D82fK/iEbGph5TLy442AEAMBd16L8l53zG+KaBfywjAObJlv9FND46+I76QetFpQUA4BBFxBcjz/6E4A/QGrb8L7aIPLx97wX1L/r3ygQAgLtSp/5I6e9WrR38i52n5/1lCsACCf9L4NgdVx9xxOxhH61/2Q8uIwAAvk8d+q9KUT1xYvPa/ywjAFrEbv9L4JqNx98Waf9vRsQVZQQAwPeIt0+nvh8R/AEWhy3/S2jDtsn7RUqfTjkfXUYAAD0tIn075WrzxOjat5QRAItA+F9iw9v3/Fyq8odyzivKCACgR8Wn+nLf4y/dtMbekQCLTPhfBsPbp07PVbwt5ez3DwD0nEixr5HyC3YNDbwynZ5nyxiARSR8LpORbZNn1eH/1aUFAOgVF1cpPWn36ODXSg/AEnDAv2Uyvnno3EjxstICAHS1+nnPTIo4+/jrBh4i+AMsPVv+l1NEHt6+97X1lfBHZQIA0IXiq7nqe+KuLWu+VAYALDFb/pdTzjExNLAxRVxQJgAA3SNiNkX6mzQ98JOCP8DysuW/DZx2Qazcv2fq3SnnR5YRAEBHi4gvR188dfcZaz9fRgAsI1v+28DO0/P+W/v3/V5d/ufBCQBAZ2oeyb8O/n+xun/wJwV/gPZhy38bOeV1e+45s6/xkZzTg8oIAKBzRHyy0R9PvWzj2kvKBIA2Ify3mfU79h6dZ+JDXgAAADpFpHRryvGciWsHx9I5uSpjANqI8N+GvAAAAHSO+EDV19i4e+PAN8oAgDYk/LcpLwAAAO0sIl2TGulPJjYNOmsRQAdwwL82tXvjwE3Rn3+5fmD9bBkBALSBqFKkrXkmThX8ATqHLf9tbuTcyaPSivzuunzEwQkAwLL5QtWoNjqKP0DnEf47wLE7rj7iyNnD3l+XXgAAAJZcRPp2TvGC8bWDW9PpebaMAeggwn+HOO2CWLl/cu/b6/K3Dk4AAJZCvD3n9Mxdm4auLgMAOpDw30kuiL7hyb2vq6+0J5UJAMDiiPhaSo0t45sHLiwTADqY8N9pIvLw2N5X5pz+pEwAAFon4qb6ecZfHnfd4NiF5+SZMgWgwwn/HWpk29Sz62vvpaUFAFiYqKX8xsj7n7t79NjryxSALiH8d7CRbXufEKl6Q855RRkBAMxZ89TCjYg/3rVl6KIyAqDLCP8dbmT75C9F5H+ur8ijyggA4JDUof/qlKvnTmwaemvKOcoYgC4k/HeBDVtv+LGqUb2vvjLvXUYAAHepTvm35hQvu+P22/7uqmeecHsZA9DFhP8ucer51x87U/W9ry4fcHACAPB9yvv6V/TN/sUlZ6y7pkwB6AHCfxc5dsfVRxwxe9hb6iv1d8oIAOCgSB/NjfynuzYNfLlMAOghwn+3icgj2/e+uK6ee3AAAPS4y1LkPxvfPNDcQxCAHtUoS7pFzjE+Ovi8iPS4FOm2MgUAekyk9K2o0tOPv27ghwR/AGz572LNAwFGY/bd9dV8YhkBAF0vbkyRX3LHHbee52B+APwP4b/LnXreTYMzjZkL6mv658sIAOhOzaD/6ul9jZdf+Yw1Nx4cAcBBwn8vuCD6RvbsfVF9bT+vTACAbhExGzm9dkWjepEj+ANwV4T/HrJh29SjIsdb66t9dRkBAJ3qwFn70gVRzf7FxJZjxssUAO6U8N9jTn7NDSdVfVXzbQAPLCMAoJOU0F9/vGh809DOMgWAuyX896DTLoiV+/dM/U3K+ZllBAB0hvfMRv7LyzcPfKX0AHBIhP8etn5s6pE5xZtzymvLCABoT+9JqXHO+OiaL5YeAOZE+O9xp5y357iZRuNNOadfKiMAoH0I/QC0hPBP872DecP2qTPrxcvqv4jDyhQAWA7N9/Sn/O6UG38l9APQKsI/37Fh2+T9qpT+Mef842UEACyViNn6qdk/pUa81IH8AGg14Z/v8YAdseLGmb3PTzmen1PuL2MAYLFEuiNyvKk/973s0k1rrihTAGgp4Z87tWHrDT9W5dk35Zx/tIwAgBaKlG6tP29b0ahefckZ664pYwBYFMI/d6m5F8BNs1PPi0jPyzmvLGMAYAEixVT9BOy86X195175jDU3ljEALCrhnx9oZPvkafUzlR31n8vDyggAmLvL6sfTV91xx61vvuqZJ9xeZgCwJIR/Dk1EHt6296m5ES+v/2xWlykA8ANExMdTjr+buG7o/emcXJUxACwp4Z85Oem11x7T2N//ipzz48sIAPh+zSP35/TPsxGvuHzz2s+VKQAsG+GfeVm/de/Dcq62OiAgAPyvSOmWevHa2Sqfe8WWgSsPTgFg+Qn/zN8F0Tc8OXlGjvxXKec1ZQoAveiyFDGWZtIbx88aurnMAKBtCP8s2Mk7bh6qZqZfmFKckXLuK2MA6G5RS+lfU+RtE5sHPlg/BtYtALQn4Z+WOWVszymz0Xh5/Vf1m2UEAF0omqfne0Nq9I+Nn7F64uAMANqb8E/LjWzb+/D6idHf1X9dDywjAOh8EV+LnM878tb9//iVZx17a5kCQEcQ/lkcEXlk29TvRiO/qP4ju1+ZAkBHiRT76sU7Gqnx97tGBz5+cAoAnUf4Z3GdHY0Na6eeWDXSX+aUTypTAGhrkdLXc4q/X7mi/x92Pm313jIGgI4l/LMkTrsgVu7fs/cpKcfz6j+7+5QxALQNW/kB6GbCP0vqu14EeE7953diGQPA8on4Wv35dStX9r/FVn4AupXwz7J4+NnR/621U0+ocvqLnPNwGQPA0oi4KVJ6W87pTeOjQ58pUwDoWsI/y+rgiwB7HxON9Gd1+xMHpwCwGKJKkT5c5fym2cNvfveVTz7pjrICALqe8E/b2DA2+YtV5D/POf1SGQHAgkWkS3Md+HOu3rJr09DVZQwAPUX4p+1s2L73R6uq+vO6fEz9ZG3FwSkAzEHEDWW3/n+wWz8ACP+0sVPPv/7Y6arvjPoZ3Kac8toyBoA7F+m2lON9KRr/uHLtmg/uPD3vL2sAoOcJ/7S9kXOrVdWKvY9rpPzHdeu4AAB8R6SYyZE+lBqNf1o5O/2enVuOuaWsAgC+i/BPRxneNvXT9R/t0yPH43LKq8oYgF4SEfUzmE+myP/Y6F/xz5dtPGqyrAEA7oLwT0c67bU3DuyfnnliRD4j53RKGQPQxSKli+rFO6Ivv2P3xoFvHJwCAIdC+Kez1el/+PzJh6cqPzXn/Dv15PCDKwDoeN/Zwp/+uepvvEvgB4D5E/7pGut37D26r4rHVVV6Ss7pQWUMQEeJKlL6eB3439lfxTsvPXPtt8oKAGABhH+60vDWqR/KOZ4cKf9+zunYMgagDUXEdP2U5ML6Sck7q7z/X3aPHnt9WQUAtIjwT3e7IPpGpqZ+PlX58ZHS7+Sc7lnWALCs4sb6fvnfU+T3RH/+wO6NAzeVFQDAIhD+6Rn3fsU3Dl95+JGPzhGPr9tfzjmvPLgGgKUQEVekXIf9VL13Td/Qxy/emKfLKgBgkQn/9KQTX3XD6hUrZ3+3Lh8TOf1CTrn/4BoAWubAAfvy5+vFe6rUeN/lmwe+UtYAAEtM+KfnHTht4P6Z365LLwQALFCkmKo/fSCnxgeqvO9D3r8PAO1B+IfvcsLYjWtWpOlfT6nxWznSr9a3kCPKKgDuVFQR+fN18e+NiH/ftWfwc+mcXB1cBwC0C+Ef7kLzGAGrDj/8l1Jq/Hb95PY3csqDZRVAb4vU3Jr/wRzp3/ui/0OXnHn01MEVAEC7Ev7hUFwQfeun9j6kEelR9bPe+iP/SFkD0PUipVvqz81T8X1kdjb/x+VbBr6Wch39AYCOIfzDPKzfsfeExmw8KlI8Kqf88/Xo8INrADrfgfPu5/Sp+knCf1Q5f/Q+1w5cdOE5eaasBgA6kPAPCzRybrWq6pt6WM75V3JOv2KvAKDjRMzW911fTDk+Fil/5La+Oz5+zcbjbytrAYAuIPxDi5249bp79ee+X67L+iP/fM7p2INrANpDpNiXI30+5fyxqNInVqWZT+zccswtZTUA0IWEf1hkJ+/Yc+rsbPqFFI1H1E+5H5FzHiirAJZEpHRr/YD/mZziY1WOT8wcdstnrnzySXeU1QBADxD+YSmdHY0Na2/8kWjM/lx983t4RDTfLjBU1gK0SHyzTvyfrh/lP52r9Onj9gxe7D37ANDbhH9YThF5w9jUqdF8ISDFz6Scf7a+Ud67rAX4gcou/F+oy0/VzWf6Ij516Zlrv3VwLQDAQcI/tJnmmQTyTPxUfev8qfqJfL2Mn8gp95fVQI+rw/7lddj/3P9s1V+xbvCLO0/P+8tqAIA7JfxDm7v3K75x+MpV93hAI8dPR0oPyjkeVN9071NWA12tuft+bh6Y77MpVxev7O+/eOfTVu8tKwEADpnwDx3opNdee0z//hUPrFJ6cE7xwEjpJx07ADpbfTv+Vv354rq4qA78F+fZFRePn3XUnrIaAGBBhH/oEgffLjD7Eyk3frwOEPVH/nHHD4D2Eylm6tvm1+uw/+X6dvqlRoov576VX7ps41GT5UsAAFpO+IcuNnLuzWvTyv0/liP/WJXiR+rUcf96fFrOecXBrwAW14Gj7n+tfrT974j01Zz7vpqmj945flZjX/kCAIAlIfxDj3n42dF/1dq9p0Qj3b8R6f6R4/51OPmhnNN967uERvkyYC4ivhE5X1JXX09VHfT70s7G/vjq+FlDNx/8AgCA5SX8Awec+MbLD1t5x9GnzEbcL0c6rb53uF9Ocb+IdLI9BaAW6baUYzxSvqyuv54b+dKYmfn6kXfMXvqVZx17a/kqAIC2JPwDd++C6NswedOJVTV7cqMRJ0fkDZHTySni5JzTCfYWoJtEpG/Xn3fnnC+vl+NR1UG/r9rVSHnXrk1DV5cvAwDoOMI/MG8j51ar+lZM3Xc6N4ZzivUp8vr6TmV9HZrWRzpQH1m+FNpCpHRr/bd6Rb28Ike+vF5e3qj7qqquWHXYyiucRg8A6FbCP7Bo1o9dsy41+k9oVPnEVKUTopFPzJFOqO95TowUJ+aUB8uXQgtEVT+sXV8n/KsixzXNZf03dkU00hWRq939edUVjqgPAPQq4R9YNs3jDPTdceR9GlX/cTniuMjphEjpuPqe6bg6uN07pwOzY+oAt6p8Cz0qIiZzTs1A/63IuQ716dp6fHWk6upGztf25eqblwysvT6dnmcPfgcAAN9N+Afa3omvumH1qiNm7lXN9B1T5Ti2EXFMpHSvlPPaOhauy5GG6ruz+iOG6tma8m20sUgxlVOeqlP9VH3d7Ymc9tTTqUbKkweCfsrXR46pvtx37ez+o69xajwAgIUR/oGu0jyV4RVrrx/qT/2DdZAcrPLsQM55IFJeU9/hralDZ/PFgYN15NV1fVR9T3hUjrhnyvnoAxfCDxbpjvrzzfXvrnkqu+bHTQeWkW78zizSzbmRborZOug3GtdFrqaqmJ7cPXSvKVvoAQCWlvAP8F1Gzp08ql4clfvTPVMj3bNKcUQdYo9K0Ti8EXF45HR0fdd5WKR0eH0Purq+E20cWJ8P3J8eePEgUjRfVGgWzcv6n7MhHJ0Pfk09z4fVn+qP/1Vf3hGHdErF5unmUkyX7n9U9SX/n/PJR+Tb688HtpjXP/vb9c+YzZGbIb0ZvG+u/1tm6uUt9Rfur7/itvrn14G+uiOqfGv9HzUdjeb31D+rvuzGbP+NqZFvzn2Nm++Z7nnTxRvz9/8bAAAAAAAAWB4p/f/t71wv3wCHDwAAAABJRU5ErkJggg==;fontColor=#333;" parent="1" vertex="1">
                    <mxGeometry x="20" y="100" width="28.37" height="20" as="geometry"/>
                </mxCell>
                <mxCell id="21" value="Worker" style="shape=image;verticalLabelPosition=bottom;labelBackgroundColor=none;verticalAlign=top;aspect=fixed;imageAspect=0;image=data:image/png,iVBORw0KGgoAAAANSUhEUgAAA/8AAALRCAYAAAAN0xOkAAAAAXNSR0IArs4c6QAAAARnQU1BAACxjwv8YQUAAAAJcEhZcwAADsMAAA7DAcdvqGQAAAAZdEVYdFNvZnR3YXJlAEFkb2JlIEltYWdlUmVhZHlxyWU8AAAD92lUWHRYTUw6Y29tLmFkb2JlLnhtcAAAAAAAPD94cGFja2V0IGJlZ2luPSLvu78iIGlkPSJXNU0wTXBDZWhpSHpyZVN6TlRjemtjOWQiPz4gPHg6eG1wbWV0YSB4bWxuczp4PSJhZG9iZTpuczptZXRhLyIgeDp4bXB0az0iQWRvYmUgWE1QIENvcmUgNS42LWMxNDUgNzkuMTYzNDk5LCAyMDE4LzA4LzEzLTE2OjQwOjIyICAgICAgICAiPiA8cmRmOlJERiB4bWxuczpyZGY9Imh0dHA6Ly93d3cudzMub3JnLzE5OTkvMDIvMjItcmRmLXN5bnRheC1ucyMiPiA8cmRmOkRlc2NyaXB0aW9uIHJkZjphYm91dD0iIiB4bWxuczp4bXBNTT0iaHR0cDovL25zLmFkb2JlLmNvbS94YXAvMS4wL21tLyIgeG1sbnM6c3RSZWY9Imh0dHA6Ly9ucy5hZG9iZS5jb20veGFwLzEuMC9zVHlwZS9SZXNvdXJjZVJlZiMiIHhtbG5zOnhtcD0iaHR0cDovL25zLmFkb2JlLmNvbS94YXAvMS4wLyIgeG1sbnM6ZGM9Imh0dHA6Ly9wdXJsLm9yZy9kYy9lbGVtZW50cy8xLjEvIiB4bXBNTTpPcmlnaW5hbERvY3VtZW50SUQ9InV1aWQ6NUQyMDg5MjQ5M0JGREIxMTkxNEE4NTkwRDMxNTA4QzgiIHhtcE1NOkRvY3VtZW50SUQ9InhtcC5kaWQ6N0M2RTcxRERBNTBDMTFFOTlFMEI5MUI4NEM5Qjk2NEMiIHhtcE1NOkluc3RhbmNlSUQ9InhtcC5paWQ6N0M2RTcxRENBNTBDMTFFOTlFMEI5MUI4NEM5Qjk2NEMiIHhtcDpDcmVhdG9yVG9vbD0iQWRvYmUgSWxsdXN0cmF0b3IgQ0MgMjIuMSAoTWFjaW50b3NoKSI+IDx4bXBNTTpEZXJpdmVkRnJvbSBzdFJlZjppbnN0YW5jZUlEPSJ1dWlkOjVmYjJkZjQ3LWM4YzYtNjM0Ny1hMzY3LWQwM2NhZmNmOWYxNSIgc3RSZWY6ZG9jdW1lbnRJRD0ieG1wLmRpZDoxZWJjMTdiNC1mOTQ1LTRmN2QtYWJiMC1hN2NkNDJlOWYxN2IiLz4gPGRjOnRpdGxlPiA8cmRmOkFsdD4gPHJkZjpsaSB4bWw6bGFuZz0ieC1kZWZhdWx0Ij52ZXJ0aWNhbDwvcmRmOmxpPiA8L3JkZjpBbHQ+IDwvZGM6dGl0bGU+IDwvcmRmOkRlc2NyaXB0aW9uPiA8L3JkZjpSREY+IDwveDp4bXBtZXRhPiA8P3hwYWNrZXQgZW5kPSJyIj8+q56OYAAAACF0RVh0Q3JlYXRpb24gVGltZQAyMDIyOjA0OjMwIDE3OjQzOjM2l5LCuQAAV4pJREFUeF7t3QlgZWdZP/73vcnMdIF2JslMaQstnWTaUsUNBBQUcUdU3Cj8BBEQmE5makVENrEURRZlKZ3JdGQX9A9FZFXZRCprgbI7tJ1k2kJLl0mmC91mkpznf+7MKwK2ZZLcJHf5fCA5z/Oc5Gaam7t87zn3nJwAgIWLyMPn731MrtLj6+4hKad1B1ewqCJdFzl9MkX1lonRofeknKOsAQC+i/APAAt03617T+xvxDvq8icPTlgOEfHxFX3VYy85Y901ZQQAFMI/ACzAya+54aTZ/tmLcspry4hlFJGu7q+qB1165tpvlREAUGuUJQAwVxdEXx38/0Xwbx85p+Nn+/I7mm/DKCMAoCb8A8A8bbh+6g/q4P9jpaVt5J8e2T71O6UBAGrCPwDMU+T8h6Wk3UR+YqkAgJrwDwDzFCkeWkraTvxMKQCAmvAPAPOwfuyadTnnFaWl3eS85sQ3Xn5Y6QCg5wn/ADAPK/JhR5SSdnXjauEfAArhHwAAALqc8A8AAABdTvgHAACALif8AwAAQJcT/gEAAKDLCf8AAADQ5YR/AAAA6HLCPwAAAHQ54R8AAAC6nPAPAAAAXU74BwAAgC4n/AMAAECXE/4BAACgywn/AAAA0OWEfwAAAOhywj8AAAB0OeEfAAAAupzwDwAAAF1O+AcAAIAuJ/wDAABAlxP+AQAAoMsJ/wAAANDlhH8AAADocsI/AAAAdDnhHwAAALqc8A8AAABdTvgHAACALif8AwAAQJcT/gEAAKDLCf8AAADQ5YR/AAAA6HLCPwAAAHQ54R8AAAC6nPAPAAAAXU74BwAAgC4n/AMAAECXE/4BAACgywn/AAAA0OWEfwAAAOhywj8AAAB0OeEfAAAAupzwDwAAAF1O+AcAAIAuJ/wDAABAlxP+AQAAoMsJ/wAAANDlhH8AAADocsI/AAAAdDnhHwAAALqc8A8AAABdTvgHAACALif8AwAAQJcT/gEAAKDLCf8AAADQ5YR/AAAA6HLCPwAAAHQ54R8AAAC6nPAPAAAAXU74BwAAgC4n/AMAAECXE/4BAACgywn/AAAA0OWEfwAAAOhywj8AAAB0OeEfAAAAupzwDwAAAF1O+AcAAIAuJ/wDAABAlxP+AQAAoMsJ/wAAANDlhH8AAADocsI/AAAAdDnhHwAAALqc8A8AAABdTvgHAACALif8AwAAQJcT/gEAAKDLCf8AMA8zVTVbStrUisZsVUoA6HnCPwDMQ55Zc30paUORYt/4WUM3lxYAep7wDwDzMH5WY19ETJSW9vP1sgQAasI/AMxTzuldpaTN5HDdAMB3E/4BYJ76G9UrU6TbSku7iLhp5cr+raUDAGrCPwDM0yVnrLumyjFaWtpFTn+082mr95YOAKgJ/wCwALtHh94cOc5MEY7+v8wiYrr+9JTx0aF3lhEAUAj/ALBAE5uGtkaOB0dKH2om0DJmyURV/9rfX1X5AeObh95YhgDAd8llCQC0wEmvvfaYxnTfg3M0jks5DitjFkHO+faIfHWjr/8zl208arKMAQAAAAAAAAAAAAAAAAAAAAAAAAAAAAAAAAAAAAAAAAAAAAAAAAAAAAAAAAAAAAAAAAAAAAAAAAAAAAAAAAAAAAAAAAAAAAAAADpALktgiZ3yuj33rPblX4qUN0RKh5cxi6S+s7s9p9gVM+kj42cN3VzGS2b9jr1H981Uv+D6XhrN67tqxGUrVsRHLn3q2m+X8ZIYGbvhx1OqHpJSrIvIHmcXUX2brnIjXzczkz51+ZmDXy1jAOBOeFICS+zEV92wun9ldXYdDEZzzivLmCUSEfvr3/uO/anv7G+Mrr6hjBfNaa+9cWD//tlzIsXTXd9Lr3l9p5y3zexrvOjKZ6y5sYwXxYZtU4+qUnp5HfdPKyOWUH1df7mR05/tGh36SBkBAN9F+IclNLz1upGc+/+tvuVtKCOWSR0UdldV9cjLz1x3WRm13Mk79pw6O5P/tQ7968uI5XNZVDOPmthyzHjpW2p4bPKlOeVnl5ZllFO8YNfo0F+XFgAohH9YIge2AE/PXlSXIwcnLLeIuGJFteKBl5x59FQZtcyp5900ON2Y/nwd/O9bRiy/8f2p70Gt3uNjw9jUsyKll5eWdhBp0/jmwfNLBwDUGmUJLLL9+2dfVC8E/zbSDOYzjem/KW1L1Zf7UsG/7YysjAO3w5YZOf/G4SrixaWlXeT0ylPO23Nc6QCAmvAPS6C51b/5nu/S0l7+aOTcm9eWuiXWj12zrl48+WBHO6lvhxtPGLtxTWkXLKqZP805rygt7ePwmb58VqkBgJrwD0tg//TsrwoIbSrnvujf/8jStUSOFb/avNzS0kaat8OVabaF13f+zVLQdvJvlAIAqAn/sAQi0smlpA3VgfDUUrZEqy+PFotoydtvTnzj5YfllO5dWtpNi65nAOgWwj8shZxWl4o2FCkdUcqWqC+vuds/bSpyHijlgvTtP9r13Maae3k0T61aWgDoecI/QIvlSP2lpIutqLLHUACgY3jiAgAAAF1O+AcAAIAuJ/wDAABAlxP+AQAAoMsJ/wAAANDlhH8AAADocsI/AAAAdDnhHwAAALqc8A8AAABdTvgHAACALif8AwAAQJcT/gEAAKDLCf8AAADQ5YR/AAAA6HLCPwAAAHQ54R8AAGi5E191w+qRsanHlBZYZsI/AADQcv0rZ7fViwuGt03+1/B51//EwSmwXIR/AACgpYa3TT025/z7zbpe/kxuND4/sm3ytSe99tpjDnwBsOSEfwAAoGU2bJ88PqUYK+1BOef646mN/St2jWyb+vPTLoiVZQ2wRIR/AACgNSJyFfkNddYfKJPvkXO6Z8rpZfv2TO0c3rrn0WUMLAHhHwAAaInhsaktOaVfLu1dyjkP50bj3cPbpj68fmzqh8sYWETCPwAAsGAn79hzah3qX1baQ5Jz+sVGxJeGxya3nXreTYNlDCwC4R8AAFiQB+yIFdVM4y11efjByRzk3JdTHp1pTO/aMDb5xw8/O/rLGqCFhH8AAGBBbpzZ+4KU0wNLOz85r4mUz73qmL1fGdk2+QPfOgDMjfAPAADM28jY5ENyiueVdsFySvdLOX+wvty3nbj1unuVMbBAwj8AADAvP/K31xxZx/W3NHfdL6MWyo9dkfsuGdm2dzSdHXILLJAbEQAAMC+3HrHiFfVi5GC3CHI+OuXYNnzM1EdPfs0NJ5UpMA/CPwAAMGfrt0/9Ws55Y2kXVU754bP91VeHx6aeniJyGQNzIPwDAABzcvKOm4cakV5f2iVRJ/4j648dI2NT7x859+a1ZQwcIuEfAACYk9nZ6e31YnkOxpfzr0X/9JfXb93zC2UCHALhHwAAOGQjWyd/L6f0e6VdFjmnYxs5f3hkbOpvHn529JcxcDeEfwAA4JCc+KobVqdGPq+0yyvn5nv/n3v1uqmPnXr+9cceHAJ3RfgHAAAOSf/K2ZfWi/Y6937OD52p+r6wfuveh5UJcCeEfwAA4Aca3jb10zmlp5e23dwrN6r/HN42eWbpge8j/AMAAHfvguhLKcbKrvZtKafcX//zXjM8NvmWe7/iG4eXMVAI/wAAwN3aMLX3qXWw/tHStrWc8hNWHXbEJ085b89xZQTUhH8AAOAuNQ/yV1Xx16XtCDnnH59pND6//vw9Dywj6HnCPwAAcJf6V1UvrMP0UGk7xoHTAVaN/9qwbfJ3ygh6mvAPAADcqTo43y9HbCltJzo8cnrHyNjkn5QeepbwDwAA3Kk6OL8y5dxX2g6V68yTXzU8NvXqFPV/EfQo4R8AAPg/1m/d8wt1aP7V0na8OvWfNTI29U+nXRArywh6ivAPAAB8r4jcaDReVrrukfPj9u+Zeu+xO64+okygZwj/AADA91i/fe9j68UDDnZdJudfOWLmsP9cv2Pv0WUCPUH4BwAAvuPhZ0d/js46td9c5ZwelGeqC0fOvXltGUHXE/4BAIDv+NbaqSfknIdL27Xq/8YfTf37P7ph++TxZQRdTfgHAAAOaB4MLxrpRaXtfjn/cFWlC0fOnbx3mUDXEv4BAIAD9u/Z+5Q6Ed+ntD2huZdD9KePeQGAbif8AwAAB7b6pxzPK21P8QIAvUD4BwAA0r7r9/5hr231/24HXwDIH3QQQLqV8A8AAD2ueYT/lOPZpe1ZOafT0orpDzgNIN1I+AcAgB531bqp3++FI/wfop9ozFT/euyOq48oPXQF4R8AAHpZRM4pPat0NOX80CNmD3vXgeMgQJcQ/gEAoIetP3/vI+uw+8Olpcgp/fL+yb2vbb44UkbQ0YR/AADoYY3KVv+78cTh7VMvKTV0NOEfAAB61Enb9vxkyunnSsudyCk/e3j75JbSQscS/gEAoEf15fzMUnI3cqRzN2ybelRpoSMJ/wAA0IM2bJ88PlL63dJyt3KjyultJ23b+yNlAB1H+AcAgB5UVfmMnHJ/afkBckr36EvV+07cet29ygg6ivAPAAA9ZuTcalXKsbG0HKqcT+hv9L/7wO8POozwDwAAPaZasfdxOeW1pWUOckoPjv4bxkoLHUP4BwCAHpMjj5aSecg5PWV4bOrppYWOIPwDAEAPOem8qfvX4fVBpWW+IrYOnz/1U6WDtif8AwBAD+lrJFusWyDnvCLNpneuH7tmXRlBWxP+AQCgRxy74+ojUoo/KC0LlHM6NsfKt6azQ66i7fkjBQCAHnGP6VWn14n16NLSAjmnXxo55oY/Ly20LeEfAAB6RNVITy4lrRTVX6/fuvdhpYO2JPwDAEAPOPk1N5yUU/7Z0tJKOfflHG87YezGNWUCbUf4BwCAHlD1zz6hlCyCnNPxK9PM9tJC2xH+AQCgF0R2oL9Flx+7YevU/ysNtBXhHwAAutyGrZMPTjltKC2LKHJsH942dZ/SQtsQ/gEAoMtVjfTEUrLYcj465/TmFJHLBNqC8A8AAN3s7GjkyL9bOpbGI4a37X1qqaEtCP8AANDFNhxzw0NTTseUlqXSSH+3Yfvk8aWDZSf8AwBAF4uI00vJEsopHVVFcvR/2obwDwAA3ersaERKdvlfJjnl31g/NvW40sKyEv4BAKBLNXf5zzkdW1qWQSPSuet37D26tLBshH8AAOhSVQpb/ZdbTusas/FXpYNlI/zDkoh9paAN5YiZUrZE5HRjKWlLcUcpFiQafbeUkjZ15PGrbysl9K6IXy8VyylidMP2vT9aOlgWwj8sgfqGdnUpaUOR8zWlbI1IV5WKdhStuT1etvGoyfqyWvJCAosg0vU7T8/7Swc96ZSxPafknIdLy3LKuS+qaptz/7OchH9YAjOz+T9LSTuanW3t9ZMr13cbi9zK22O4rttWfKwU0LNmovGoUtIOcn7o8PbJJ5QOlpzwD0vg8jMHv5oifb60tJGI+OLEmeu+UNqWmNg09IX6cr9cWtpIRPrs7tHBr5V24XJ6faloP64bel7OyS7/7SYaL7n3K75xeOlgSQn/sESqRvqT+h6/Ki1tIaqcGs8oTevkHKkRru92EzFbf27p9T2+afBfUiRbmNtMpPjX8c1DHyot9KSRcyePqm8LP1Na2kTO6fhVhx3xp6WFJSX8wxLZvWnwk/Vd/pbS0gZyHQTHNw9cWNqWmti09mN1AvHg3kZyI2+e2Dz4qdK2Rs5R5f2Pra/rXWXCcov42sy+PrvVwor0Sznl/tLRVvKz149ds640sGSEf1hC46OD23PE79ZB4boyYhlEij314vRdo0OvOThZHOObh86tF6dHxOTBCcuivr1VOX5n16bBHWXSUrtHj71+5cq+h9Q/571lxHKJuCDNpIde+Yw1zrhBz4tIv1RK2kzO6Z6NWPmXpYUl42iTsAxO23rdPfY1Gn+YI/9GfTNcXz9Ee/V30eXr69/z7kjpX/tXxZsuferab5cVi+6U1+2558y+/KT6DvdR9SP+cP2MbG1ZxaI5eH2n1Hjvypj+h51bjlmS0/Kt3z710FzF4+vyp3PKx9b/hlUH17A48h2R4ls550/Uv/d/3LVl6KKyAnre8LapS+qQeUppaTcRs/X/T53Ycsx4mcCiE/4BAKCLbNg+eXxEdtrZdhfpzeObB59UOlh0dvsHAIAuElXjEaWkrcUTTt6x59TSwKIT/gEAoItEjp8rJe0s575qNr+wdLDohH8AAOgiOcUvlpJ2F+n0ke2Tp5UOFpXwDwAAXeKU8/YcV8f/E0tLu8s5pyq9oHSwqIR/AADoEtP9+cGlpHM85pTtN9y31LBohH8AAOgSOZLw32ly7pupqmeUDhaN8A8AAF0ihy3/HSmnPzph7MY1pYNFIfwDAEA3uCD6IqcHlo4OklM6ckWa2VRaWBTCPwAAdIH1k3vvV4fIe5SWDpNTPnPk3GpVaaHlhH8AAOgCdfB/SCnpTPdKK2/8vVJDywn/AADQBXLET5aSThXVGaWClhP+AQCgG+T0w6WiY+WHrR+bcj2yKIR/AADoBpF+qFR0sEakjaWElsplCQAAdKgN2yePj8hXlZYOFpG+feRt+4/9yrOOvbWMoCVs+QcAgA4XKZ1WSjpczumetx254rGlhZYR/gEAoNPZ5b+7RP6DUkHLCP8AANDphP8uEw8fOXfy3qWBlhD+AQCg02W7/XeVnHPqz48vHbSEA/61mVO233Df2ZjdXJePTJGH62vosINrWCzNg6rUd6+X1dV7Gn0rt1+28ajJsmrRnHr+9cdOz/aNphy/Xt8MN9Q3xCPLKhbP7RFxWf1Y+m99s9XWS89c+60yX3SnnLfnuNm+xpb6b+xRzeu7Hh1+cA2LJVK6tb5x17fr/P4VfbPbLzlj3TVl1eKJyCPbp36n/plPqP8BP1UP1h148sYiiqr+tV9XP1Z+MqXqLROja99bViy69WPXrMuxcrT+N/xmfT2f7H58Sdxe/7531bfvf6+fI22b2Dz4zTKnNjw2OZlTHiwt3SDia+Obh+5fOlgwT0raxYEnjTc8O6I6p36uuLJMWWoRN6VGY/P4poF/LJOWG9k2dUbk9HeeKC6r2yPHn09sGtpa+kUzvG3yzPrJ2Mu9kLd8mi8ENHJ65q5NgzvKqOXuu3XviX2NeHt9u35wGbEMIsV/zVSzj71yyzHXltGiGBmbfEqkfG59fd+jjFhqke6ob9svmNg8+Hdl0tOO3XH1EUfOHubI8F2ozgU/tmvTwJdLCwtit/82MTK297z6kewlgv8yy/noFPHWkW2TZ5VJS9VPGM+uQ+B2wX/ZHZ4jnzcyNvXXpV8UI9umXlzfpl8j+C+v5u0tIp1f367/soxaqrnHVn+OiwT/5ZdT/tkVjb7PNveuKqOW2zA29az6J71e8F9m9f1qzulv68fVV5RJT7vHzKoTS0mXiSpOLyUsmPDfBobH9vxB/SDW3NWfdpHTK9dvn3po6Vpi/djUI+sLfmFpaQ/Pr29/v1nqlhreuufR9d/R80pLO8j5nIO3wxY6OxozMfuu+ro+pkxYdvk+M7ONdzT3qCuDlhnetucREfGy0tIW8p8Ob5/q+XBURRb+u1Sk9FulhAUT/pfZyLnVqvpqeGlpaRu50ajib0uzcPWT0BzJroltKKfG3zYDXGlbo768nOvLpe00Un27bmEoXH/M1B/klH+stLSLnB+6/vyplj9hrm/Xf9fcB7e0tIkc8fIH7IgVpe1J9V/lfUtJl6mv29PWb7++ebwgWDDhf5lVK2/4hfpZxHGlpZ3k/FOturM9aWzygc0779LSXk4eXrf3IaVuifX32vtTKScP1G0p/9D6HZMPKM2CNVL+w1LSZhpVflIpW2L92NQP14ufONjRXvKJN0xP/mxpelNOJ5SKLtQXfbb+0xLC/zLLVfxMKWlDjWi05PpppNZcDosjp9TS66dRpYeVkjbUmMktu74jwnXdtlr7+NoIt+t2lnNvP85GClv+u1h9/Qr/tITwv9xy9j7RNhYp3auUC5JzLNrBp1i4aPX7tXM6vlS0ofr6bsnt8cCp3nLu6V2N21rOa0584+WtO9hmTvcuFW0opx5/nA1/n10t0k81H3NKB/Mm/C+zHK6DthatOftCJAGhzbX2dhjpqFLRjlp0VpUV+bAjSkm7unF1y8J/OLp/m8urStGj8tpS0I1yLVb8aulg3gRPAADoYDmlgVLSper4/wulhHkT/gEAoINFDuG/y0VKv1hKmDfhHwAAOtTIuZNH5ZT7S0uXap4dbMO2yfuVFuZF+AcAgA6VV/QPlZIuVzWSXf9ZEOEfAAA61ExMD5aSLpcj2/WfBRH+AQCgQzVyw/v9e0XEz9YfuXQwZ8I/AAB0qqgOLxXdLuc1J23ds6F0MGfCPwAAdKzGqlLQAxp9+cGlhDkT/gEAoEM1Imz57yWRf6pUMGfCPwAAQAfIOT+olDBnwj8AAHSoyOnoUtIDIsWP3vsV37C3B/Mi/AMAQKfK9f/oGfXV3b/qsCN/vLQwJ8I/AAB0qsgO+NdrIv1QqWBOhH8AAOhQOceKUtIjciPdv5QwJ3YTWmYj26beVF8Lf1ha2kxEOmdi8+ALSztvw2NTr65vbGeVljYTKZ07MTr4J6VdMLfr9taq6/uU7Tfcdzaqy0tLG5re11hz5TPW3FjaBXE/3uYivXl88+CTStdTRsYm6/uz/KrS0hv+c3x08OdLvajW79h79Ioqr6lm0+r6hnZUNNJRuYp7VindIzfiyOaeJ/Xj6uEpN8868T17oRyV43s3NEdO33V/HHfUgzvq+9Xb6u/dHynfUj93ujnN1h/96aY0k25e0T+798i8dvLijXm6fBMLJPwvMyGhvQn/vUH47y3Cf+8Q/nuI8C/895JI19V/7/cq3ZydvOPmoWp29j5Vro6tA/px9QWuqy/z3inntTnFveogPljPB+v5YD3rK9+2bOrH7Zvr+9/r6+flk3V7dV1fW/+7roqovpUa8Y3+1H/Fva5dfdWF5+SZg9/BXbHbPwAAdKg6qN1WSnpFTsec9tobB0r3f5x63k2DG7ZPPmhkbOr3N4xN/sXwtqnX1x8frj8uGdk2dXs1O70npeoLjUj/Wgfp1+aUX5xz3lTXv1df+MPq5f3qn7GuHYJ/U/3vOapejOScHlJ//G492Fz/5b+k/je/OUfjP5svxF+9buqOkbHJK0a2TX6g+WJt/fH0DVv3/mzzhY6Dl0KT8A8AAB2qUcX+UtJD7pieffCG7Xt/dHj71Ol14P3L4W2T/1h/fKEOvTfN9M1MRuSL6i/7x0j5r+rA/JT64xfrj1Pq4HzYwUvoMgdeqMgn1stfySmdVX/siEZc2HyhY3hscrL+3fxX/XvaMbx16mkjYzf8+MPPjv7ynT1F+AcAgA4122juFU2vqUPcv0XEl3Kkt9eB95yc8+/XHz9etpLzXXLzbQw5/0z9e3p6bqS/b+71cPW6vd8e3jb16ZGxqdeMbN/7+FPG9pxSvryrCf8AANChcsRNpQQOVU6HNd9GUFdnpoi3zqZG8y0R146MTb6t+ZaB4a3XjRz8wu4i/AMAQIfKuc9BzqAVcjqm/vTY5lsGcqN/1/C2qauGxybfMrxt8onN4yiUr+powj8AAHSoiNhbSqCFck7H55Sf0Dyw4Ezf9PXN4wZsGJt6Vie/RUD4BwCADtWfq6lSAosmN5rHDYiUXl7eInDZ8NjkS086b+r+5Qs6gvAPAAAdKvpWCf+w1HLakFN+dl9f+srItsmvjoztfc59t+49saxtW8I/AAB0qMu+dU+7/cNyyvmHU4qX9DfiiuZbA4bH9vzBiW+8vC1PqSj8AwBApzonV973D+2h+daAnBr/sOK2e35reGzq1Sfv2HNqWdUWhH8AAOhgOWW7/kM7yXlNTumsarbx9ZFtU/+xfvvUr6WIerS8hH8AAOhgdaSw5R/aVU4/34j0ryPbp746sm3yyaddECvLmiUn/AMAQAfLKa4oJdC28g+lnN+wf3JqfGTb1BnL8SKA8A8AAB0sUhL+oWPk+6Sctv/PiwAP2BEryopFJ/wDAEAHy5GFf+g4B18EuGlm73+v3z7522W4qIR/AADoYBG2/EPHymlDI/K/jIxNfnzD9r0/WqaLQvgHAIAO1t+oLi8l0LHyw6KqLm6eInDk3MmjyrClhH8AAOhgs9ODtvxDN8i5r3mKwLQifW14bOpXyrRlhH8AAOhg42c19kWkq0sLdLx8n5zSB4a3TZ5/71d84/AyXDDhHwAAOt/OsgS6RM5542GHHfHZDdsm71dGCyL8AwBAh8spvlJKoJvk/MNVzp8dHtvzm2Uyb8I/AAB0uCqnr5YS6DI5pXvk1HjP8LapF6aIup0f4R8AADpcI/XZ8g9dLud09vD2qffM92wAwj8AAHS66aN3pojZ0gFdKqf8G9GfP3vyjj2nltEhE/4BAKDDHTjif86XlRboYjmnU6qZ/JmRsb2/XkaHRPgHAIAukCO+XEqg2+V8dIrqvSNjky841OMACP8AANANcrqoVEAvyLkO/flFI9v3/sspr9tzzzK9S8I/AAB0h8+UJdBbfmtmf+OiE8ZuXFP6OyX8AwBAN5ge+GJE7C8d0ENyxL3W9h19S2nvlPAPAABdoHnQv5zS50oL9JKc/vnijXm6dHdK+AcAgG6R88dKBfSQqoq3l/IuCf8AANAlIqWPlxLoEZFiz+51Qz/whT/hHwAAusSqauaTEXG3u/4C3SVHfns6Pc+W9i4J/wAA0CV2bjnmlpTTp0oL9ICc8wWlvFvCPwAAdJcPlSXQ5SLS1buuW/PJ0t4t4R8AALpKfLAUQJfLOd6ezslVae+W8A8AAF1kYtPQF+rFtQc7oMu9oyx/IOEfAAC6Sc6RIt5fOqBLRcTu8U2DF5X2BxL+AQCgy0SO95US6FY5vePAi32HSPgHAIAus+/22z9cJ4JbSwt0oUbV97ZSHhLhHwAAusxVzzzh9pzs+g/dK/5715Y1XyrNIRH+AQCgOx3ygcCAzhIpv7GUh0z4BwCALnTH7bf9m13/oftEin2rVvQJ/wAAQNn1P9K/lBboEjny23Y+bfXe0h4y4R8AALpWvLUUQJeo+qqtpZwT4R8AALrU+NrB/6gX1x7sgI4X6WO7z1j7+dLNifAPAADd6vQ8GyneXDqg48VLSjFnwj8AAHSxyNXrSwl0ti+Mbx76UKnnTPgHAIAutnvTul2R4sLSAp3rpWU5L8I/AAB0uUaVd5QS6ECR0tfHrxt4Z2nnRfgHAIAut2JdHRoiXVdaoMM0Iv4inZOr0s6L8A8AAF1u5+l5f+Rk6z90oEjxpV2jg+8q7bwJ/wAA0AMaOf4+IqZLC3SIOrQ/K+UcpZ034R8AAHrArk1DV+ec/7/SAp0g4t93jQ59pHQLIvwDAECPmI38ilIC7S5idrbKzy7dggn/AADQIy7fPPCVSGne5wkHlk7zOB2Xnzn41dIumPAPAAC9JFcvKRXQpiLF1KoV/S8obUsI/wAA0EMmNq39WB0tPlFaoA01cn7+zqet3lvalhD+AQCgx0SVX1xKoM1EpM/sunbgtaVtGeEfAAB6zMSWwQ9ESheVFmgTkWKmqtLT0zm5KqOWEf4BAKAX5eo5pQLaRE75b1t5kL/vJvwDtFxMl4IuNlNVs6WkTfUdEVHKBctu13Sh5nv/I8WFpQWWWf2oden04Te/qLQtJ/wvt5xuLhXtqBGTpVqQRmrN5bBIosW3w5yvKxVtKa4vxYLkmTUtuRwWR0Ts371x4KbSLliE23U7qwOs2+M8NXL681ICyyqqnONJVz75pDvKoOWE/+UWaWepaEONSJeUckGias3lsDgit/Z2mKv036WkDeWULi3lgoyf1dhXB8yJ0tJ+vl6WLRENj9ftLGePs/O1a9PQZ1PEBaUFlk1+2fjo0GdKsyiE/+U2E++v73DtOtqOIm44qm+wJbvC9R0WH0yRFu1VPOYvUuyb3df4QGlbYl+j7wPNyy0t7eX2ldXsB0u9YDmld5eSNlOHwXeVsiVmD7v5oxHp26WljRw4OFaafn9pmY++/udFeGsLLJuIr6XpNeeUbtEI/8ts/KyhqyLnN5WWNpJzfsnFG3NLHggvfera5hPGVx7saCc50tYrn7HmxtK2xDdGV99Qh8JtpaWdRHrVzi3H3FK6Bevvq15RL24/2NE2Im7qn12xtXQt0dwNM+f429LSRnLkHbtHj7Xb/wKMn7F6Iud0XmmBJdTcYFTl/P+aexSW0aIR/tvAqhV9zfdajR/saAcR8fEVQwPnlrYlbu2/48X15X6xtLSF+MrKmH1haVpqZTV7dn35i3KkVubtC83bYalb4pIz1l1T32FsLi3tIuenXXLm0VOla53pgZc7NVp7iUiXVP35+aVlAaq+xovqFOJFFFhiORp/unt08GulXVTCfxvY+bTVe3Pq+5X6Acz7CdtApLhw1cr+39p5et5fRi1xzcbjb5uJ2V+ry88dnLDMLs45/VortwJ/t+bl1pf/yLr8wsEJy6m+f/3sdDXzqObtsIxaZnzz0BtzirPqn9Ly8/EyNwd2W4546vjo4DvKqKWaW2Xy9IrfqH/GJ8uIZRVfmY38q608sGMva/4eIycvpMBSivTe8c0DY6VbdMJ/m9g1unr3kbftf1D9BPWv6icVN5QxS6j+3V9dP3H849V9g7/UfEGmjFvqyi3HXDt9+M0/m1P680ixp4xZQgd/7/m59fXwsF2bhq4u40XRvPz65zy0/pnPr/+2nPFhOUS6vnl7mzni5oc3b39l2nK7RodeMxvxkPrnfbSZQMuYJRNV/Xv/90aj8ZPjm4deX4aLYvyso/Yc3T/4iFTFn9btov1Ncdfqm1j9GB1/ecSt0z99xZaBK8uYFpi4buANzRdLSwssqvhmf9X/lNIsifo5Ee3mATtixc2zNzykiuqknNNAGbNo8vWzUe26fHTo8ynnpXvSfkH0De/d+6A8m4dTrobKlMUSjck6hO+eWDtwUTo9L/1BNpvX9569D84pr3d9L4Hm9d0XExPX1Nf3OXlJt8ifev71x07P5gfn3Di2/oesKmMWRd4Xqbo60sxnluU932dHY8O9ph4YkUfq63pdmbJI6lC6t5Ebl+8aWvOpZbkf7xEjYzf8eIrZz9XPifrKCGixiNjfaKSfOXC2jSUk/AMAAN8xPDb16joknFVaoNUibRrfPHh+6ZaM3f4BAIADTt6x59QUMVxaoPX+YTmCf5Mt/wAA0OOGt143knL/c3OKP7TLPyyaz91x+60Pv+qZJyzLaYKFfwAA6FEbtk3eL1J+dkrxBKEfFk/z4OIr+mZ/8sBpgpeJ8A8AAL0kIg9v3/vLOcWf1HHgV8sUWCyRbotq9mcmzly3rKeAFv4BAKAHHLvj6iOOmD3sCXUQOSvndFoZA4usyvE7uzcNvau0y0b4BwCALjYyNvmQevGUiPy4OvTf8+AUWBrxjPHRoVeXZlkJ/wAA0GVO3HrdvVY2+v+givSUOvCfWsbAEoqIv53YPPTnpV12wj8AAHSBU87bc9xMI/9u/Qz/9+on+Q+rn+o7rTcsn38Y3zTwpJRzlH7ZCf8AANCh1u/Ye0KeqR6dczo9RXpoHTQ8v4flFvHBlWsHf3Pn6Xl/mbQFdw4AANApLoi+Ddff8NCqUf1a/UT+1+qn8/cva4D28J+39t3x69dsPP620rcN4R8AANrY8NbrRhp9/b8QkX4hpfil+in86rIKaCvxiVv79v1KOwb/JuEfAADayIaxG9enauZno5Ef0Qz8OafjyyqgTdW31c9Gf/7l3RsHbiqjtiP8AwDAMhk5t1oVq274iTSbHlo/Mf/pevTT9TP0Yw6uBTpBJwT/JuEfAACWwAN2xIob9++5f8p9D0g5HpBTfkCk+JGc88ryJUDHiU9UfY1fb/fg3yT8AwBAi42cO3nvakW+fyPS/SPH/VO9rMen1UF/xcGvADpdRPrIbf13PLpd3+P//YR/AACYhzrgHzXb37hvf6pGqpxOzSmfUoeBU+tn2HWdjipfBnSjSO9duXbgMe12Or+7I/wDAMCdOPW8mwZn+qePSdFYH7m6b67SfSPl++acTkoRJ6Wc15QvBXpIpPSmiaGBp6bT82wZdYT2Df9n1/eyx91w777pPBA5js4p7lGlym5SAAAsSI7cXz8JvkfkdHT9JP4e9aj+yOvq55vH1su19fy4OtyvtYs+8P0i0jkTowPnpJzru4/O0jbh/+Qde06tZho/V/86H1H/q+5X/yZPzimvKqsBAABgWUTEdB2eN45vHnpjGXWcZQ3/I9snT4sq/UH9j/j9lPMJZQwAAABtIVK6OUc8pg7+HyqjjrT04T8ij4zd8OspV8+pf3zzXKYAAADQfiLtSo34rfFNQzvLpGMtafjfsG3qUVWKF+ecf7SMAAAAoP1E/Nv0/r7HX/mMNTeWSUdbkvB/3617T+zP8ar6p/12GQEAAEC7esn40MALOu2I/ndn0cP/yLa9T4gc59c/6MgyAgAAgLYTKd2Sq3jy+Jahfy6jrrFo4f/YHVcfccTsYa+pf8AflREAAAC0qy9ENfPYiS3HjJe+qyxK+B859+a10T/9/pzTg8oIAAAA2lKk9KpVQwPP2Xl63l9GXafl4X/k3Ml7R3/6WM55uIwAAACg7USKqUbkP9y1efBfy6hr9ZVlS2zYPnl85HSh4A8AAEA7i0gf7q/iVy7bMvSFMupqLdvyP3Lu5FHRn/7LafwAAABoWxE31Z+fOT46+IaUcxwcdr9GWS5MRE4r8psFfwAAANpWxL/lRvqh8c1Dr++l4N/Uki3/I2OTf1Jf1KtKCwAAAO0j4qY66v/Jri1DbyqTnrPg8D88tucBKfKnc84ryggAAADaQ8Tb+vuqP73kjHXXlElPWlj4PzsaI8fs/WxdPeDgAAAAANrCeMoxOr5p6MOl72kLes//8DGTm+qF4A8AAEBbiJRuqT89Z+XQwA8J/v9r3lv+T9t63T32NfquyCkPlhEAAAAsj6jl/KaZauZ5V2455toypZj3lv/9jRVbBH8AAACWXcQHZ1PjxyZGB58i+N+5eW35v/crvnH4qsOPuLIO/2vLCAAAAJZUpHRRVNXzd29Z+x9lxF2Y15b/ww4/8rcFfwAAAJZDpPhSpOrRE6ODDxH8D828wn9EelIpAQAAYGlE+nxE9dsTmwZ/YmJ07XvLlEMw593+Tzlvz3GzjXxVynlhpwkEAACAQxHpYxHpZRNbBj9QJszRnLf8Vzn/suAPAADAooqYrT+/YzaqB41vHnyE4L8w8wj/6RdLCQAAAC0VEXsjxctmojE8Pjp4+uWb136urGIB5rwFf3jb1FU5p+NLCwAAAK1Qh/w4/47bb/v/rnrmCbeXGS0yp/B/2mtvHNg/PTtVWgAAAJi/iJvqWPqWHI3X79qy5ktlyiKYU/hfv33qoY1InygtAAAAzEmkmKkXH0w5/8PMYTe/98onn3THwTUspjmF/5GxyafU3/L60gIAAMAPFhF1+vxk/fmCyNNv3z167PVlDUtkbuF/29Sz6+94aWkBAADgLkQVKX0iRfrn/ireeemZa79VVrAM5hr+X1x/x/NKCwAAAN8Rkb5dh8yPVDnes3J2xfsvOfNox4xrE3MN/+fV37GltAAAAPSyaO7Pn5oH6vtgTo0PHN2/5lMXb8zTB1fSTuYY/idfm3J+amkBAADoOfHfKfLHIlUfWbVyxX/tfNrqvWUFbWxO4X94bOrV9TecVVoAAAC6WKR0S50BL4pIn4qcPj2T+j7zjdHVN5TVdBDhHwAAgOYe/JM556/W1cVVyhf391VfuuxbQ5elc3JVvoQOJvwDAAD0igNv0U/frKPgeOS4rJHS12dTfK0xveqr42cdtefgF9GNhH8AAIAuUY62f20d7K+p22/klL+ZIn2jaqRv9Deq3dUdg5ePn9XYd/Cr6SXCPwAAwCKJlD5UZ6jbD9axurmsA/k9IqK/Wd+Fm+svqnKd4OvlTXW/v/7m2+rlLfXo1rq+Med8Y67SjbONdGNfFXunU+PaOPKm66588kl3HLgE+D7CPwAAwCJoboU/8rb9x37lWcfeWkawbBplCQAAQEvFWwV/2oXwDwAAsAga0ff3pYRlJ/wDAAC03ud2bVnzpVLDsptj+A8HjwAAAPhBIraXCtrC3MJ/ZOEfAADg7kTcdGv/vreXDtqC3f4BAABaKr/lmo3HN0/NB21jTuH/f85PCQAAwJ2brZID/dF25rblP8e+UgEAAPD9Ij59+ZmDXy0dtI05hf9IMV1KAAAAvk8OW/1pT3MK/40q31pKAAAAvlvEDbfvu82B/mhLcwr/s40UpQQAAOC7RMpvvuqZJzhOGm1pbgf8i7iplAAAAHyXaMyOlRLaztwO+AcAAMD/EZE+vHvTul2lhbYzt/f853xLKQEAAPiOylZ/2tqcwn+VY6aUAAAAHBDfnFg79L7SQFua43v+8x2lBAAAoBaRdqTT82xpoS3NKfzPRuO2UgIAAPS8iJiuVs68rrTQtuYU/lc28s2lBAAA6Hk5pXde/rR7XVdaaFtzCv99/cI/AADA/8i54UB/dIQ5hf909NGO9g8AAHBAfHXX6MDHSwNtbU7hf+fpeX8kR/wHAABIkW31p2PMbct/Ladk6z8AANDTIqWbV8bMW0sLbW/O4b92U1kCAAD0pJzidTu3HGPDKB1jPuHfHzgAANC7IqIx07e1dNAR5hz+I2XhHwAA6GH5fZf98ZrLSwMdYe7v+Y90aykBAAB6ThXVa0oJHWPuu/3n9O1SAQAA9JSItHP35qGPlhY6xjx2+083lBIAAKCn5JTOSznXsQg6y9x3+0+xt5QAAAA9JG484rb9bykNdJS5b/mPJPwDAAA9p85Cr/3Ks451DDQ60ty3/Ocs/AMAAD0mqv5G31hpoOPMOfxX3vMPAAD0nPzeSzetuaI00HHmHP4b4T3/AABAb4lcnVtK6Ehz3/LfJ/wDAAC9IyK+OLFp7cdKCx1pzuG/r1oh/AMAAD0jNxqvKCV0rDmH/9m+aqqUAAAAXS0iXX10Y80FpYWONefwv3vjwE3NI12WFgAAoGvllF5z8cY8XVroWHMO/03O9Q8AAHS7SOnW6f2Nvy8tdLR5hf+U8mQpAAAAulJO6Q1XPmPNjaWFjjav8F/fCK4tJQAAQBeKKqe+V5cGOt78tvznuK5UAAAAXSciv2vX6OrdpYWON8/3/GfhHwAA6FrRSK8qJXSFeb7nP+z2DwAAdKWI9JndmwY/WVroCvN7z39OtvwDAABdqc47rywldI15hf8q5WtKCQAA0DUiYmJ8aOBfSgtdY35b/lN1fSkBAAC6Rk7579Lpeba00DXmFf77Z5Mt/wAAQHeJdN0dd9z65tJBV5lX+L/HyqE9pQQAAOgKkeLcq555wu2lha4yr/B/8cY8Xd8wvAAAAAB0hYj07Zn9fdtLC11nXuG/KYcj/gMAAN0izr/yGWtuLA10nXmH/9o3yhIAAKBjRcT0ir7qVaWFrjTv8B8pfbOUAAAAHSun9OZLzljnoOZ0tflv+c+2/AMAAB0uImar6m9LB11rAbv9hy3/AABAR4uc33X5mesuKy10rfmH/0hXlQoAAKAjNXK8rJTQ1eYd/nPfCrv9AwAAnew/d20a+mypoavNf8v/vqNs+QcAADpW5OpFpYSuN+/wP35WY19yrn8AAKADRcTHJzat/Vhpoest4IB/BzjoHwAA0Hki/02poCcI/wAAQE+JlC6a2DL4gdJCT1hQ+K9vNFeWEgAAoCPkyC8uJfSMBW75j92lAAAAaHuR4kvjo2veX1roGQvb8t/IE6UEAABoe5HTi1LOUVroGQsL/zOz46UEAABoa3Xi//ruawffU1roKQsK/4cfs/aK+iZUlRYAAKBt1eH/RemcLL/QkxYU/neenvfXt6CrSgsAANCeIu3afd3ABaWDnrPAA/7Vsvf9AwAA7S1H/I2t/vSyhYf/COEfAABoW1FnluP2DL61tNCTWrDlvyH8AwAAbSunxgsvPCfPlBZ60sLDf7LlHwAAaE/NI/yPX7/mn0oLPWvB4T9mZ4V/AACgLTnCPxy04PCfq4Zz/QMAAG0nUnzJEf7hoAWH//Gzhm6O5HR/AABAm4k4x1Z/OKgF7/lvHkAjXVpKAACAZRcRX5wYHXpPaaHntST813aWJQAAwPKL/LyUc5QOel5rwn/kS0oFAACwrOrEf9HElsEPlBaotST8R5r9eikBAACWVSPFX5QSKFoS/meiEv4BAIBlFyku3DU69JHSAkVLwv+VW465NkXcVFoAAIBlkaNxdimB79KqA/6lSNnWfwAAYPlE/Nv45oELSwd8l5aF/5ST8A8AACyPiJhNjeeWDvg+LQv/9QUJ/wAAwDLJb71888BXSgN8n5aF/9mUvlZKAACAJRMR+2civ6C0wJ1oWfhfMVt9uZQAAABLJ+dtV2wZuLJ0wJ1oWfi/9My134oUU6UFAABYfBE39fWt+JvSAXehZeG/KUe29R8AAFgykdLfXrbxqMnSAnehpeE/chL+AQCApXLtbf37XlVq4G60NvynEP4BAIAlkXN64TUbj7+ttMDdaGn476v6hH8AAGDxRdp13LUDry8d8AO0NPyvWLd6Z6SYKS0AAMDiiHjehedk2QMOUUvD/87T8/4c6ZLSAgAAtFykdNH45sF3lhY4BC0N/031DdGu/wAAwOJppGeknOvoARyqlof/Rna6PwAAYJFEvG3ijMFPlw44RC0P/7OpuriUAAAArRPpjploPKd0wBy0PPyvWJk+lyLsggMAALTaK6/YMnBlqYE5aHn4v/Spa78dKV9WWgAAgFa4dmXMvKTUwBy1PPw35ZQ+W0oAAIAWiOfv3HLMLaUB5mhxwn+Oz5cSAABgQSLFl8avG3xTaYF5WJTwH7b8AwAArZLjGemcXJUOmIdFCf933H7bl1PEbGkBAADm690Tm9Z+rNTAPC1K+L/qmSfcHjl9tbQAAABzFhHTUc08q7TAAixK+G/KkbzvHwAAmLec03kTW44ZLy2wAIsW/iOy9/0DAADzEin2VH2NF5UWWKBFC/9VzheVEgAAYE5ySs/ZvXHgptICC7Ro4f/y69d8LVK6ubQAAACHJCJ91qn9oLUWLfw3T8WRIz5dOgAAgB8sIhqNONOp/aC1Fi/8N+X0yVIBAAD8QJHyG3dtGnL8MGixRQ3/VQrhHwAAODQRN0Xe/9zSAS20qOH/HrfOXFTfgGdLCwAAcJcix/N3jx57fWmBFlrU8P+VZx17a0r5i6UFAAC4U5HiSxNDQ+eXFmixxX3Pfy1S+lQpAQAA/q/mQf6qdEY6PdtrGBbJoof/+id43z8AAHB3Xr9ry9BFpQYWwaKH//6Z6hOlBAAA+B6RYmrlyv5nlxZYJIse/i89c+236hv05aUFAAD4X1V+7s6nrd5bOmCRLP5u/wfkj5YCAACgiE9NbB54XWmARbQk4T9H/lgpAQAAmrv7z0SVn55yjjICFtGShP++ataWfwAA4Dtyyn87sWXwv0sLLLIlCf8H3vcf6dLSAgAAPSwidt9x+61/VVpgCSzRe/6bwq7/AABAyiltuuqZJ9xeWmAJLFn4z5E+UkoAAKBXRbxtfPPQh0oHLJGl2/I/u/LCUgEAAD0oIvZWefqs0gJLaMnC//hZR+2pb+1fKy0AANBjIqc/3T167PWlBZbQEr7nv3ljz/9RSgAAoIdEpA/vHh16c2mBJbak4T9V1X+WCgAA6B239802NpYaWAZLGv77D0sfjRQzpQUAAHpARPqLy/54zeWlBZbBkob/S5+69tv14pMHOwAAoOtF+vzE2oFzSwcsk6Xd7b+WI/97KQEAgC4WEfurnJ6cTs+zZQQsk2UI/40PlhIAAOhuL9o9OuiMX9AGljz879q8+ssR6ZrSAgAA3ekL975+8GWlBpbZkof/lHOknGz9BwCALtU8yHeuGn904TnZwb6hTSx9+G+K9IFSAQAA3Sbyi3dtWfOl0gFtYFnC/3Tu+1B9j1CVFgAA6BIR8eXV/QMvLi3QJpYl/H9jdPUNEfmzpQUAALpA8+j+jUbjDy/emKfLCGgTy7Pbfy2ncMo/AADoLi/atWngy6UG2sjyhf/oe28pAQCADhcpXTSxdvClpQXazLKF/wMHAIn4RmkBAIDOdXtfX/WkdHqeLT3QZpYt/B+Q83tKBQAAdKx43mUb115SGqANLWv4r1L17lICAACdKNJHxzcNnls6oE0ta/hf0zf08fre4sbSAgAAHaV+Lj8Tf5hyjjIA2tSyhv/mKUAi0r+VFgAA6CBVypvGzxq6qrRAG1ve9/w3NbzvHwAAOk1E/NPu0cG3lRZoc8se/vtXVP9e33HsLy0AAND24psz+/s2lwboAMse/i996tpv55w+WloAAKCdRS3HE698xhrH7oIOsvy7/TeFXf8BAKATRE4vn9i09mOlBTpEW4T/Ku//l/pupCotAADQnj63um/wBaUGOkhbhP/do8denyJ79RAAANpUpHRLavT9v+YZu8oI6CDtsdv/Qe8oSwAAoO1Uo+NnrJ4oDdBh2ib8r1zZd0GkmCktAADQJpqn9ZsYXfuW0gIdqG3C/86nrd6bI/1HaQEAgDZQB//deSZtKi3Qodppt/8mu/4DAECbqIP/dPTFY8fPGrq5jIAO1Vbhf+XK/nfZ9R8AANpDzunPd5+x9vOlBTpYW4V/u/4DAEDbePf4psFzSw10uHbb7T9VOf1/pQQAAJZFfHPlir4/SjlHGQAdru3Cf+prvDtS7CsdAACwhJpvw41Gfmxzr9wyArpA24X/3RsHbsopv7e0AADAUor83IkzBj9dOqBLtN+W/wPyP5QCAABYOu+eGB14RamBLtKW4f/ovjUfjBR7SgsAACyy5vn8p/c1nux9/tCd2jL8X7wxT6eU/6m0AADAYop0RyP6fvfKZ6y5sUyALtOmu/03VW8pBQAAsKhiy64ta75UGqAL5bJsS8Pbpv4753RaaQEAgBaLlN40MTr45NICXaqNt/wfeGXCgf8AAGCRRIov7bv91tHSAl2svcN/I97aPPJIaQEAgBapn2bv7c99v33VM0+4vYyALtbW4X/XpqGrI+X/KC0AANASUeWU/t+lm9ZcUQZAl2vr8N+Uc3pjKQEAgJZoPH9889CHSgP0gLYP/2l6zTtTxA2lAwAAFiAivXN805qXlRboEW0f/sfPauyLlJ32DwAAFihS+nr/qurJKWfH1YIe0/5b/mtVlV5XSgAAYF7ixsizj770qWu/XQZAD+mI8H/5mYNfjUifLS0AADAnUaWcTt+9ad2uMgB6TEeE/6ac4u9LCQAAzEWV/mx809CHSwf0oI4J/0fcNv22SOnm0gIAAIci0pvHtwy9qnRAj+qY8P+VZx17a470D6UFAAB+gEjpojSzZmNpgR7WMeH/gEZsLxUAAHA36uB/1YrG7G83z55VRkAP66jwP75paGek+K/SAgAAdybSbTk1fvOSM9ZdUyZAj+usLf+1SNnWfwAAuCvRVP3++OiaL5YJQOeF/8OGBv6lXlx7sAMAAL5Xfs7ElrXvKQ3AAR0X/neenvenFOeXFgAAKCLSG8Y3D768tADf0XHhv2l2xcz5ETFdWgAA6HmR4sJVawc2lRbge3Rk+L/8afe6LuX09tICAEBPi0iXrlrR/zsH95IF+L86Mvw3NXI6r5QAANCzIsWevtnGI3c+bfXeMgL4Pzo2/O/aNPTZFPHp0gIAQC+6vZHTr1/2x2suLz3AnerY8H9ApFeWCgAAekxUVY7HH9goBvADdHT4H183+K5I4VVOAAB6Tk7pGbs3Db2rtAB3q7O3/J+eZ+v/gFeXDgAAekKkdO6u0aHXlBbgB+rs8F9bUc2+ob77u7G0AADQ3SIumNg08IzSARySjg//O7ccc0tEOr+0AADQternvR9ZuXbwD1LOUUYAh6Tjw3/Tir7qNSnSHaUFAICuExFfzDPxu87lD8xHV4T/S85Yd02keHNpAQCgq9TBf6JaOfPI8bOGbi4jgDnpivB/QMz+XX2vOFs6AADoCpFiT/1c91cvf9q9risjgDnrmvA/seWY8ZTTP5cWAAA6XqR0S/35kQee6wIsQPds+T+g72WlAACAjhYR+yNVj54YXXtxGQHMW1eF//HRNV+MFO8rLQAAdKioUo7H7B5d+9EyAFiQLtvyn1JO6W9KCQAAnSk3njgxuva9pQNYsK4L/+OjQ59JER8sLQAAdJbIm8c3Dfxj6QBaouvCf1P05XNKCQAAHSMinje+eWCstAAt05Xhf+KMwU9HigtLCwAAba9+/vryic1DLyktQEt1ZfhviqrxF6UEAIC2Vgf/8yc2DT6ntAAt17Xhf/eWgU947z8AAO0uUnpjHfxHU851CbA4ujb8H5DTC0sFAABtJyL+aWJo4GmCP7DYujr8Hzjyf0rvOdgBAED7OBD81w4+MZ2eZ8sIYNF095b/AxqO/A8AQHuJ9C7BH1hKXR/+x0fXfDFFvK20AACwrCLF+1auHXic4A8spR7Y8t/cpWr2BfWd7ExpAQBgWTSD/6qhwd/beXreX0YAS6Inwv/ElmPG68XfH+wAAGDpCf7AcuqJ8N+0olH9daR0a2kBAGDJCP7AcuuZ8H/JGeuuySm9urQAALAkBH+gHfRM+G/qW1m9rL73vb60AACwqJqn8xP8gXbQU+H/0qeu/Xbk9ILSAgDAovmf8/gL/kA76Knw33Tv6wbeUN8V/3dpAQCg5f4n+DudH9Auei78X3hOnokq/1lpAQCgxeK1gj/QbnJZ9pzhsakP1v/xv1xaAABogXjl+KbBP0s5RxkAtIWe2/L/PxoRfxIpZkoLAAALFC8cHx16puAPtKOeDf+7Ng99PUXeWloAAJi/Kv60Dv7nlA6g7fRs+G+K/vzCSLGntAAAMEdRpYinjm8ZelUZALSlng7/uzcO3JRSfl5pAQDgkEXEdET+/fHNQ68vI4C21dPhv2niuoE3RKTPlhYAAA7F7dHIvzWxefDtpQdoaz0f/tM5uUq5Gj2wyxYAAPwAkWKq/vzzuzcN/lsZAbQ94b82Mbr24kjp/NICAMBdiG82Iv3M+OjQZ8oAoCMI/0X0NZ6XIl1fWgAA+D7x32k6/fSBs0YBdBjhvygH/3tmaQEA4H9FfHJ/6v+Z8bOGrioTgI6Sy5JieNvUh3NOv1haAAB6XKR43219+x53zcbjbysjgI5jy//3aeS+jfXi9oMdAAC9LV47MTT424I/0OmE/++za3T17pzS2aUFAKBn5eeOjw49PZ2eZ8sAoGMJ/3fiuOsGXhUpvlRaAAB6SETsz1X6/fHRgZeWEUDH857/u7D+/D0PbMzmz6Sc+8oIAIBuF3FDzo1H7xod+HiZAHQFW/7vwu4z1n4+pfyy0gIA0OUixeV9OX5K8Ae6kfB/d2bWvKh+GPjv0gEA0KUi0mcjTT/k0tG1l5YRQFcR/u/G+FmNfVUjnlQ/GjjICwBAt4q44Lb+Ox6xe/TY68sEoOt4z/8hGNk29eL6N/W80gIA0CUi0jkTowPnpJyjjAC6ki3/h2JmzYsi4sulAwCg891eB//HTWwefKHgD/QCW/4P0UnnTd2/0YjP55xXlhEAAJ3p2jrvP3rXpqHPlh6g69nyf4guP3Pwqynl55cWAIAOFBFfTNPxk4I/0GuE/zmYuH7glZHiv0oLAEAHiZT++bb+fQ8bP2voqjIC6Bl2+5+j+27de2J/o/pS/atbXUYAALSziMg5/eWuTYMv9v5+oFcJ//MwMjb1mHpxwcEOAIC2FXFTyo0njI8OvL9MAHqS3f7nYXx08B31A8nrSgsAQBuKlL4+W1UPEvwBhP95O+K26T+JSJeWFgCA9vLu/pXVgy8/c91lpQfoaXb7X4ANW2/4saox+5mc8qoyAgBgOUVE/Qz37PFNg3/t/f0A/8uW/wXYtWVN88B/f1xaAACWU8QNOeXfGB8d+ivBH+B72fLfAsPbJt+ac358aQEAWHoXN2Yaj7nsj9dcXnoAvost/y2wKmbP8P5/AIBlEvH3aXrNQwV/gLtmy3+LrB+b+uFGpIvq3+gRZQQAwGKKdFuk2DSxeegfygSAu2DLf4vsHh38WqT0lNICALCYIu2ardJDBH+AQyP8t9DE5sG3R0qvKi0AAIsgIr2zb1X1gMvPHPxqGQHwAwj/LXbv6wb+PEX6WGkBAGiRSLGv/rRpYvPg71361LXfLmMADoH3/C+Ck1577TF90/2fq3+99ykjAAAWICJdUlXpdFv7AebHlv9FcPnT7nVdSn2PrsvbD04AAJivSOmNR962/4GCP8D82fK/iEbGph5TLy442AEAMBd16L8l53zG+KaBfywjAObJlv9FND46+I76QetFpQUA4BBFxBcjz/6E4A/QGrb8L7aIPLx97wX1L/r3ygQAgLtSp/5I6e9WrR38i52n5/1lCsACCf9L4NgdVx9xxOxhH61/2Q8uIwAAvk8d+q9KUT1xYvPa/ywjAFrEbv9L4JqNx98Waf9vRsQVZQQAwPeIt0+nvh8R/AEWhy3/S2jDtsn7RUqfTjkfXUYAAD0tIn075WrzxOjat5QRAItA+F9iw9v3/Fyq8odyzivKCACgR8Wn+nLf4y/dtMbekQCLTPhfBsPbp07PVbwt5ez3DwD0nEixr5HyC3YNDbwynZ5nyxiARSR8LpORbZNn1eH/1aUFAOgVF1cpPWn36ODXSg/AEnDAv2Uyvnno3EjxstICAHS1+nnPTIo4+/jrBh4i+AMsPVv+l1NEHt6+97X1lfBHZQIA0IXiq7nqe+KuLWu+VAYALDFb/pdTzjExNLAxRVxQJgAA3SNiNkX6mzQ98JOCP8DysuW/DZx2Qazcv2fq3SnnR5YRAEBHi4gvR188dfcZaz9fRgAsI1v+28DO0/P+W/v3/V5d/ufBCQBAZ2oeyb8O/n+xun/wJwV/gPZhy38bOeV1e+45s6/xkZzTg8oIAKBzRHyy0R9PvWzj2kvKBIA2Ify3mfU79h6dZ+JDXgAAADpFpHRryvGciWsHx9I5uSpjANqI8N+GvAAAAHSO+EDV19i4e+PAN8oAgDYk/LcpLwAAAO0sIl2TGulPJjYNOmsRQAdwwL82tXvjwE3Rn3+5fmD9bBkBALSBqFKkrXkmThX8ATqHLf9tbuTcyaPSivzuunzEwQkAwLL5QtWoNjqKP0DnEf47wLE7rj7iyNnD3l+XXgAAAJZcRPp2TvGC8bWDW9PpebaMAeggwn+HOO2CWLl/cu/b6/K3Dk4AAJZCvD3n9Mxdm4auLgMAOpDw30kuiL7hyb2vq6+0J5UJAMDiiPhaSo0t45sHLiwTADqY8N9pIvLw2N5X5pz+pEwAAFon4qb6ecZfHnfd4NiF5+SZMgWgwwn/HWpk29Sz62vvpaUFAFiYqKX8xsj7n7t79NjryxSALiH8d7CRbXufEKl6Q855RRkBAMxZ89TCjYg/3rVl6KIyAqDLCP8dbmT75C9F5H+ur8ijyggA4JDUof/qlKvnTmwaemvKOcoYgC4k/HeBDVtv+LGqUb2vvjLvXUYAAHepTvm35hQvu+P22/7uqmeecHsZA9DFhP8ucer51x87U/W9ry4fcHACAPB9yvv6V/TN/sUlZ6y7pkwB6AHCfxc5dsfVRxwxe9hb6iv1d8oIAOCgSB/NjfynuzYNfLlMAOghwn+3icgj2/e+uK6ee3AAAPS4y1LkPxvfPNDcQxCAHtUoS7pFzjE+Ovi8iPS4FOm2MgUAekyk9K2o0tOPv27ghwR/AGz572LNAwFGY/bd9dV8YhkBAF0vbkyRX3LHHbee52B+APwP4b/LnXreTYMzjZkL6mv658sIAOhOzaD/6ul9jZdf+Yw1Nx4cAcBBwn8vuCD6RvbsfVF9bT+vTACAbhExGzm9dkWjepEj+ANwV4T/HrJh29SjIsdb66t9dRkBAJ3qwFn70gVRzf7FxJZjxssUAO6U8N9jTn7NDSdVfVXzbQAPLCMAoJOU0F9/vGh809DOMgWAuyX896DTLoiV+/dM/U3K+ZllBAB0hvfMRv7LyzcPfKX0AHBIhP8etn5s6pE5xZtzymvLCABoT+9JqXHO+OiaL5YeAOZE+O9xp5y357iZRuNNOadfKiMAoH0I/QC0hPBP872DecP2qTPrxcvqv4jDyhQAWA7N9/Sn/O6UG38l9APQKsI/37Fh2+T9qpT+Mef842UEACyViNn6qdk/pUa81IH8AGg14Z/v8YAdseLGmb3PTzmen1PuL2MAYLFEuiNyvKk/973s0k1rrihTAGgp4Z87tWHrDT9W5dk35Zx/tIwAgBaKlG6tP29b0ahefckZ664pYwBYFMI/d6m5F8BNs1PPi0jPyzmvLGMAYAEixVT9BOy86X195175jDU3ljEALCrhnx9oZPvkafUzlR31n8vDyggAmLvL6sfTV91xx61vvuqZJ9xeZgCwJIR/Dk1EHt6296m5ES+v/2xWlykA8ANExMdTjr+buG7o/emcXJUxACwp4Z85Oem11x7T2N//ipzz48sIAPh+zSP35/TPsxGvuHzz2s+VKQAsG+GfeVm/de/Dcq62OiAgAPyvSOmWevHa2Sqfe8WWgSsPTgFg+Qn/zN8F0Tc8OXlGjvxXKec1ZQoAveiyFDGWZtIbx88aurnMAKBtCP8s2Mk7bh6qZqZfmFKckXLuK2MA6G5RS+lfU+RtE5sHPlg/BtYtALQn4Z+WOWVszymz0Xh5/Vf1m2UEAF0omqfne0Nq9I+Nn7F64uAMANqb8E/LjWzb+/D6idHf1X9dDywjAOh8EV+LnM878tb9//iVZx17a5kCQEcQ/lkcEXlk29TvRiO/qP4ju1+ZAkBHiRT76sU7Gqnx97tGBz5+cAoAnUf4Z3GdHY0Na6eeWDXSX+aUTypTAGhrkdLXc4q/X7mi/x92Pm313jIGgI4l/LMkTrsgVu7fs/cpKcfz6j+7+5QxALQNW/kB6GbCP0vqu14EeE7953diGQPA8on4Wv35dStX9r/FVn4AupXwz7J4+NnR/621U0+ocvqLnPNwGQPA0oi4KVJ6W87pTeOjQ58pUwDoWsI/y+rgiwB7HxON9Gd1+xMHpwCwGKJKkT5c5fym2cNvfveVTz7pjrICALqe8E/b2DA2+YtV5D/POf1SGQHAgkWkS3Md+HOu3rJr09DVZQwAPUX4p+1s2L73R6uq+vO6fEz9ZG3FwSkAzEHEDWW3/n+wWz8ACP+0sVPPv/7Y6arvjPoZ3Kac8toyBoA7F+m2lON9KRr/uHLtmg/uPD3vL2sAoOcJ/7S9kXOrVdWKvY9rpPzHdeu4AAB8R6SYyZE+lBqNf1o5O/2enVuOuaWsAgC+i/BPRxneNvXT9R/t0yPH43LKq8oYgF4SEfUzmE+myP/Y6F/xz5dtPGqyrAEA7oLwT0c67bU3DuyfnnliRD4j53RKGQPQxSKli+rFO6Ivv2P3xoFvHJwCAIdC+Kez1el/+PzJh6cqPzXn/Dv15PCDKwDoeN/Zwp/+uepvvEvgB4D5E/7pGut37D26r4rHVVV6Ss7pQWUMQEeJKlL6eB3439lfxTsvPXPtt8oKAGABhH+60vDWqR/KOZ4cKf9+zunYMgagDUXEdP2U5ML6Sck7q7z/X3aPHnt9WQUAtIjwT3e7IPpGpqZ+PlX58ZHS7+Sc7lnWALCs4sb6fvnfU+T3RH/+wO6NAzeVFQDAIhD+6Rn3fsU3Dl95+JGPzhGPr9tfzjmvPLgGgKUQEVekXIf9VL13Td/Qxy/emKfLKgBgkQn/9KQTX3XD6hUrZ3+3Lh8TOf1CTrn/4BoAWubAAfvy5+vFe6rUeN/lmwe+UtYAAEtM+KfnHTht4P6Z365LLwQALFCkmKo/fSCnxgeqvO9D3r8PAO1B+IfvcsLYjWtWpOlfT6nxWznSr9a3kCPKKgDuVFQR+fN18e+NiH/ftWfwc+mcXB1cBwC0C+Ef7kLzGAGrDj/8l1Jq/Hb95PY3csqDZRVAb4vU3Jr/wRzp3/ui/0OXnHn01MEVAEC7Ev7hUFwQfeun9j6kEelR9bPe+iP/SFkD0PUipVvqz81T8X1kdjb/x+VbBr6Wch39AYCOIfzDPKzfsfeExmw8KlI8Kqf88/Xo8INrADrfgfPu5/Sp+knCf1Q5f/Q+1w5cdOE5eaasBgA6kPAPCzRybrWq6pt6WM75V3JOv2KvAKDjRMzW911fTDk+Fil/5La+Oz5+zcbjbytrAYAuIPxDi5249bp79ee+X67L+iP/fM7p2INrANpDpNiXI30+5fyxqNInVqWZT+zccswtZTUA0IWEf1hkJ+/Yc+rsbPqFFI1H1E+5H5FzHiirAJZEpHRr/YD/mZziY1WOT8wcdstnrnzySXeU1QBADxD+YSmdHY0Na2/8kWjM/lx983t4RDTfLjBU1gK0SHyzTvyfrh/lP52r9Onj9gxe7D37ANDbhH9YThF5w9jUqdF8ISDFz6Scf7a+Ud67rAX4gcou/F+oy0/VzWf6Ij516Zlrv3VwLQDAQcI/tJnmmQTyTPxUfev8qfqJfL2Mn8gp95fVQI+rw/7lddj/3P9s1V+xbvCLO0/P+8tqAIA7JfxDm7v3K75x+MpV93hAI8dPR0oPyjkeVN9071NWA12tuft+bh6Y77MpVxev7O+/eOfTVu8tKwEADpnwDx3opNdee0z//hUPrFJ6cE7xwEjpJx07ADpbfTv+Vv354rq4qA78F+fZFRePn3XUnrIaAGBBhH/oEgffLjD7Eyk3frwOEPVH/nHHD4D2Eylm6tvm1+uw/+X6dvqlRoov576VX7ps41GT5UsAAFpO+IcuNnLuzWvTyv0/liP/WJXiR+rUcf96fFrOecXBrwAW14Gj7n+tfrT974j01Zz7vpqmj945flZjX/kCAIAlIfxDj3n42dF/1dq9p0Qj3b8R6f6R4/51OPmhnNN967uERvkyYC4ivhE5X1JXX09VHfT70s7G/vjq+FlDNx/8AgCA5SX8Awec+MbLD1t5x9GnzEbcL0c6rb53uF9Ocb+IdLI9BaAW6baUYzxSvqyuv54b+dKYmfn6kXfMXvqVZx17a/kqAIC2JPwDd++C6NswedOJVTV7cqMRJ0fkDZHTySni5JzTCfYWoJtEpG/Xn3fnnC+vl+NR1UG/r9rVSHnXrk1DV5cvAwDoOMI/MG8j51ar+lZM3Xc6N4ZzivUp8vr6TmV9HZrWRzpQH1m+FNpCpHRr/bd6Rb28Ike+vF5e3qj7qqquWHXYyiucRg8A6FbCP7Bo1o9dsy41+k9oVPnEVKUTopFPzJFOqO95TowUJ+aUB8uXQgtEVT+sXV8n/KsixzXNZf03dkU00hWRq939edUVjqgPAPQq4R9YNs3jDPTdceR9GlX/cTniuMjphEjpuPqe6bg6uN07pwOzY+oAt6p8Cz0qIiZzTs1A/63IuQ716dp6fHWk6upGztf25eqblwysvT6dnmcPfgcAAN9N+Afa3omvumH1qiNm7lXN9B1T5Ti2EXFMpHSvlPPaOhauy5GG6ruz+iOG6tma8m20sUgxlVOeqlP9VH3d7Ymc9tTTqUbKkweCfsrXR46pvtx37ez+o69xajwAgIUR/oGu0jyV4RVrrx/qT/2DdZAcrPLsQM55IFJeU9/hralDZ/PFgYN15NV1fVR9T3hUjrhnyvnoAxfCDxbpjvrzzfXvrnkqu+bHTQeWkW78zizSzbmRborZOug3GtdFrqaqmJ7cPXSvKVvoAQCWlvAP8F1Gzp08ql4clfvTPVMj3bNKcUQdYo9K0Ti8EXF45HR0fdd5WKR0eH0Purq+E20cWJ8P3J8eePEgUjRfVGgWzcv6n7MhHJ0Pfk09z4fVn+qP/1Vf3hGHdErF5unmUkyX7n9U9SX/n/PJR+Tb688HtpjXP/vb9c+YzZGbIb0ZvG+u/1tm6uUt9Rfur7/itvrn14G+uiOqfGv9HzUdjeb31D+rvuzGbP+NqZFvzn2Nm++Z7nnTxRvz9/8bAAAAAAAAWB4p/f/t71wv3wCHDwAAAABJRU5ErkJggg==;fontColor=#333;" parent="1" vertex="1">
                    <mxGeometry x="20" y="20" width="28.37" height="20" as="geometry"/>
                </mxCell>
                <mxCell id="97" value="Order queue" style="swimlane;collapsible=0;swimlaneLine=0;align=left;fillColor=#fff2cc;strokeColor=#d6b656;swimlaneFillColor=#FFF2CC;fontColor=#333;" parent="1" vertex="1">
                    <mxGeometry x="100" y="95" width="77.75" height="30" as="geometry"/>
                </mxCell>
                <mxCell id="103" style="edgeStyle=none;shape=connector;rounded=1;html=1;labelBackgroundColor=default;fontFamily=Helvetica;fontSize=11;fontColor=default;endArrow=classic;strokeColor=#333;" parent="1" source="64" target="97" edge="1">
                    <mxGeometry relative="1" as="geometry"/>
                </mxCell>
                <mxCell id="102" style="edgeStyle=none;shape=connector;rounded=1;html=1;labelBackgroundColor=default;fontFamily=Helvetica;fontSize=11;fontColor=default;endArrow=classic;strokeColor=#333;" parent="1" source="55" target="97" edge="1">
                    <mxGeometry relative="1" as="geometry"/>
                </mxCell>
                <mxCell id="101" style="edgeStyle=none;shape=connector;rounded=1;html=1;labelBackgroundColor=default;fontFamily=Helvetica;fontSize=11;fontColor=default;endArrow=classic;strokeColor=#333;" parent="1" source="52" target="97" edge="1">
                    <mxGeometry relative="1" as="geometry"/>
                </mxCell>
                <mxCell id="100" style="edgeStyle=none;shape=connector;rounded=1;html=1;labelBackgroundColor=default;fontFamily=Helvetica;fontSize=11;fontColor=default;endArrow=classic;strokeColor=#333;" parent="1" source="21" target="97" edge="1">
                    <mxGeometry relative="1" as="geometry"/>
                </mxCell>
            </root>
        </mxGraphModel>
    </diagram>
</mxfile>